<?xml version="1.0" encoding="UTF-8"?>
<svg width="64px" height="64px" viewBox="0 0 64 64" version="1.1" xmlns="http://www.w3.org/2000/svg" xmlns:xlink="http://www.w3.org/1999/xlink">
    <!-- Generator: Sketch 46.2 (44496) - http://www.bohemiancoding.com/sketch -->
    <title>64x64 history</title>
    <desc>Created with Sketch.</desc>
    <defs>
        <polygon id="path-1" points="55.0465479 63.030303 0.2604914 63.030303 0.2604914 0.000114600551 55.0465479 0.000114600551"></polygon>
        <polygon id="path-3" points="24.0304132 56.2424242 0.0047683446 56.2424242 0.0047683446 0.510887817 24.0304132 0.510887817"></polygon>
        <polygon id="path-5" points="33.9067419 10.6666667 0.000117032393 10.6666667 0.000117032393 0.354346667 33.9067419 0.354346667"></polygon>
        <polygon id="path-7" points="51.6261204 0.000426666667 51.6261204 10.31296 0.0231227301 10.31296 0.0231227301 0.000426666667 51.6261204 0.000426666667"></polygon>
        <polygon id="path-9" points="30.0606061 0.000426666667 30.0606061 10.31296 0.00485594406 10.31296 0.00485594406 0.000426666667 30.0606061 0.000426666667"></polygon>
        <polygon id="path-11" points="0.00057807309 63.030303 63.5880399 63.030303 63.5880399 0.000573002755 0.00057807309 0.000573002755"></polygon>
        <linearGradient x1="4.80792773%" y1="100%" x2="186.67541%" y2="-101.473313%" id="linearGradient-13">
            <stop stop-color="#183431" offset="0%"></stop>
            <stop stop-color="#52B346" offset="100%"></stop>
        </linearGradient>
    </defs>
    <g id="jhef" stroke="none" stroke-width="1" fill="none" fill-rule="evenodd">
        <g id="64x64-history">
            <g id="Page-1">
                <path d="M3.87878788,50.5096086 L3.87878788,28.0528293 C3.87878788,27.0180243 4.6933095,26.1818182 5.69875227,26.1818182 C6.70532475,26.1818182 7.51984637,27.0180243 7.51984637,28.0528293 C7.51984637,33.2117564 11.6026219,37.4102078 16.620798,37.4102078 C19.0203042,37.4102078 19.0304716,41.1522301 16.620798,41.1522301 C11.6026219,41.1522301 7.51984637,45.3506815 7.51984637,50.5096086 C7.51984637,52.9764166 3.87878788,52.9868691 3.87878788,50.5096086" id="Fill-1" fill="#E1E4FB"></path>
                <g id="Group-5" transform="translate(3.878788, 0.000000)">
                    <mask id="mask-2" fill="white">
                        <use xlink:href="#path-1"></use>
                    </mask>
                    <g id="Clip-4"></g>
                    <path d="M55.0465479,63.0304176 L24.7072359,63.0304176 C23.6545332,63.0304176 22.8270762,62.2178997 22.8270762,61.1842028 C22.8270762,60.1493598 23.6545332,59.3368419 24.7072359,59.3368419 C27.1896069,59.3368419 27.1896069,55.6444121 24.7072359,55.6444121 C23.6545332,55.6444121 22.8270762,54.8318942 22.8270762,53.7970512 L22.8270762,50.1046215 C22.8270762,47.6303956 21.8490663,45.3395306 20.0809459,43.5678061 C18.2754791,41.8316077 15.9436609,40.8712551 13.4239435,40.8712551 C10.9415725,40.8712551 10.9415725,37.1776793 13.4239435,37.1776793 C18.6139312,37.1776793 22.8270762,33.0417455 22.8270762,27.945459 L22.8270762,24.2518832 C22.8270762,23.2181862 23.6545332,22.4056683 24.7072359,22.4056683 C27.1896069,22.4056683 27.1896069,18.7120926 24.7072359,18.7120926 L2.14065111,18.7120926 C1.0879484,18.7120926 0.2604914,17.8995747 0.2604914,16.8658777 L0.2604914,7.68178953 C0.2604914,3.32353058 3.64501229,0.000114600551 7.7822973,0.000114600551 C10.3778747,0.000114600551 16.4326658,1.29280882 17.7864742,3.25018623 L19.7051474,7.38612011 L47.524742,7.38612011 C48.5774447,7.38612011 49.4049017,8.19863802 49.4049017,9.23348099 L49.4049017,57.490627 C49.4049017,60.5561917 51.9246192,63.0304176 55.0465479,63.0304176" id="Fill-3" fill="#F7E4A9" mask="url(#mask-2)"></path>
                </g>
                <path d="M60.6497274,53.5220973 C60.3856954,52.8259174 59.7053053,52.3636364 58.9448029,52.3636364 L48.3632132,52.3636364 C47.358989,52.3636364 46.5454545,53.1591128 46.5454545,54.1421497 L46.5454545,55.9195597 C46.5454545,59.8417773 49.8074908,63.030303 53.8176176,63.030303 L55.6365047,63.030303 C58.6491774,63.030303 61.0909091,60.6427703 61.0909091,57.6969697 L61.0909091,55.9195597 C61.0909091,55.0854678 60.9464813,54.3010243 60.6497274,53.5220973" id="Fill-6" fill="#DBC788"></path>
                <g id="Group-10" transform="translate(33.939394, 6.787879)">
                    <mask id="mask-4" fill="white">
                        <use xlink:href="#path-3"></use>
                    </mask>
                    <g id="Clip-9"></g>
                    <path d="M19.3939394,56.242539 L0.0047683446,56.242539 L0.0047683446,0.510887817 L13.4888639,0.510887817 C14.3152996,0.510887817 14.9649037,1.32468126 14.9649037,2.36114879 L14.9649037,50.6940517 C14.9649037,53.7644289 16.9430353,56.242539 19.3939394,56.242539" id="Fill-8" fill="#F0DC9E" mask="url(#mask-4)"></path>
                </g>
                <path d="M24.5543797,43.1531701 C22.2685549,40.9443457 19.2207884,39.7575758 16,39.7575758 C9.31554753,39.7575758 3.87878788,44.9333251 3.87878788,51.2968674 L3.87878788,54.5942463 C3.87878788,55.5170623 4.64072949,56.2424242 5.61008256,56.2424242 L9.0737466,56.2424242 C9.52403367,56.2424242 9.97432074,56.0777088 10.2859753,55.7482778 L16,50.3402899 L21.7140247,55.7482778 C22.0256793,56.0777088 22.4759663,56.2424242 22.9262534,56.2424242 L26.3899174,56.2424242 C27.3592705,56.2424242 28.1212121,55.5170623 28.1212121,54.5942463 L28.1212121,51.2968674 C28.1212121,48.230704 26.874594,45.3292561 24.5543797,43.1531701" id="Fill-11" fill="#EF4545"></path>
                <path d="M26.3899174,22.3030303 L5.61008256,22.3030303 C4.64072949,22.3030303 3.87878788,23.113729 3.87878788,24.1451115 L3.87878788,27.8304174 C3.87878788,34.9426117 9.31554753,40.7272727 16,40.7272727 C22.6844525,40.7272727 28.1212121,34.9426117 28.1212121,27.8304174 L28.1212121,24.1451115 C28.1212121,23.113729 27.3592705,22.3030303 26.3899174,22.3030303" id="Fill-13" fill="#EF4545"></path>
                <path d="M25.6283188,52.2507993 L18.261647,45.1400559 C17.9301753,44.7836913 17.4512559,44.6060606 16.9723365,44.6060606 C16.4934171,44.6060606 16.0144977,44.7836913 15.6830261,45.1400559 L8.31635429,52.2507993 C7.1367724,53.3529921 7.94716345,55.2727273 9.60452173,55.2727273 L24.3390083,55.2727273 C25.076247,55.2727273 25.7391903,54.846855 26.0329428,54.1705345 C26.3278383,53.4953173 26.1803905,52.7483858 25.6283188,52.2507993" id="Fill-15" fill="#FE5436"></path>
                <path d="M28.1212121,24.1451115 L28.1212121,27.8304174 C28.1212121,34.9414683 23.3359179,40.7272727 17.4545455,40.7272727 L17.4545455,22.3030303 L26.5976728,22.3030303 C27.4507035,22.3030303 28.1212121,23.113729 28.1212121,24.1451115" id="Fill-17" fill="#DB3535"></path>
                <path d="M28.1212121,49.7453402 L28.1212121,53.4306461 C28.1212121,54.4620286 27.4507035,55.2727273 26.5976728,55.2727273 L23.5496484,55.2727273 C23.1533958,55.2727273 22.7571432,55.0886335 22.4828872,54.7204459 L17.4545455,48.6762242 L17.4545455,36.8484848 C20.2888393,36.8484848 22.9708737,38.1748748 24.9823996,40.6435609 C27.0241882,43.075657 28.1212121,46.3184517 28.1212121,49.7453402" id="Fill-19" fill="#DB3535"></path>
                <path d="M24.1327088,54.3709332 C23.915382,54.9233836 23.4268181,55.2727273 22.8843437,55.2727273 L17.4545455,55.2727273 L17.4545455,46.5454545 C17.8074908,46.5454545 18.1604361,46.6907887 18.404718,46.9814571 L23.8345163,52.8002407 C24.2413721,53.207357 24.3500355,53.8184827 24.1327088,54.3709332" id="Fill-21" fill="#F24D25"></path>
                <path d="M26.7022745,16.4848485 L5.2977255,16.4848485 C-1.7659085,16.4848485 -1.7659085,25.2121212 5.2977255,25.2121212 L26.7022745,25.2121212 C33.7659085,25.2121212 33.7659085,16.4848485 26.7022745,16.4848485" id="Fill-23" fill="#52B346"></path>
                <path d="M27.1838859,25.2121212 L17.4545455,25.2121212 L17.4545455,16.4848485 L27.1838859,16.4848485 C33.6053714,16.4848485 33.6053714,25.2121212 27.1838859,25.2121212" id="Fill-25" fill="#417505"></path>
                <g id="Group-29" transform="translate(0.000000, 52.363636)">
                    <mask id="mask-6" fill="white">
                        <use xlink:href="#path-5"></use>
                    </mask>
                    <g id="Clip-28"></g>
                    <path d="M26.6961398,0.354346667 L5.33932158,0.354346667 C2.38475556,0.354346667 0.000117032393,2.65728 0.000117032393,5.51061333 C0.000117032393,8.36394667 2.38475556,10.66688 5.33932158,10.66688 L26.6961398,10.66688 C30.2195288,10.66688 32,8.08874667 32,5.51061333 C32,2.93248 30.2195288,0.354346667 26.6961398,0.354346667" id="Fill-27" fill="#52B346" mask="url(#mask-6)"></path>
                </g>
                <g id="Group-32" transform="translate(16.484848, 52.363636)" fill="#417505">
                    <path d="M14.5454545,5.51061333 C14.5454545,8.08874667 12.9910761,10.66688 9.9122296,10.66688 L0.584029091,10.66688 L0.584029091,0.354346667 L9.9122296,0.354346667 C12.9910761,0.354346667 14.5454545,2.93248 14.5454545,5.51061333" id="Fill-30"></path>
                </g>
                <g id="Group-35" transform="translate(10.666667, 0.000000)">
                    <mask id="mask-8" fill="white">
                        <use xlink:href="#path-7"></use>
                    </mask>
                    <g id="Clip-34"></g>
                    <path d="M51.626348,6.87509333 L51.626348,8.59349333 C51.626348,9.55669333 50.819265,10.31296 49.7924824,10.31296 L7.35972352,10.31296 L7.35972352,6.87509333 C7.35972352,3.09376 4.05853775,0.000426666667 0.0231227301,0.000426666667 L44.2897472,0.000426666667 C48.3251623,0.000426666667 51.626348,3.09376 51.626348,6.87509333" id="Fill-33" fill="#F0DC9E" mask="url(#mask-8)"></path>
                </g>
                <g id="Group-38" transform="translate(33.939394, 0.000000)">
                    <mask id="mask-10" fill="white">
                        <use xlink:href="#path-9"></use>
                    </mask>
                    <g id="Clip-37"></g>
                    <path d="M29.0911403,6.87509333 L29.0911403,8.59349333 C29.0911403,9.55669333 28.2714107,10.31296 27.2285389,10.31296 L-0.964841026,10.31296 L-0.964841026,0.000426666667 L21.6395786,0.000426666667 C25.7382266,0.000426666667 29.0911403,3.09376 29.0911403,6.87509333" id="Fill-36" fill="#DBC788" mask="url(#mask-10)"></path>
                </g>
                <g id="Group-41">
                    <mask id="mask-12" fill="white">
                        <use xlink:href="#path-11"></use>
                    </mask>
                    <g id="Clip-40"></g>
                    <path d="M49.5067575,59.3373003 L33.2120332,59.3373003 C33.4189834,58.7585675 33.5334419,58.1374325 33.5334419,57.4910854 C33.5334419,55.0833278 31.9749568,53.030832 29.8071827,52.2687383 L29.8071827,50.1039339 C29.8071827,45.4076033 27.2671296,41.2888595 23.4761262,39.0243526 C27.2671296,36.7609917 29.8071827,32.6411019 29.8071827,27.9447713 L29.8071827,25.7811129 C31.9749568,25.0190193 33.5334419,22.9665234 33.5334419,20.5587658 C33.5334419,17.5035152 31.0257608,15.0189752 27.9446312,15.0189752 L7.4519402,15.0189752 L7.4519402,7.38657851 C7.4519402,5.35012672 9.12257143,3.69300275 11.1781993,3.69300275 C13.7436877,3.69300275 15.5472757,6.2187989 14.6917276,8.61738843 C14.2639535,9.8184022 15.1645914,11.0801543 16.4479136,11.0801543 L48.4361661,11.0801543 L48.4361661,55.6437245 C48.4361661,56.9776749 48.8292558,58.242865 49.5067575,59.3373003 L49.5067575,59.3373003 Z M59.8623588,55.6437245 C59.8623588,57.6801763 58.1905714,59.3373003 56.1360997,59.3373003 C54.019196,59.3373003 52.1624252,57.611416 52.1624252,55.6437245 L59.8623588,55.6437245 Z M5.5893887,59.3373003 C4.56157475,59.3373003 3.72568106,58.5087383 3.72568106,57.4910854 C3.72568106,56.4722865 4.56157475,55.6437245 5.5893887,55.6437245 L27.9446312,55.6437245 C28.971289,55.6437245 29.8071827,56.4722865 29.8071827,57.4910854 C29.8071827,58.5087383 28.971289,59.3373003 27.9446312,59.3373003 L5.5893887,59.3373003 Z M7.4519402,36.9810248 C8.22655814,37.7671846 9.1017608,38.4536419 10.0567375,39.0243526 C9.1017608,39.5939174 8.22655814,40.2826667 7.4519402,41.0676804 L7.4519402,36.9810248 Z M19.7198073,51.9512948 L13.8119003,51.9512948 L16.76701,49.0221047 L19.7198073,51.9512948 Z M26.0809236,50.1039339 L26.0809236,51.9512948 L24.9895216,51.9512948 L18.0838605,45.1050579 C17.3554884,44.3842204 16.1773754,44.3842204 15.4490033,45.1050579 L8.54218605,51.9512948 L7.4519402,51.9512948 L7.4519402,50.1039339 C7.4519402,45.0133774 11.6302525,40.8717135 16.76701,40.8717135 C21.9026113,40.8717135 26.0809236,45.0133774 26.0809236,50.1039339 L26.0809236,50.1039339 Z M16.76701,37.1781377 C11.6302525,37.1781377 7.4519402,33.0364738 7.4519402,27.9447713 L7.4519402,26.0985565 L26.0809236,26.0985565 L26.0809236,27.9447713 C26.0809236,33.0364738 21.9026113,37.1781377 16.76701,37.1781377 L16.76701,37.1781377 Z M5.5893887,18.712551 L27.9446312,18.712551 C28.971289,18.712551 29.8071827,19.5399669 29.8071827,20.5587658 C29.8071827,21.5775647 28.971289,22.4049807 27.9446312,22.4049807 L5.59054485,22.4049807 L5.5893887,22.4049807 L5.58823256,22.4049807 C4.56157475,22.4038347 3.72568106,21.5764187 3.72568106,20.5587658 C3.72568106,19.5399669 4.56157475,18.712551 5.5893887,18.712551 L5.5893887,18.712551 Z M56.1360997,3.69300275 C58.1905714,3.69300275 59.8623588,5.35012672 59.8623588,7.38657851 L18.6295615,7.38657851 C18.6295615,6.04231405 18.2653754,4.78056198 17.629495,3.69300275 L56.1360997,3.69300275 Z M61.7249103,11.0801543 C62.7538804,11.0801543 63.5886179,10.2527383 63.5886179,9.23279339 L63.5886179,7.38657851 C63.5886179,3.31367493 60.2450432,0.000573002755 56.1360997,0.000573002755 L11.1781993,0.000573002755 C7.06925581,0.000573002755 3.72568106,3.31367493 3.72568106,7.38657851 L3.72568106,15.3364187 C1.55675083,16.0996584 0.00057807309,18.1521543 0.00057807309,20.5587658 C0.00057807309,22.9665234 1.55675083,25.0190193 3.72568106,25.7811129 L3.72568106,52.2687383 C1.55675083,53.030832 0.00057807309,55.0833278 0.00057807309,57.4910854 C0.00057807309,60.5451901 2.50710299,63.030876 5.5893887,63.030876 L56.1360997,63.030876 C60.2450432,63.030876 63.5886179,59.7166281 63.5886179,55.6437245 C63.5886179,54.8002645 63.4452558,53.9717025 63.1643123,53.1821047 C62.900711,52.4440771 62.1966179,51.9512948 61.4069701,51.9512948 L52.1624252,51.9512948 L52.1624252,11.0801543 L61.7249103,11.0801543 Z" id="Fill-39" fill="url(#linearGradient-13)" mask="url(#mask-12)"></path>
                </g>
            </g>
        </g>
    </g>
</svg>