<?xml version="1.0" encoding="UTF-8"?>
<svg width="64px" height="64px" viewBox="0 0 64 64" version="1.1" xmlns="http://www.w3.org/2000/svg" xmlns:xlink="http://www.w3.org/1999/xlink">
    <!-- Generator: Sketch 46.2 (44496) - http://www.bohemiancoding.com/sketch -->
    <title>64x64 guide</title>
    <desc>Created with Sketch.</desc>
    <defs>
        <linearGradient x1="4.80792773%" y1="100%" x2="186.67541%" y2="-101.473313%" id="linearGradient-1">
            <stop stop-color="#183431" offset="0%"></stop>
            <stop stop-color="#52B346" offset="100%"></stop>
        </linearGradient>
    </defs>
    <g id="jhef" stroke="none" stroke-width="1" fill="none" fill-rule="evenodd">
        <g id="64x64-guide">
            <g id="Page-1-Copy" transform="translate(14.000000, 0.000000)">
                <path d="M3.12731356,56.2347556 L3.12731356,61.5816466 C3.12731356,62.0084065 3.381743,62.1164519 3.6925187,61.8213602 L6.40488377,59.2464722 C6.71546584,58.9513805 7.22393747,58.9513805 7.53471317,59.2464722 L10.2468846,61.8213602 C10.5578539,62.1164519 10.8120898,62.0084065 10.8120898,61.5816466 L10.8120898,56.2347556 L3.12731356,56.2347556 Z" id="Fill-1" fill="#EF4545"></path>
                <path d="M3.12731356,56.2347556 L3.12731356,61.5816466 C3.12731356,62.0084065 3.381743,62.1164519 3.6925187,61.8213602 L6.38377813,59.2662224 L6.38377813,56.2347556 L3.12731356,56.2347556 Z" id="Fill-3" fill="#000000"></path>
                <path d="M33.7688483,12.773675 L23.7415398,12.773675 C23.7107527,12.8108519 23.6809337,12.8488033 23.6495657,12.8853993 L18.5991218,19.2546552 C18.4571912,19.4337627 18.2376151,19.5385164 18.0048722,19.5385164 C17.7723229,19.5385164 17.5527468,19.4337627 17.4106226,19.2546552 L12.360566,12.8853993 C12.3290043,12.8488033 12.299379,12.8108519 12.2685918,12.773675 L2.24128333,12.773675 C1.53685843,12.773675 0.960616388,13.349917 0.960616388,14.0543419 L0.960616388,54.9539725 C0.960616388,55.6583974 1.53685843,56.234833 2.24128333,56.234833 L33.7688483,56.234833 C34.4732732,56.234833 35.0495153,55.6583974 35.0495153,54.9539725 L35.0495153,14.0543419 C35.0495153,13.349917 34.4732732,12.773675 33.7688483,12.773675" id="Fill-5" fill="#648C3A"></path>
                <path d="M6.58523049,34.6446549 C6.58523049,31.9696604 7.5053589,29.5095948 9.04587693,27.5632289 L0.960480847,27.5632289 L0.960480847,41.4455115 L8.83075432,41.4455115 C7.42016183,39.5458103 6.58523049,37.1926284 6.58523049,34.6446549" id="Fill-7" fill="#FFF0C0"></path>
                <path d="M26.9643903,27.5631902 C28.5049083,29.5097497 29.4250367,31.9696216 29.4250367,34.6446162 C29.4250367,37.1925896 28.5901054,39.5457716 27.1795129,41.4454727 L35.0495927,41.4454727 L35.0495927,27.5631902 L26.9643903,27.5631902 Z" id="Fill-9" fill="#FFF0C0"></path>
                <path d="M4.54654193,54.9540306 L4.54654193,14.0542064 C4.54654193,13.3499751 5.12278397,12.7737331 5.82720887,12.7737331 L2.24118652,12.7737331 C1.53695524,12.7737331 0.960519573,13.3499751 0.960519573,14.0542064 L0.960519573,54.9540306 C0.960519573,55.6584555 1.53695524,56.2346975 2.24118652,56.2346975 L5.82720887,56.2346975 C5.12278397,56.2346975 4.54654193,55.6584555 4.54654193,54.9540306" id="Fill-11" fill-opacity="0.337607563" fill="#000000"></path>
                <path d="M18.0049497,11.4612721 C16.3759429,11.4612721 15.0551946,10.1407174 15.0551946,8.511517 C15.0551946,6.88231656 16.3759429,5.5617619 18.0049497,5.5617619 C19.6341501,5.5617619 20.9547048,6.88251019 20.9547048,8.511517 C20.9547048,10.1407174 19.6341501,11.4612721 18.0049497,11.4612721 M18.0049497,1.15416865 C13.950537,1.15416865 10.6518612,4.36145128 10.6518612,8.30355869 C10.6518612,9.97671307 11.2585031,11.6032027 12.3604498,12.885225 L17.4108937,19.2544809 C17.5528243,19.4335884 17.7724004,19.5385357 18.0049497,19.5385357 C18.2378862,19.5385357 18.4572687,19.4337821 18.5993929,19.2544809 L23.6494495,12.8854187 C24.7513963,11.6032027 25.3582318,9.97671307 25.3582318,8.30375232 C25.3582318,4.36145128 22.0595559,1.15416865 18.0049497,1.15416865" id="Fill-13" fill="#EF4545"></path>
                <path d="M15.0079489,11.5344641 C13.9060022,10.2520545 13.2993603,8.62575853 13.2993603,6.95260415 C13.2993603,4.73050952 14.3476716,2.74212596 15.9884898,1.42970374 C12.9117136,2.28457894 10.6518612,5.04128522 10.6518612,8.30375232 C10.6518612,9.9769067 11.2585031,11.6032027 12.3604498,12.8854187 L17.4108937,19.2546746 C17.5528243,19.4337821 17.7724004,19.5385357 18.0051433,19.5385357 C18.2378862,19.5385357 18.4572687,19.4337821 18.5993929,19.2546746 L19.8645695,17.6591657 L15.0079489,11.5344641 Z" id="Fill-15" fill-opacity="0.227921196" fill="#000000"></path>
                <path d="M18.0050465,23.2246647 C24.3121472,23.2246647 29.4251335,28.3374573 29.4251335,34.6447517 C29.4251335,40.9518525 24.3121472,46.0646452 18.0050465,46.0646452 C11.6979457,46.0646452 6.58495941,40.9518525 6.58495941,34.6447517 C6.58495941,28.3374573 11.6979457,23.2246647 18.0050465,23.2246647" id="Fill-17" fill="#0184B8"></path>
                <path d="M17.7305764,23.2282662 C17.6672594,23.4495849 17.6314379,23.6823279 17.6314379,23.9239777 C17.6314379,25.3181117 18.761461,26.4481347 20.1557886,26.4481347 L25.9557731,26.4481347" id="Fill-19" fill="#A0C663"></path>
                <path d="M9.38530982,29.8615943 L7.63296089,29.8615943 C7.15759993,30.890349 6.83036571,32.0015899 6.68010905,33.168209 L9.38530982,33.168209 C10.2984676,33.168209 11.0385203,32.4279626 11.0385203,31.5149984 C11.038714,30.6020343 10.2984676,29.8615943 9.38530982,29.8615943" id="Fill-21" fill="#A0C663"></path>
                <path d="M15.077249,35.8467082 L6.76569339,35.8467082 C6.72599929,35.8467082 6.68766061,35.8505808 6.64874104,35.8525171 C6.79725503,37.2656268 7.20349018,38.6018654 7.81981356,39.8136002 L15.077249,39.8136002 C16.1728059,39.8136002 17.0605982,38.9256143 17.0605982,37.830251 C17.0605982,36.7346941 16.1726123,35.8467082 15.077249,35.8467082" id="Fill-23" fill="#A0C663"></path>
                <path d="M26.7592202,41.9774316 L18.267589,41.9774316 C16.8612564,41.9774316 15.7211646,43.1177171 15.7211646,44.5240497 C15.7211646,45.0360067 15.8735512,45.5117549 16.1337895,45.9110193 C16.742755,46.0115132 17.3675981,46.0645677 18.0050271,46.0645677 C21.5203746,46.0645677 24.6643403,44.4754486 26.7592202,41.9774316" id="Fill-25" fill="#A0C663"></path>
                <path d="M28.0645169,29.2351247 L22.0923955,29.2351247 C20.6980679,29.2351247 19.5678513,30.365535 19.5678513,31.7596689 C19.5678513,33.1538029 20.6980679,34.2840196 22.0923955,34.2840196 L29.4187631,34.2840196 C29.3622232,32.4611894 28.8787298,30.7460174 28.0645169,29.2351247" id="Fill-27" fill="#A0C663"></path>
                <path d="M22.0098125,36.634665 C22.8397094,36.634665 23.5123791,37.3073346 23.5123791,38.1372316 C23.5123791,38.9669349 22.8397094,39.6397982 22.0098125,39.6397982 C21.1799155,39.6397982 20.5072459,38.9669349 20.5072459,38.1372316 C20.5072459,37.3073346 21.1799155,36.634665 22.0098125,36.634665" id="Fill-29" fill="#A0C663"></path>
                <path d="M14.5343693,26.4738294 C15.5882959,26.4738294 16.4425902,27.3281237 16.4425902,28.3818566 C16.4425902,29.4359768 15.5882959,30.2902711 14.5343693,30.2902711 C13.4804428,30.2902711 12.6261485,29.4359768 12.6261485,28.3818566 C12.6261485,27.3281237 13.4804428,26.4738294 14.5343693,26.4738294" id="Fill-31" fill="#A0C663"></path>
                <path d="M22.0096188,37.5946811 C22.3083895,37.5946811 22.5515884,37.83788 22.5515884,38.1368443 C22.5515884,38.4358086 22.3083895,38.6788139 22.0096188,38.6788139 C21.7106545,38.6788139 21.4676492,38.435615 21.4676492,38.1368443 C21.4674556,37.8380737 21.7106545,37.5946811 22.0096188,37.5946811 M22.0096188,40.5998143 C23.3677377,40.5998143 24.4725888,39.4947695 24.4725888,38.1368443 C24.4725888,36.7787255 23.3677377,35.6738743 22.0096188,35.6738743 C20.6513064,35.6738743 19.5464552,36.7787255 19.5464552,38.1368443 C19.5464552,39.4947695 20.6513064,40.5998143 22.0096188,40.5998143" id="Fill-33" fill="url(#linearGradient-1)"></path>
                <path d="M14.5344468,27.4336519 C15.0570534,27.4336519 15.4820706,27.8586691 15.4820706,28.381663 C15.4820706,28.9042696 15.0570534,29.3296741 14.5344468,29.3296741 C14.0118402,29.3296741 13.5866293,28.9042696 13.5866293,28.381663 C13.5866293,27.8588628 14.0118402,27.4336519 14.5344468,27.4336519 M14.5344468,31.2508681 C16.1164016,31.2508681 17.403071,29.9636178 17.403071,28.381663 C17.403071,26.7997082 16.116208,25.5126515 14.5344468,25.5126515 C12.952492,25.5126515 11.6656289,26.7997082 11.6656289,28.381663 C11.6656289,29.9636178 12.952492,31.2508681 14.5344468,31.2508681" id="Fill-35" fill="url(#linearGradient-1)"></path>
                <path d="M25.1668869,50.7815425 C25.1668869,50.2509971 24.7370289,49.8209455 24.2064835,49.8209455 L11.8037256,49.8209455 C11.2731802,49.8209455 10.8431286,50.2509971 10.8431286,50.7815425 C10.8431286,51.3120879 11.2731802,51.7421395 11.8037256,51.7421395 L24.2064835,51.7421395 C24.7370289,51.7421395 25.1668869,51.3120879 25.1668869,50.7815425" id="Fill-37" fill="url(#linearGradient-1)"></path>
                <g id="Group-41" transform="translate(0.000000, 0.018588)" fill="url(#linearGradient-1)">
                    <path d="M7.24686323,28.5051794 C6.2152041,30.311551 5.62482709,32.4010093 5.62482709,34.6260084 C5.62482709,36.6101321 6.09457279,38.4865977 6.92795509,40.1506514 C6.95157791,40.2095149 6.98062237,40.2656675 7.01489483,40.3181412 C7.04045395,40.3677104 7.06543219,40.4172796 7.0915722,40.4662679 L1.9212715,40.4662679 L1.9212715,28.5051794 L7.24686323,28.5051794 Z M7.55880071,34.1101788 L9.38530982,34.1101788 C10.8266894,34.1101788 11.9991174,32.9379445 11.9991174,31.4965649 C11.9991174,30.0551853 10.8266894,28.8825637 9.38530982,28.8825637 L9.27106829,28.8825637 C10.9145973,26.3930664 13.5923027,24.643622 16.6884419,24.2524899 C16.8632895,26.0116159 18.3515275,27.3900659 20.1557692,27.3900659 L25.5468078,27.3900659 C25.8107251,27.6650201 26.0599265,27.953722 26.2926694,28.2561716 L22.0924536,28.2561716 C20.1708723,28.2561716 18.607506,29.8195379 18.607506,31.7413128 C18.607506,33.6628942 20.1708723,35.2260669 22.0924536,35.2260669 L28.4462191,35.2260669 C28.3230706,37.391428 27.5365467,39.3809733 26.289765,40.9983623 L18.2676858,40.9983623 C16.3339058,40.9983623 14.7606644,42.5717974 14.7606644,44.505771 C14.7606644,44.5270703 14.7626007,44.5481759 14.7629879,44.5696688 C12.6442916,43.8764745 10.8214614,42.5239709 9.53750278,40.7557443 L15.0770553,40.7557443 C16.7004469,40.7557443 18.0210016,39.434996 18.0210016,37.8117981 C18.0210016,36.1886002 16.7004469,34.8678519 15.0770553,34.8678519 L13.522596,34.8678519 C12.9920506,34.8678519 12.561999,35.2977099 12.561999,35.8282553 C12.561999,36.3589943 12.9920506,36.7888523 13.522596,36.7888523 L15.077249,36.7888523 C15.6410987,36.7888523 16.1000011,37.2477547 16.1000011,37.8117981 C16.1000011,38.3758415 15.6410987,38.8345503 15.077249,38.8345503 L8.43284525,38.8345503 C8.14627327,38.1853098 7.92282457,37.5021842 7.77276154,36.7919504 L10.320735,36.7886587 C10.851474,36.7886587 11.281332,36.3588007 11.281332,35.8280617 C11.281332,35.2975162 10.851474,34.8674646 10.320735,34.8674646 L7.55202367,34.8674646 C7.54989374,34.7869147 7.54582751,34.7071392 7.54582751,34.6260084 C7.54582751,34.453097 7.550281,34.2813475 7.55880071,34.1101788 L7.55880071,34.1101788 Z M8.27038992,30.8035641 L9.38530982,30.8035641 C9.76714763,30.8035641 10.078117,31.1143398 10.078117,31.4963713 C10.078117,31.8784027 9.76714763,32.1889848 9.38530982,32.1889848 L7.83298038,32.1889848 C7.94683466,31.7138174 8.09379961,31.2514297 8.27038992,30.8035641 L8.27038992,30.8035641 Z M23.0526634,25.4688718 L20.1557692,25.4688718 C19.3893828,25.4688718 18.7513729,24.9145099 18.6185429,24.1858813 C20.2190861,24.2792108 21.7237826,24.7334661 23.0526634,25.4688718 L23.0526634,25.4688718 Z M27.4685827,30.177172 C27.926517,31.1476441 28.2382608,32.199828 28.3780615,33.3048728 L22.0924536,33.3048728 C21.2302205,33.3048728 20.5285064,32.6033523 20.5285064,31.7411192 C20.5285064,30.8788861 21.2302205,30.177172 22.0924536,30.177172 L27.4685827,30.177172 Z M18.0051239,45.0854984 C17.5859156,45.0854984 17.1725161,45.0601329 16.7664746,45.0117255 C16.7110965,44.8494638 16.6816648,44.6786824 16.6816648,44.5055774 C16.6816648,43.630952 17.393254,42.9193628 18.2676858,42.9193628 L24.3676028,42.9193628 C22.6036361,44.2763198 20.3976127,45.0854984 18.0051239,45.0854984 L18.0051239,45.0854984 Z M9.85157018,60.103032 L8.19584247,58.5311459 C7.8662847,58.218434 7.43081146,58.0461035 6.96977911,58.0461035 C6.50835949,58.0461035 6.07288626,58.2186276 5.74371574,58.5313396 L4.08798803,60.103032 L4.08798803,57.1767061 L9.85157018,57.1767061 L9.85157018,60.103032 Z M35.0495734,20.7303654 C35.5801188,20.7303654 36.0101704,20.3005074 36.0101704,19.769962 L36.0101704,14.0356179 C36.0101704,12.8000667 35.0046513,11.7945476 33.7689064,11.7945476 L25.4976258,11.7945476 C26.0328184,10.7063486 26.3188094,9.50681247 26.3188094,8.28520259 C26.3188094,7.26438672 26.1257606,6.2679682 25.744891,5.32305518 C25.5466141,4.8312357 24.9874115,4.59307115 24.4950111,4.79134798 C24.0028044,4.98981844 23.7648335,5.54921469 23.9631103,6.0412278 C24.2516186,6.75688323 24.397809,7.51165187 24.397809,8.28520259 C24.397809,9.72813124 23.8732661,11.1329148 22.9209952,12.2410577 C22.9128627,12.2505456 22.9047303,12.2604207 22.8967915,12.2702958 L18.0049303,18.4399195 L13.1130691,12.2702958 C13.1051303,12.2604207 13.0971915,12.2507392 13.0888654,12.2408641 C12.1367881,11.1331085 11.6124388,9.72832487 11.6124388,8.28520259 C11.6124388,4.87267246 14.4802886,2.09640958 18.0051239,2.09640958 C19.5684903,2.09640958 21.0743486,2.65115872 22.2454211,3.65803325 C22.64759,4.00404955 23.2540383,3.95835294 23.6000546,3.55618402 C23.9458773,3.15382146 23.9001807,2.54737319 23.4978181,2.20155052 C21.9784057,0.894743558 20.0275863,0.175021901 18.0049303,0.175021901 C13.4207468,0.175021901 9.69143841,3.81313065 9.69143841,8.28500896 C9.69143841,9.50681247 9.97723587,10.7063486 10.5124284,11.7943539 L2.24114779,11.7943539 C1.00559657,11.7943539 7.74518867e-05,12.7998731 7.74518867e-05,14.0356179 L7.74518867e-05,54.9354421 C7.74518867e-05,56.1462087 0.965708849,57.133333 2.16679398,57.1730271 L2.16679398,61.5631937 C2.16679398,62.4602802 2.77324226,62.9296386 3.37252623,62.9296386 C3.61359523,62.9296386 3.97936176,62.8548975 4.35384163,62.4991997 L6.96977911,60.0158986 L9.58552295,62.4991997 C9.96039008,62.8548975 10.325963,62.9296386 10.5668384,62.9296386 L10.5668384,62.9296386 C10.9709436,62.9296386 11.3421317,62.7220675 11.5595779,62.3741149 C11.7009276,62.1477618 11.7727642,61.8749375 11.7727642,61.5631937 L11.7727642,57.1767061 L15.3156072,57.1767061 C15.8461526,57.1767061 16.2760106,56.7468481 16.2760106,56.2161091 C16.2760106,55.6855636 15.8461526,55.255512 15.3156072,55.255512 L2.24114779,55.255512 C2.06765557,55.255512 1.92107787,55.1089343 1.92107787,54.9354421 L1.92107787,42.3872683 L8.36720477,42.3872683 C10.6384814,45.2020635 14.1147157,47.0064988 18.0051239,47.0064988 C21.8955322,47.0064988 25.3715729,45.2020635 27.6430431,42.3872683 L29.6595029,42.3872683 C30.1900484,42.3872683 30.6201,41.9574103 30.6201,41.4266713 C30.6201,40.8961259 30.1900484,40.4660743 29.6595029,40.4660743 L28.9188693,40.4660743 C29.8541008,38.7253431 30.3856144,36.7367659 30.3856144,34.6258147 C30.3856144,32.5400354 29.8661059,30.5733384 28.9513991,28.8473231 C28.9268081,28.788266 28.8966019,28.7323071 28.8613613,28.6798334 C28.8290251,28.62097 28.7943654,28.5634619 28.7610611,28.5049858 L34.08917,28.5049858 L34.08917,40.4660743 L33.1173424,40.4660743 C32.586797,40.4660743 32.1567454,40.8961259 32.1567454,41.4266713 C32.1567454,41.9574103 32.586797,42.3872683 33.1173424,42.3872683 L34.08917,42.3872683 L34.08917,54.9354421 C34.08917,55.1089343 33.9423987,55.255512 33.7689064,55.255512 L18.9014359,55.255512 C18.3708905,55.255512 17.9410325,55.6855636 17.9410325,56.2161091 C17.9410325,56.7468481 18.3708905,57.1767061 18.9014359,57.1767061 L33.7689064,57.1767061 C35.0046513,57.1767061 36.0101704,56.171187 36.0101704,54.9354421 L36.0101704,23.0996186 C36.0101704,22.5690732 35.5801188,22.1392152 35.0495734,22.1392152 C34.519028,22.1392152 34.08917,22.5690732 34.08917,23.0996186 L34.08917,26.584179 L27.407783,26.584179 C27.1814298,26.3198744 26.9453952,26.0640896 26.6979364,25.8197289 C26.6545634,25.7668679 26.6053814,25.7196223 26.5519396,25.677411 C24.3281023,23.5525185 21.3163857,22.2457115 18.0051239,22.2457115 C17.9085027,22.2457115 17.8120751,22.2472606 17.7160348,22.2491969 C17.7119685,22.2491969 17.7075151,22.2491969 17.7030616,22.2493905 C14.0653401,22.3371048 10.8113927,24.0017394 8.60014132,26.584179 L1.92107787,26.584179 L1.92107787,14.0356179 C1.92107787,13.8623193 2.06765557,13.715548 2.24114779,13.715548 L11.8076176,13.715548 L16.658042,19.8330853 C16.9846953,20.2445484 17.4755467,20.4807767 18.0049303,20.4807767 C18.5347012,20.4807767 19.0257462,20.2445484 19.3518186,19.8330853 L24.2024366,13.715548 L33.7689064,13.715548 C33.9423987,13.715548 34.08917,13.8623193 34.08917,14.0356179 L34.08917,19.769962 C34.08917,20.3005074 34.519028,20.7303654 35.0495734,20.7303654 L35.0495734,20.7303654 Z" id="Fill-39"></path>
                </g>
                <path d="M19.994282,8.51153636 C19.994282,9.58579403 19.1018426,10.4598386 18.0049303,10.4598386 C16.9082116,10.4598386 16.0157722,9.58579403 16.0157722,8.51153636 C16.0157722,7.4372787 16.9082116,6.56323415 18.0049303,6.56323415 C19.1018426,6.56323415 19.994282,7.4372787 19.994282,8.51153636 M14.0947718,8.51153636 C14.0947718,10.6676033 15.8486698,12.4218885 18.0049303,12.4218885 C20.1611908,12.4218885 21.9152824,10.6676033 21.9152824,8.51153636 C21.9152824,6.35527584 20.1611908,4.60118423 18.0049303,4.60118423 C15.8486698,4.60118423 14.0947718,6.35527584 14.0947718,8.51153636" id="Fill-42" fill="url(#linearGradient-1)"></path>
            </g>
        </g>
    </g>
</svg>