<?xml version="1.0" encoding="UTF-8"?>
<svg width="64px" height="64px" viewBox="0 0 64 64" version="1.1" xmlns="http://www.w3.org/2000/svg" xmlns:xlink="http://www.w3.org/1999/xlink">
    <!-- Generator: Sketch 46.2 (44496) - http://www.bohemiancoding.com/sketch -->
    <title>64x64 location</title>
    <desc>Created with Sketch.</desc>
    <defs>
        <linearGradient x1="4.80792773%" y1="100%" x2="186.67541%" y2="-101.473313%" id="linearGradient-1">
            <stop stop-color="#183431" offset="0%"></stop>
            <stop stop-color="#52B346" offset="100%"></stop>
        </linearGradient>
    </defs>
    <g id="jhef" stroke="none" stroke-width="1" fill="none" fill-rule="evenodd">
        <g id="64x64-location">
            <g id="Page-1" transform="translate(3.000000, 1.000000)">
                <path d="M29.0004358,27 L29.0004358,27 C16.8558327,27 7,32.8162834 7,39.9559174 C7,47.1828437 16.8558327,53 29.0004358,53 C41.1441673,53 51,47.1828437 51,40.0432097 C51,32.8162834 41.1441673,27 29.0004358,27" id="Fill-1" fill="#A0C663"></path>
                <path d="M29.0004381,27.6939187 C17.3232387,27.6939187 7.76980363,33.1333586 7.76980363,39.9107999 C7.76980363,46.6882412 17.3232387,52.2168812 29.0004381,52.2168812 C40.6767613,52.2168812 50.2301964,46.7765582 50.2301964,40 C50.2301964,33.2234418 40.6767613,27.6939187 29.0004381,27.6939187 M29.0004381,54 C16.3507228,54 6,47.7577593 6,40 C6,32.2413576 16.3507228,26 29.0004381,26 C41.6501533,26 52,32.2413576 52,40 C52,47.7577593 41.6501533,54 29.0004381,54" id="Fill-3" fill="#000000"></path>
                <path d="M29.0004381,27.6939187 C17.3232387,27.6939187 7.76980363,33.1333586 7.76980363,39.9107999 C7.76980363,46.6882412 17.3232387,52.2168812 29.0004381,52.2168812 C40.6767613,52.2168812 50.2301964,46.7765582 50.2301964,40 C50.2301964,33.2234418 40.6767613,27.6939187 29.0004381,27.6939187 Z M29.0004381,54 C16.3507228,54 6,47.7577593 6,40 C6,32.2413576 16.3507228,26 29.0004381,26 C41.6501533,26 52,32.2413576 52,40 C52,47.7577593 41.6501533,54 29.0004381,54 Z" id="Stroke-5" stroke="#000000"></path>
                <path d="M29.5004362,50 C18.5758955,50 11,45.0279552 11,40.4991206 C11,35.9711654 18.5758955,31 29.5004362,31 C40.4241045,31 48,35.9711654 48,40.4991206 C48,44.9391373 40.4241045,50 29.5004362,50" id="Fill-7" fill="#648C3A"></path>
                <path d="M43,14.8849039 C43,22.5784001 29,40 29,40 C29,40 15,22.5784001 15,14.8849039 C15,7.19140765 21.2422407,1 29,1 C36.7586424,1 43,7.19140765 43,14.8849039" id="Fill-9" fill="#FFF0C0"></path>
                <path d="M30.0004448,1.79924925 C22.7244017,1.79924925 16.7961035,7.73499035 16.7961035,15.0201684 C16.7961035,21.4947935 27.2151054,35.4345217 30.0004448,39.0321295 C32.7848946,35.3445592 43.2038965,21.4048311 43.2038965,15.0201684 C43.2038965,7.73499035 37.2755983,1.79924925 30.0004448,1.79924925 L30.0004448,1.79924925 Z M30.0004448,42 L29.2807579,41.1003754 C28.6526999,40.3806757 15,23.0232647 15,15.0201684 C15,6.74629398 21.7369451,0 30.0004448,0 C38.2630549,0 45,6.74629398 45,15.0201684 C45,23.0232647 31.2574504,40.3806757 30.7192421,41.1003754 L30.0004448,42 Z" id="Fill-11" fill="url(#linearGradient-1)"></path>
                <path d="M30.0004448,1.79924925 C22.7244017,1.79924925 16.7961035,7.73499035 16.7961035,15.0201684 C16.7961035,21.4947935 27.2151054,35.4345217 30.0004448,39.0321295 C32.7848946,35.3445592 43.2038965,21.4048311 43.2038965,15.0201684 C43.2038965,7.73499035 37.2755983,1.79924925 30.0004448,1.79924925 Z M30.0004448,42 L29.2807579,41.1003754 C28.6526999,40.3806757 15,23.0232647 15,15.0201684 C15,6.74629398 21.7369451,0 30.0004448,0 C38.2630549,0 45,6.74629398 45,15.0201684 C45,23.0232647 31.2574504,40.3806757 30.7192421,41.1003754 L30.0004448,42 Z" id="Stroke-13" stroke="url(#linearGradient-1)"></path>
                <path d="M29.5004295,7 C34.193876,7 38,11.0302173 38,16.0009096 C38,20.9706923 34.193876,25 29.5004295,25 C24.806124,25 21,20.9706923 21,16.0009096 C21,11.0302173 24.806124,7 29.5004295,7" id="Fill-15" fill="#F15F50"></path>
                <path d="M30,62 C29.447,62 29,61.6051237 29,61.1166078 L29,50.8833922 C29,50.3948763 29.447,50 30,50 C30.553,50 31,50.3948763 31,50.8833922 L31,61.1166078 C31,61.6051237 30.553,62 30,62" id="Fill-17" fill="url(#linearGradient-1)"></path>
                <path d="M30,62 C29.447,62 29,61.6051237 29,61.1166078 L29,50.8833922 C29,50.3948763 29.447,50 30,50 C30.553,50 31,50.3948763 31,50.8833922 L31,61.1166078 C31,61.6051237 30.553,62 30,62 Z" id="Stroke-19" stroke="url(#linearGradient-1)"></path>
                <path d="M30,48 C29.447,48 29,47.5717023 29,47.0418397 L29,45.9581603 C29,45.4282977 29.447,45 30,45 C30.553,45 31,45.4282977 31,45.9581603 L31,47.0418397 C31,47.5717023 30.553,48 30,48" id="Fill-21" fill="url(#linearGradient-1)"></path>
                <path d="M30,48 C29.447,48 29,47.5717023 29,47.0418397 L29,45.9581603 C29,45.4282977 29.447,45 30,45 C30.553,45 31,45.4282977 31,45.9581603 L31,47.0418397 C31,47.5717023 30.553,48 30,48 Z" id="Stroke-23" stroke="url(#linearGradient-1)"></path>
                <path d="M57.134155,42 L41.865845,42 C41.3870327,42 41,41.553 41,41 C41,40.447 41.3870327,40 41.865845,40 L57.134155,40 C57.6129673,40 58,40.447 58,41 C58,41.553 57.6129673,42 57.134155,42" id="Fill-25" fill="url(#linearGradient-1)"></path>
                <path d="M57.134155,42 L41.865845,42 C41.3870327,42 41,41.553 41,41 C41,40.447 41.3870327,40 41.865845,40 L57.134155,40 C57.6129673,40 58,40.447 58,41 C58,41.553 57.6129673,42 57.134155,42 Z" id="Stroke-27" stroke="url(#linearGradient-1)"></path>
                <path d="M38.0418397,42 L36.9581603,42 C36.4282977,42 36,41.553 36,41 C36,40.447 36.4282977,40 36.9581603,40 L38.0418397,40 C38.5717023,40 39,40.447 39,41 C39,41.553 38.5717023,42 38.0418397,42" id="Fill-29" fill="url(#linearGradient-1)"></path>
                <path d="M38.0418397,42 L36.9581603,42 C36.4282977,42 36,41.553 36,41 C36,40.447 36.4282977,40 36.9581603,40 L38.0418397,40 C38.5717023,40 39,40.447 39,41 C39,41.553 38.5717023,42 38.0418397,42 Z" id="Stroke-31" stroke="url(#linearGradient-1)"></path>
                <path d="M16.1341991,42 L0.865800866,42 C0.387878788,42 0,41.553 0,41 C0,40.447 0.387878788,40 0.865800866,40 L16.1341991,40 C16.612987,40 17,40.447 17,41 C17,41.553 16.612987,42 16.1341991,42" id="Fill-33" fill="url(#linearGradient-1)"></path>
                <path d="M16.1341991,42 L0.865800866,42 C0.387878788,42 0,41.553 0,41 C0,40.447 0.387878788,40 0.865800866,40 L16.1341991,40 C16.612987,40 17,40.447 17,41 C17,41.553 16.612987,42 16.1341991,42 Z" id="Stroke-35" stroke="url(#linearGradient-1)"></path>
                <path d="M22.0418397,42 L20.9581603,42 C20.4282977,42 20,41.553 20,41 C20,40.447 20.4282977,40 20.9581603,40 L22.0418397,40 C22.5717023,40 23,40.447 23,41 C23,41.553 22.5717023,42 22.0418397,42" id="Fill-37" fill="url(#linearGradient-1)"></path>
                <path d="M22.0418397,42 L20.9581603,42 C20.4282977,42 20,41.553 20,41 C20,40.447 20.4282977,40 20.9581603,40 L22.0418397,40 C22.5717023,40 23,40.447 23,41 C23,41.553 22.5717023,42 22.0418397,42 Z" id="Stroke-39" stroke="url(#linearGradient-1)"></path>
            </g>
        </g>
    </g>
</svg>