<?xml version="1.0" encoding="UTF-8"?>
<svg width="64px" height="64px" viewBox="0 0 64 64" version="1.1" xmlns="http://www.w3.org/2000/svg" xmlns:xlink="http://www.w3.org/1999/xlink">
    <!-- Generator: Sketch 46.2 (44496) - http://www.bohemiancoding.com/sketch -->
    <title>64x64 login</title>
    <desc>Created with Sketch.</desc>
    <defs>
        <polygon id="path-1" points="0 63.8247385 61.6192 63.8247385 61.6192 0 0 0"></polygon>
        <linearGradient x1="4.80792773%" y1="100%" x2="186.67541%" y2="-101.473313%" id="linearGradient-3">
            <stop stop-color="#183431" offset="0%"></stop>
            <stop stop-color="#52B346" offset="100%"></stop>
        </linearGradient>
    </defs>
    <g id="jhef" stroke="none" stroke-width="1" fill="none" fill-rule="evenodd">
        <g id="64x64-login">
            <g id="Page-1" transform="translate(1.000000, 0.000000)">
                <path d="M1.03404308,59.4819938 L1.03404308,4.34254769 C1.03404308,2.51510154 2.51490462,1.03424 4.34235077,1.03424 L46.2485662,1.03424 C48.0760123,1.03424 49.5568738,2.51510154 49.5568738,4.34254769 L49.5568738,59.4819938 C49.5568738,61.30944 48.0760123,62.7903015 46.2485662,62.7903015 L4.34235077,62.7903015 C2.51490462,62.7903015 1.03404308,61.30944 1.03404308,59.4819938 Z" id="Fill-1" fill="#648C3A"></path>
                <path d="M49.5571692,47.2955077 L49.5571692,16.5292308 C49.1918769,16.5036308 48.8265846,16.4731077 48.4544,16.4731077 C39.9276308,16.4731077 33.0146462,23.3860923 33.0146462,31.9128615 C33.0146462,40.4396308 39.9276308,47.3516308 48.4544,47.3516308 C48.8265846,47.3516308 49.1918769,47.3211077 49.5571692,47.2955077" id="Fill-3" fill="#4C7221"></path>
                <mask id="mask-2" fill="white">
                    <use xlink:href="#path-1"></use>
                </mask>
                <g id="Clip-6"></g>
                <polygon id="Fill-5" fill="#FFF0C0" mask="url(#mask-2)" points="5.44492308 53.9687385 45.1456 53.9687385 45.1456 9.856 5.44492308 9.856"></polygon>
                <path d="M25.2956554,18.6791385 C27.7325785,18.6791385 29.7067323,20.6542769 29.7067323,23.0892308 C29.7067323,25.5261538 27.7325785,27.5012923 25.2956554,27.5012923 C22.8587323,27.5012923 20.8845785,25.5261538 20.8845785,23.0892308 C20.8845785,20.6542769 22.8587323,18.6791385 25.2956554,18.6791385" id="Fill-7" fill="#FCE7AE" mask="url(#mask-2)"></path>
                <path d="M30.0744862,31.6435692 C29.6048246,31.2743385 28.9451323,31.3905231 28.5443938,31.8336 C27.7429169,32.7246769 26.5889477,33.2878769 25.2951631,33.2878769 C24.0013785,33.2878769 22.8483938,32.7246769 22.0469169,31.8336 C21.6461785,31.3905231 20.9855015,31.2743385 20.5168246,31.6435692 C18.7267938,33.0564923 17.5767631,35.2413538 17.5767631,37.6979692 L17.5767631,40.7345231 L33.0145477,40.7345231 L33.0145477,37.6979692 C33.0145477,35.2413538 31.8635323,33.0564923 30.0744862,31.6435692" id="Fill-8" fill="#FCE7AE" mask="url(#mask-2)"></path>
                <path d="M21.9869538,39.9040985 L21.9869538,37.69856 C21.9869538,35.9026215 22.6072615,34.25536 23.6371692,32.9458215 C23.0217846,32.6898215 22.4713846,32.30976 22.0332308,31.8194215 C21.6443077,31.3842215 21.0003692,31.2650831 20.5405538,31.6254523 C18.7367385,33.0364062 17.5768615,35.2311138 17.5768615,37.6995446 L17.5768615,40.7351138 L22.8179692,40.7351138 C22.3591385,40.7351138 21.9869538,40.3629292 21.9869538,39.9040985" id="Fill-9" fill="#FFC10D" mask="url(#mask-2)"></path>
                <path d="M24.1926892,21.9868554 C24.1926892,20.6832246 24.7696738,19.5243323 25.6686277,18.7169477 C25.5435815,18.7061169 25.4234585,18.6795323 25.2954585,18.6795323 C22.85952,18.6795323 20.8843815,20.6536862 20.8843815,23.0896246 C20.8843815,25.5265477 22.85952,27.5016862 25.2954585,27.5016862 C26.4287508,27.5016862 27.4497969,27.0615631 28.2315815,26.3605169 C25.9728738,26.1685169 24.1926892,24.2957785 24.1926892,21.9868554" id="Fill-10" fill="#FFC10D" mask="url(#mask-2)"></path>
                <path d="M45.1456,16.8579938 C38.2129231,18.3743015 33.0151385,24.5242092 33.0151385,31.9127631 C33.0151385,39.3003323 38.2129231,45.45024 45.1456,46.9665477 L45.1456,16.8579938 Z" id="Fill-11" fill="#FFC10D" mask="url(#mask-2)"></path>
                <path d="M46.3783385,19.9541169 C41.2573538,20.8018708 37.1790769,25.0012554 36.4494769,30.1409477 C35.7917538,34.7745477 37.7639385,38.9808246 41.0781538,41.52704 C40.1486769,43.2284554 39.1020308,44.5143631 38.3694769,45.3119015 C38.0819692,45.6240246 38.3635692,46.1242092 38.7800615,46.0395323 C40.2510769,45.7421785 42.6781538,45.0480246 44.8177231,43.4864246 C46.4275692,43.9925169 48.1801846,44.1736862 50.0027077,43.94624 C55.2644923,43.2895015 59.5958154,39.1363938 60.4278154,33.9002092 C61.7422769,25.6195938 54.6678154,18.5795938 46.3783385,19.9541169" id="Fill-12" fill="#DB3535" mask="url(#mask-2)"></path>
                <path d="M48.4543015,23.0897231 C53.3271631,23.0897231 57.2764554,27.04 57.2764554,31.9128615 C57.2764554,36.7847385 53.3271631,40.7350154 48.4543015,40.7350154 C43.5824246,40.7350154 39.6321477,36.7847385 39.6321477,31.9128615 C39.6321477,27.04 43.5824246,23.0897231 48.4543015,23.0897231" id="Fill-13" fill="#EF4545" mask="url(#mask-2)"></path>
                <path d="M49.5571692,47.4204554 C48.9860923,47.4204554 48.5233231,47.8832246 48.5233231,48.4543015 L48.5233231,59.4819938 C48.5233231,60.7363938 47.5032615,61.75744 46.2488615,61.75744 L4.34264615,61.75744 C3.08824615,61.75744 2.06818462,60.7363938 2.06818462,59.4819938 L2.06818462,4.34254769 C2.06818462,3.08814769 3.08824615,2.06710154 4.34264615,2.06710154 L46.2488615,2.06710154 C47.5032615,2.06710154 48.5233231,3.08814769 48.5233231,4.34254769 L48.5233231,15.37024 C48.5233231,15.9413169 48.9860923,16.4040862 49.5571692,16.4040862 C50.1282462,16.4040862 50.5910154,15.9413169 50.5910154,15.37024 L50.5910154,4.34254769 C50.5910154,1.94796308 48.6424615,0.000393846154 46.2488615,0.000393846154 L4.34264615,0.000393846154 C1.94707692,0.000393846154 0.000492307692,1.94796308 0.000492307692,4.34254769 L0.000492307692,59.4819938 C0.000492307692,61.8775631 1.94707692,63.8241477 4.34264615,63.8241477 L46.2488615,63.8241477 C48.6424615,63.8241477 50.5910154,61.8775631 50.5910154,59.4819938 L50.5910154,48.4543015 C50.5910154,47.8832246 50.1282462,47.4204554 49.5571692,47.4204554" id="Fill-14" fill="url(#linearGradient-3)" mask="url(#mask-2)"></path>
                <path d="M27.5013908,6.47916308 C28.0724677,6.47916308 28.5352369,6.01540923 28.5352369,5.44531692 C28.5352369,4.87424 28.0724677,4.41048615 27.5013908,4.41048615 L23.0903138,4.41048615 C22.5182523,4.41048615 22.0564677,4.87424 22.0564677,5.44531692 C22.0564677,6.01540923 22.5182523,6.47916308 23.0903138,6.47916308 L27.5013908,6.47916308 Z" id="Fill-15" fill="url(#linearGradient-3)" mask="url(#mask-2)"></path>
                <path d="M19.7128862,5.45604923 L19.7128862,5.44521846 C19.7128862,4.87414154 19.2491323,4.41629538 18.6780554,4.41629538 C18.1079631,4.41629538 17.6442092,4.88497231 17.6442092,5.45604923 C17.6442092,6.02712615 18.1079631,6.48989538 18.6780554,6.48989538 C19.2491323,6.48989538 19.7128862,6.02712615 19.7128862,5.45604923" id="Fill-16" fill="url(#linearGradient-3)" mask="url(#mask-2)"></path>
                <path d="M23.0898215,57.3454769 C22.5187446,57.3454769 22.0559754,57.8092308 22.0559754,58.3803077 C22.0559754,58.9504 22.5187446,59.4141538 23.0898215,59.4141538 L27.5008985,59.4141538 C28.07296,59.4141538 28.5347446,58.9504 28.5347446,58.3803077 C28.5347446,57.8092308 28.07296,57.3454769 27.5008985,57.3454769 L23.0898215,57.3454769 Z" id="Fill-17" fill="url(#linearGradient-3)" mask="url(#mask-2)"></path>
                <path d="M45.1456,16.4040862 C45.7166769,16.4040862 46.1794462,15.9413169 46.1794462,15.37024 L46.1794462,9.85639385 C46.1794462,9.28531692 45.7166769,8.82254769 45.1456,8.82254769 L5.44492308,8.82254769 C4.87384615,8.82254769 4.41107692,9.28531692 4.41107692,9.85639385 L4.41107692,53.9681477 C4.41107692,54.5392246 4.87384615,55.0019938 5.44492308,55.0019938 L45.1456,55.0019938 C45.7166769,55.0019938 46.1794462,54.5392246 46.1794462,53.9681477 L46.1794462,48.4543015 C46.1794462,47.8832246 45.7166769,47.4204554 45.1456,47.4204554 C44.5745231,47.4204554 44.1117538,47.8832246 44.1117538,48.4543015 L44.1117538,52.9343015 L6.47876923,52.9343015 L6.47876923,10.8892554 L44.1117538,10.8892554 L44.1117538,15.37024 C44.1117538,15.9413169 44.5745231,16.4040862 45.1456,16.4040862" id="Fill-18" fill="url(#linearGradient-3)" mask="url(#mask-2)"></path>
                <path d="M33.0148431,45.21472 L24.1926892,45.21472 C23.6216123,45.21472 23.1588431,45.6784738 23.1588431,46.2485662 C23.1588431,46.8196431 23.6216123,47.2833969 24.1926892,47.2833969 L33.0148431,47.2833969 C33.58592,47.2833969 34.0496738,46.8196431 34.0496738,46.2485662 C34.0496738,45.6784738 33.58592,45.21472 33.0148431,45.21472" id="Fill-19" fill="url(#linearGradient-3)" mask="url(#mask-2)"></path>
                <path d="M17.5763692,45.21472 C17.0052923,45.21472 16.5415385,45.6784738 16.5415385,46.2485662 C16.5415385,46.8196431 17.0052923,47.2833969 17.5763692,47.2833969 L19.7809231,47.2833969 C20.352,47.2833969 20.8157538,46.8196431 20.8157538,46.2485662 C20.8157538,45.6784738 20.352,45.21472 19.7809231,45.21472 L17.5763692,45.21472 Z" id="Fill-20" fill="url(#linearGradient-3)" mask="url(#mask-2)"></path>
                <path d="M25.2956554,19.7127877 C27.1585477,19.7127877 28.6728862,21.2281108 28.6728862,23.0900185 C28.6728862,24.9519262 27.1585477,26.4672492 25.2956554,26.4672492 C23.4327631,26.4672492 21.91744,24.9519262 21.91744,23.0900185 C21.91744,21.2281108 23.4327631,19.7127877 25.2956554,19.7127877 M25.2956554,28.5349415 C28.2977477,28.5349415 30.7405785,26.0921108 30.7405785,23.0900185 C30.7405785,20.0879262 28.2977477,17.6441108 25.2956554,17.6441108 C22.2925785,17.6441108 19.8507323,20.0879262 19.8507323,23.0900185 C19.8507323,26.0921108 22.2925785,28.5349415 25.2956554,28.5349415" id="Fill-21" fill="url(#linearGradient-3)" mask="url(#mask-2)"></path>
                <path d="M48.4543015,43.0089846 C47.3219938,43.0089846 46.2024862,42.8376615 45.1272862,42.4999385 C44.8151631,42.4024615 44.4735015,42.4585846 44.20864,42.6525538 C42.9355323,43.5810462 41.5383631,44.1806769 40.3381169,44.5646769 C40.8757169,43.8567385 41.4487631,43.0060308 41.9853785,42.0233846 C42.2305477,41.5773538 42.1133785,41.0190769 41.7077169,40.7079385 C38.9439015,38.5841231 37.3567015,35.3772308 37.3567015,31.9123692 C37.3567015,25.7939692 42.3349169,20.8157538 48.4543015,20.8157538 C54.5736862,20.8157538 59.5519015,25.7939692 59.5519015,31.9123692 C59.5519015,38.0307692 54.5736862,43.0089846 48.4543015,43.0089846 M48.4543015,18.7470769 C41.1957169,18.7470769 35.2899938,24.6528 35.2899938,31.9123692 C35.2899938,35.7218462 36.9027938,39.2644923 39.7443938,41.7683692 C38.3186708,44.1028923 36.7708554,45.4498462 36.7551015,45.4626462 C36.41344,45.7531077 36.2992246,46.2306462 36.4715323,46.6441846 C36.6320246,47.0331077 37.0111015,47.2832 37.4266092,47.2832 C37.4531938,47.2832 37.4797785,47.2822154 37.5083323,47.2792615 C37.6786708,47.2654769 41.5600246,46.9346462 45.0042092,44.6188308 C46.1266708,44.9230769 47.2855631,45.0776615 48.4543015,45.0776615 C55.7138708,45.0776615 61.6186092,39.1719385 61.6186092,31.9123692 C61.6186092,24.6528 55.7138708,18.7470769 48.4543015,18.7470769" id="Fill-22" fill="url(#linearGradient-3)" mask="url(#mask-2)"></path>
                <path d="M52.4023138,29.6214646 C51.9454523,30.0783262 51.2020677,30.0783262 50.7442215,29.6214646 C50.2883446,29.1646031 50.2883446,28.4212185 50.7442215,27.9643569 C50.9667446,27.7438031 51.2611446,27.6217108 51.5732677,27.6217108 C51.88736,27.6217108 52.1807754,27.7438031 52.4023138,27.9643569 C52.6238523,28.1858954 52.7459446,28.4802954 52.7459446,28.7934031 C52.7459446,29.1065108 52.6238523,29.3999262 52.4023138,29.6214646 M51.5732677,25.5540185 C50.7077908,25.5540185 49.8944985,25.8907569 49.2830523,26.5022031 C48.2757908,27.5094646 48.0739446,29.0198646 48.6735754,30.2309415 L43.0445292,35.8599877 C42.6408369,36.26368 42.6408369,36.9184492 43.0445292,37.3221415 C43.2463754,37.5239877 43.5112369,37.6254031 43.7751138,37.6254031 C44.0399754,37.6254031 44.3048369,37.5239877 44.5056985,37.3221415 L45.3347446,36.49408 L46.1637908,37.3221415 C46.3656369,37.5239877 46.6304985,37.6254031 46.8943754,37.6254031 C47.1592369,37.6254031 47.4231138,37.5239877 47.62496,37.3221415 C48.0296369,36.9184492 48.0296369,36.26368 47.62496,35.8599877 L46.7978831,35.0319262 L50.1347446,31.6930954 C50.5866831,31.9166031 51.0799754,32.0308185 51.5732677,32.0308185 C52.4032985,32.0308185 53.2323446,31.7157415 53.8634831,31.0836185 C54.4749292,30.4721723 54.8126523,29.65888 54.8126523,28.7934031 C54.8126523,27.9279262 54.4749292,27.1146338 53.8634831,26.5031877 C53.2520369,25.8907569 52.4387446,25.5540185 51.5732677,25.5540185" id="Fill-23" fill="url(#linearGradient-3)" mask="url(#mask-2)"></path>
                <path d="M31.9811938,39.7012677 L18.6101169,39.7012677 L18.6101169,37.4258215 C18.6101169,35.3719138 19.5376246,33.4607754 21.1514092,32.1847138 C21.1671631,32.18176 21.2252554,32.19456 21.2784246,32.2536369 C22.3063631,33.3948062 23.7704862,34.0495754 25.2956554,34.0495754 C26.8208246,34.0495754 28.2839631,33.3948062 29.3128862,32.2536369 C29.3660554,32.19456 29.4251323,32.18176 29.4330092,32.18176 L29.4339938,32.1827446 C31.0527015,33.4607754 31.9811938,35.3719138 31.9811938,37.4258215 L31.9811938,39.7012677 Z M34.0498708,37.4258215 C34.0498708,34.7348677 32.8338708,32.2319754 30.7149785,30.5600985 C29.8435938,29.8728369 28.5527631,30.0077292 27.7759015,30.8692677 C27.1299938,31.5870523 26.2497477,31.9808985 25.2956554,31.9808985 C24.3415631,31.9808985 23.4613169,31.5870523 22.8144246,30.8692677 C22.0375631,30.0077292 20.7477169,29.8728369 19.8763323,30.5600985 C17.75744,32.2319754 16.54144,34.7348677 16.54144,37.4258215 L16.54144,40.7351138 C16.54144,41.3061908 17.0051938,41.76896 17.5762708,41.76896 L33.01504,41.76896 C33.5861169,41.76896 34.0498708,41.3061908 34.0498708,40.7351138 L34.0498708,37.4258215 Z" id="Fill-24" fill="url(#linearGradient-3)" mask="url(#mask-2)"></path>
            </g>
        </g>
    </g>
</svg>