<?xml version="1.0" encoding="UTF-8"?>
<svg width="64px" height="64px" viewBox="0 0 64 64" version="1.1" xmlns="http://www.w3.org/2000/svg" xmlns:xlink="http://www.w3.org/1999/xlink">
    <!-- Generator: Sketch 46.2 (44496) - http://www.bohemiancoding.com/sketch -->
    <title>64x64 setting</title>
    <desc>Created with Sketch.</desc>
    <defs>
        <linearGradient x1="4.80792773%" y1="100%" x2="186.67541%" y2="-101.473313%" id="linearGradient-1">
            <stop stop-color="#183431" offset="0%"></stop>
            <stop stop-color="#52B346" offset="100%"></stop>
        </linearGradient>
    </defs>
    <g id="jhef" stroke="none" stroke-width="1" fill="none" fill-rule="evenodd">
        <g id="64x64-setting">
            <g id="Page-1" transform="translate(2.000000, 2.000000)">
                <path d="M29.3370651,41.9825943 C23.9640855,43.0609852 18.5710772,41.3595944 14.8699724,37.5994574 C10.8726527,33.6021377 9.25981009,27.6852191 10.6945021,22.1931211 C10.8536781,21.6091245 11.2985275,21.1642751 11.8624953,20.9956118 C12.4464919,20.8364358 13.0600046,21.0061533 13.4858794,21.4204324 L20.4421854,28.3777927 C22.8656659,30.7527825 26.1314086,30.5040041 28.3777927,28.3777927 C30.5640904,26.1914949 30.5640904,22.6284832 28.3777927,20.4411313 L21.4214866,13.4858794 C20.9956118,13.0600046 20.8280027,12.4454378 20.9956118,11.8624953 C21.1537336,11.2784987 21.6091245,10.8325952 22.1931211,10.6945021 C23.518182,10.3487424 24.8938418,10.1695376 26.2600144,10.1695376 C30.5546031,10.1695376 34.5719516,11.8424665 37.5994574,14.8699724 C41.3701358,18.6395966 43.0124945,24.11272 41.9836485,29.3370651 L44.0803439,31.4348146 C44.1794335,31.1175168 44.2690359,30.8107605 44.3480968,30.4850295 C44.5262474,29.7334238 45.1987922,29.198972 45.9704267,29.198972 L49.2857143,29.198972 L49.2857143,23.3105153 L45.9704267,23.3105153 C45.1893049,23.3105153 44.5262474,22.7760635 44.3480968,22.0244578 C43.8832187,20.0447726 43.1020969,18.1652312 42.0426806,16.4532989 C41.6262932,15.7902414 41.7359243,14.9406001 42.2798634,14.3956069 L44.6253371,12.0501332 L40.4593541,7.88415023 L38.1138804,10.2296239 C37.5709955,10.7746172 36.7087045,10.8831941 36.0561884,10.4678608 C34.3242274,9.37892853 32.4647147,8.60729403 30.4850295,8.15190318 C29.7334238,7.97375259 29.198972,7.30120777 29.198972,6.52851913 L29.198972,3.21428571 L23.3105153,3.21428571 L23.3105153,6.52851913 C23.3105153,7.31069508 22.7760635,7.9832399 22.0244578,8.15190318 C20.0458267,8.61678134 18.1652312,9.39895729 16.4532989,10.4573194 C15.7902414,10.8726527 14.9406001,10.7640757 14.3956069,10.2201366 L12.0406459,7.87466292 L7.87571706,12.0406459 L10.2201366,14.3850655 C10.7640757,14.9300587 10.8726527,15.7902414 10.4573194,16.4438116 C9.38841584,18.1546897 8.61678134,20.0363394 8.15190318,22.0149705 C7.97375259,22.7665762 7.30120777,23.301028 6.52851913,23.301028 L3.21428571,23.301028 L3.21428571,29.198972 L6.52851913,29.198972 C7.31069508,29.198972 7.9832399,29.7334238 8.15190318,30.4850295 C8.61678134,32.4647147 9.39895729,34.3442561 10.4573194,36.0561884 C10.8726527,36.7192459 10.7640757,37.5688872 10.2201366,38.1138804 L7.87571706,40.4593541 L12.0406459,44.6253371 L14.3850655,42.2798634 C14.9300587,41.7359243 15.7818082,41.6262932 16.4448657,42.0426806 C18.156798,43.11053 20.0363394,43.8832187 22.0149705,44.3480968 C22.7676304,44.5262474 23.301028,45.1987922 23.301028,45.9704267 L23.301028,49.2857143 L29.1884305,49.2857143 L29.1884305,45.9704267 C29.1884305,45.1893049 29.7228823,44.515706 30.4755422,44.3480968 C30.7917858,44.2785232 31.0985422,44.1699462 31.4242731,44.0803439 L29.3370651,41.9825943 Z" id="Fill-1" fill="#4F9300"></path>
                <path d="M55.1570392,47.2642173 L39.2584103,31.3602814 C38.8441651,30.9458705 38.6774182,30.3352702 38.8252881,29.7739795 C39.9568593,25.4305337 38.6973439,20.7828369 35.5469824,17.6217736 C33.1454085,15.2192396 29.9352698,13.9088619 26.5195815,13.9287955 L31.0584513,18.4694799 C34.532868,21.9452857 34.532868,27.5875686 31.0584513,31.0644235 C27.6322758,34.4332169 22.2575744,34.6094726 18.4674923,31.0644235 L13.9286225,26.5237392 C13.919184,29.8631565 15.2185508,33.1427728 17.6211734,35.5453068 C21.488861,39.5928947 27.2390049,39.6516466 29.7790102,38.8249231 C29.9163928,38.7850558 30.6735702,38.5983086 31.3636294,39.2582186 L38.9427449,46.8414133 L42.6740986,43.1085678 C43.3243064,42.4591493 44.367785,42.4591493 45.0169441,43.1085678 C45.6671518,43.7579864 45.6671518,44.8018822 45.0169441,45.4523499 L41.2855904,49.1946376 L43.5508304,51.4597341 L44.8292228,50.1797815 C45.4794306,49.5293138 46.5239579,49.5293138 47.173117,50.1797815 C47.8233247,50.8292001 47.8233247,51.874145 47.173117,52.5235636 L45.8936758,53.8035162 L47.2412839,55.1537613 C49.426821,57.397875 52.9505277,57.2604374 55.1360648,55.1537613 C57.3320891,52.986235 57.3320891,49.4411859 55.1570392,47.2642173" id="Fill-3" fill="#FFC10D"></path>
                <g id="Group-7" fill="url(#linearGradient-1)">
                    <path d="M29.2872632,46.0463158 L29.2872632,49.3568421 L23.4072632,49.3568421 L23.4072632,46.0463158 C23.4072632,45.2652632 22.8735789,44.5936842 22.1230526,44.4252632 C20.1462105,43.9610526 18.2693684,43.18 16.5598947,42.1231579 C15.8977895,41.7084211 15.0493684,41.8168421 14.5051579,42.36 L12.1535789,44.7021053 L7.99357895,40.5421053 L10.3356842,38.2 C10.8788421,37.6568421 10.9872632,36.7978947 10.5725263,36.1452632 C9.50515789,34.4357895 8.73463158,32.5589474 8.27042105,30.5831579 C8.09252632,29.8315789 7.42094737,29.2978947 6.64936842,29.2978947 L3.33989474,29.2978947 L3.33989474,23.4189474 L6.64936842,23.4189474 C7.43042105,23.4189474 8.102,22.8852632 8.27042105,22.1336842 C8.73463158,20.1578947 9.51568421,18.28 10.5725263,16.5715789 C10.9872632,15.9094737 10.8788421,15.06 10.3356842,14.5157895 L7.99357895,12.1736842 L12.1535789,7.99473684 L14.4946316,10.3357895 C15.0388421,10.88 15.8977895,10.9884211 16.5504211,10.5736842 C18.2798947,9.49578947 20.1377895,8.73578947 22.1135789,8.27052632 C22.8641053,8.09263158 23.3977895,7.42210526 23.3977895,6.65052632 L23.3977895,3.34105263 L29.2767368,3.34105263 L29.2767368,6.65052632 C29.2767368,7.43052632 29.8104211,8.10315789 30.562,8.27052632 C32.5377895,8.73578947 34.4146316,9.51684211 36.1241053,10.5736842 C36.7862105,10.9884211 37.6367368,10.88 38.1798947,10.3357895 L40.522,7.99473684 L44.6809474,12.1547368 L42.3388421,14.4957895 C41.7967368,15.04 41.6872632,15.8989474 42.1030526,16.5505263 C43.1693684,18.2610526 43.9398947,20.1389474 44.4041053,22.1147368 C44.582,22.8652632 45.2546316,23.3989474 46.0251579,23.3989474 L49.3356842,23.3989474 L49.3356842,29.2873684 L46.0251579,29.2873684 C45.2441053,29.2873684 44.582,29.8210526 44.4041053,30.5726316 C44.3356842,30.8894737 44.2262105,31.2147368 44.1377895,31.5210526 L42.0430526,29.4368421 C43.0609474,24.2189474 41.4304211,18.7547368 37.6662105,14.9905263 C34.642,11.9663158 30.6114737,10.2968421 26.342,10.2968421 C24.9683158,10.2968421 23.6062105,10.4747368 22.282,10.82 C21.6988421,10.9789474 21.2535789,11.4231579 21.0862105,11.9873684 C20.9283158,12.5694737 21.0956842,13.1821053 21.5104211,13.6073684 L28.4567368,20.5526316 C30.6409474,22.7368421 30.6409474,26.2936842 28.4567368,28.4778947 C26.2135789,30.6021053 22.9525263,30.8484211 20.5325263,28.4778947 L13.5862105,21.5315789 C13.162,21.1073684 12.5493684,20.9378947 11.9662105,21.1073684 C11.382,21.2642105 10.9377895,21.7189474 10.7998947,22.3021053 C9.39673684,27.7957895 10.9872632,33.6852632 14.9893684,37.6768421 C18.6851579,41.4410526 24.0693684,43.1410526 29.4356842,42.0536842 L31.5304211,44.1484211 C31.2135789,44.2473684 30.9072632,44.3368421 30.5809474,44.4157895 C29.8209474,44.6136842 29.2872632,45.2757895 29.2872632,46.0463158 M47.082,55.0168421 L45.7283158,53.6631579 L47.0135789,52.38 C47.6651579,51.7263158 47.6651579,50.68 47.0135789,50.0273684 C46.3609474,49.3757895 45.3146316,49.3757895 44.6609474,50.0273684 L43.3777895,51.3126316 L41.0946316,49.0294737 L44.8388421,45.2842105 C45.4925263,44.6326316 45.4925263,43.5852632 44.8388421,42.9336842 C44.1872632,42.2810526 43.1398947,42.2810526 42.4872632,42.9336842 L38.742,46.6789474 L31.1346316,39.0694737 C30.4230526,38.4073684 29.682,38.5957895 29.5441053,38.6347368 C27.0041053,39.4652632 21.2346316,39.4052632 17.3409474,35.3452632 C14.9293684,32.9336842 13.6156842,29.6536842 13.6356842,26.2936842 L18.1904211,30.8484211 C21.9946316,34.4052632 27.3893684,34.2273684 30.8283158,30.8484211 C34.3156842,27.3610526 34.3156842,21.6989474 30.8283158,18.2115789 L26.2735789,13.6557895 C29.702,13.6557895 32.9125263,14.9505263 35.3335789,17.3621053 C38.4956842,20.5231579 39.7598947,25.2073684 38.6241053,29.5547368 C38.4662105,30.1178947 38.6346316,30.74 39.0588421,31.1452632 L55.0167368,47.1031579 C57.2009474,49.2863158 57.2009474,52.8442105 55.0167368,55.0273684 C52.8030526,57.1315789 49.2756842,57.2705263 47.082,55.0168421 M57.3683158,44.7315789 L46.7956842,34.1589474 C46.9841053,33.6557895 47.1714737,33.1410526 47.3293684,32.6273684 L51.0241053,32.6273684 C51.9430526,32.6273684 52.6946316,31.8863158 52.6946316,30.9578947 L52.6946316,21.7484211 C52.6946316,20.8294737 51.9535789,20.0789474 51.0241053,20.0789474 L47.3293684,20.0789474 C46.9041053,18.6463158 46.322,17.2726316 45.6198947,15.9589474 L48.2283158,13.3494737 C48.8798947,12.6978947 48.8798947,11.6505263 48.2283158,10.9978947 L41.7072632,4.47684211 C41.0556842,3.82526316 40.0083158,3.82526316 39.3546316,4.47684211 L36.7472632,7.08526316 C35.4325263,6.37473684 34.0493684,5.80105263 32.6272632,5.37578947 L32.6272632,1.67052632 C32.6272632,0.752631579 31.8862105,0.00105263158 30.9567368,0.00105263158 L21.7272632,0.00105263158 C20.8083158,0.00105263158 20.0577895,0.742105263 20.0577895,1.67052632 L20.0577895,5.36631579 C18.6251579,5.79157895 17.2514737,6.37473684 15.9377895,7.07578947 L13.3293684,4.46736842 C12.6777895,3.81473684 11.6304211,3.81473684 10.9767368,4.46736842 L4.44621053,10.9789474 C3.79357895,11.6315789 3.79357895,12.6778947 4.44621053,13.3305263 L7.06515789,15.9484211 C6.35357895,17.2526316 5.77989474,18.6368421 5.35568421,20.0684211 L1.67042105,20.0684211 C0.751473684,20.0684211 -0.000105263158,20.8094737 -0.000105263158,21.7389474 L-0.000105263158,30.9473684 C-0.000105263158,31.8663158 0.740947368,32.6178947 1.67042105,32.6178947 L5.36515789,32.6178947 C5.79042105,34.0505263 6.37252632,35.4231579 7.07463158,36.7378947 L4.46621053,39.3463158 C3.81463158,39.9989474 3.81463158,41.0463158 4.46621053,41.6978947 L10.9767368,48.2389474 C11.5998947,48.8621053 12.7167368,48.8621053 13.3293684,48.2389474 L15.9377895,45.6305263 C17.2514737,46.3421053 18.6356842,46.9147368 20.0577895,47.34 L20.0577895,51.0252632 C20.0577895,51.9452632 20.7998947,52.6947368 21.7272632,52.6947368 L30.9567368,52.6947368 C31.8756842,52.6947368 32.6272632,51.9547368 32.6272632,51.0252632 L32.6272632,47.3305263 C33.1504211,47.1715789 33.6641053,47.0042105 34.1577895,46.7968421 L44.7304211,57.3694737 C48.4956842,61.1336842 54.1177895,60.6105263 57.3683158,57.3694737 C60.8462105,53.8810526 60.8462105,48.2105263 57.3683158,44.7315789" id="Fill-5"></path>
                </g>
            </g>
        </g>
    </g>
</svg>