<?xml version="1.0" encoding="UTF-8"?>
<svg width="64px" height="64px" viewBox="0 0 64 64" version="1.1" xmlns="http://www.w3.org/2000/svg" xmlns:xlink="http://www.w3.org/1999/xlink">
    <!-- Generator: Sketch 46.2 (44496) - http://www.bohemiancoding.com/sketch -->
    <title>64x64 star</title>
    <desc>Created with Sketch.</desc>
    <defs>
        <linearGradient x1="4.80792773%" y1="100%" x2="186.67541%" y2="-101.473313%" id="linearGradient-1">
            <stop stop-color="#183431" offset="0%"></stop>
            <stop stop-color="#52B346" offset="100%"></stop>
        </linearGradient>
    </defs>
    <g id="jhef" stroke="none" stroke-width="1" fill="none" fill-rule="evenodd">
        <g id="64x64-star">
            <g id="Page-1" transform="translate(1.000000, 5.000000)">
                <path d="M32.1175714,50.6468877 C32.3940306,49.8387147 33.2761229,49.4065178 34.0855862,49.6841077 C34.8950494,49.9616975 35.3261384,50.842489 35.0496791,51.6518333 C34.7720485,52.4623488 33.8911276,52.8933744 33.0804929,52.6157845 C32.2710297,52.3381947 31.8399407,51.456232 32.1175714,50.6468877 Z" id="Fill-1" fill="#FF4B4E"></path>
                <path d="M15.5836542,37.2147189 C15.8612849,36.405372 16.7422058,35.9731737 17.5528404,36.2507644 C18.3623037,36.5283552 18.7933926,37.4091496 18.515762,38.2184965 C18.2393028,39.0290147 17.3572104,39.4600417 16.5477472,39.1824509 C15.7382839,38.9048602 15.307195,38.0228946 15.5836542,37.2147189" id="Fill-3" fill="#FFCA54"></path>
                <path d="M19.7175711,13.4468877 C19.9940294,12.6387147 20.8761189,12.2065178 21.6867509,12.4841077 C22.4950401,12.7616975 22.9261276,13.642489 22.6496693,14.4518333 C22.3720395,15.2623488 21.4911215,15.6933744 20.6804895,15.4157845 C19.8710289,15.1381947 19.4399413,14.256232 19.7175711,13.4468877" id="Fill-5" fill="#00CDB3"></path>
                <path d="M46.5836542,8.2807984 C46.8612849,7.47145165 47.7422058,7.03925346 48.5528404,7.31801544 C49.3623037,7.59443488 49.7933926,8.47640029 49.515762,9.28457577 C49.2393028,10.0950938 48.3572104,10.5261207 47.5477472,10.2497013 C46.7382839,9.9709393 46.307195,9.09014515 46.5836542,8.2807984" id="Fill-7" fill="#57BAE5"></path>
                <path d="M6.28365421,25.8473833 C6.56128486,25.0391797 7.44220578,24.6057951 8.25284044,24.8845668 C9.06230368,25.1621672 9.49339263,26.0429921 9.21576197,26.852367 C8.93930275,27.661742 8.0572104,28.092784 7.24774717,27.8163549 C6.43828394,27.5375832 6.00719498,26.6567583 6.28365421,25.8473833" id="Fill-9" fill="#57BAE5"></path>
                <path d="M36.0166581,6.04258228 C35.6257995,6.80038808 29.7035829,18.2999944 29.3398135,19.0076229 L14.8470877,20.8719024 C13.5184266,21.0417332 12.9598729,22.665419 13.9041253,23.6136412 L24.2044738,33.9540234 L21.5032929,48.2777108 C21.3897762,48.8824115 21.6297092,49.4986916 22.1224748,49.867945 C22.6152403,50.238485 23.276991,50.2963819 23.8278049,50.0197635 L36.8693231,43.4439648 L49.6941278,50.4327612 C50.8692834,51.0734866 52.2766322,50.0879531 52.0715282,48.7666177 L49.8321537,34.3644479 C61.3940853,23.4785484 60.6962158,24.2415006 60.8781005,23.7062762 C61.2031709,22.764487 60.6007586,21.7480751 59.6049077,21.5872505 L45.1792599,19.259796 L38.922943,6.08889979 C38.3501998,4.88207155 36.6293902,4.85247981 36.0166581,6.04258228" id="Fill-11" fill="#FFCA54"></path>
                <path d="M23.0250264,28.8320162 L15.035307,20.6666667 L14.7455555,20.7043566 C13.5123154,20.8660588 12.9938757,22.3991895 13.8703142,23.2964539 L23.430918,33.0666667 L23.7482079,30.9961499 C23.7685624,30.8490375 23.897873,29.7232016 23.0250264,28.8320162" id="Fill-13" fill="#F99830"></path>
                <path d="M50.8223712,46.9256211 L39.2591572,40.6808895 C37.8968583,39.9462911 36.6625607,40.5001447 36.6586423,40.5014358 L24.6330565,46.5111992 C23.6625981,46.9953369 22.4844643,46.427282 22.2807072,45.3621789 L21.728212,48.2695875 C21.6132722,48.8763735 21.8549072,49.4947788 22.3551569,49.8653056 C22.8541005,50.2358323 23.5241478,50.2952199 24.0805613,50.0176476 L37.2868933,43.4191727 L50.2711822,50.4320695 C51.4610713,51.0750045 52.8873708,50.0860724 52.6796953,48.7601805 L52.3923456,46.9269121 C51.9064633,47.18641 51.3147841,47.1915741 50.8223712,46.9256211" id="Fill-15" fill="#F99830"></path>
                <g id="Group-19" transform="translate(13.433333, 4.133333)" fill="url(#linearGradient-1)">
                    <path d="M32.6847276,14.0715806 L26.7813215,1.62968869 C25.8968969,-0.232128773 23.257682,-0.272963701 22.3157443,1.55822757 L19.4170811,7.19089534 C19.1870285,7.63625127 19.3634022,8.1849706 19.8107268,8.41211489 C20.2554952,8.64181135 20.8037873,8.46571073 21.0325618,8.0203548 L23.9299469,2.38768703 C24.185561,1.89128744 24.9000022,1.90277227 25.1402794,2.40555231 L31.2468987,15.2787631 C31.3759838,15.5480184 31.6277636,15.738156 31.9229978,15.7853714 L46.0060531,18.0593664 C46.5607355,18.1486928 46.7626706,18.8352301 46.3613566,19.2129531 L35.987261,28.990366 C35.769989,29.1970928 35.6677434,29.4944222 35.7137539,29.7891993 L37.8992539,43.8657644 C37.9836066,44.4144837 37.4008066,44.8279373 36.9100276,44.5599581 L24.3913303,37.7290405 C24.1280478,37.5873943 23.8123645,37.5822899 23.5465259,37.7162795 L10.8143908,44.1414001 C10.3146654,44.3927901 9.74336798,43.9652995 9.84689167,43.4165802 L12.4835504,29.4178567 C12.5385075,29.1243556 12.4452083,28.823198 12.2356048,28.6113669 L2.18102675,18.5072746 C1.78610307,18.1104101 2.01871184,17.4366338 2.57211623,17.3638966 L16.7216311,15.541638 C17.0168654,15.5046313 17.2763136,15.3221502 17.4130671,15.0567232 L19.6113478,10.7830928 C19.8388443,10.339013 19.6637487,9.79156977 19.2189803,9.5631494 C18.7716557,9.33345293 18.2259197,9.50955356 17.9958671,9.95490948 L16.0148583,13.8048775 L2.34078553,15.5658837 C0.293317105,15.8300346 -0.562989912,18.3235174 0.891453947,19.7846421 L10.6111776,29.5518463 L8.06142763,43.0809681 C7.68056272,45.1048492 9.79193465,46.6897548 11.6323557,45.7607602 L23.9388934,39.550023 L36.0396618,46.1512442 C37.4314803,46.9092425 39.1057522,46.190803 39.5901408,44.7768937 C39.8636478,43.9806126 39.8700382,44.7220217 37.5810145,29.9831652 L47.6087531,20.5311556 C49.101539,19.1223506 48.3385311,16.5982417 46.296175,16.2702862 L32.6847276,14.0715806 Z" id="Fill-17"></path>
                </g>
                <g id="Group-22" transform="translate(22.733333, 0.000000)" fill="url(#linearGradient-1)">
                    <path d="M6.59786089,6.89517318 C6.658862,6.75074965 6.71323256,6.61026494 6.75964644,6.475032 C8.25682589,2.14889082 3.38999811,2.09768612 2.14080144,0.405304941 C1.83181756,-0.0108974118 1.24302422,-0.101490353 0.823973111,0.203112 C0.403595889,0.507714353 0.312094222,1.09066024 0.618425889,1.50686259 C1.33054756,2.46924847 2.39939311,2.97341788 3.34358422,3.417192 C4.96807033,4.18132376 5.57675533,4.46754494 4.85800311,6.17962024 C4.06631478,8.06631671 3.985422,9.64841082 4.61532478,10.8825755 C5.13250811,11.8935402 5.95071867,12.2677285 6.04089422,12.3071167 L6.79147311,10.5950414 C6.79147311,10.5950414 5.33938144,9.89786965 6.59786089,6.89517318" id="Fill-20"></path>
                </g>
                <path d="M13.6449127,16.5333333 L15.5,16.3781335 C15.4161542,15.3952013 14.3720126,13.5987633 11.0286631,13.8289764 C9.80765931,13.9143363 9.73822454,13.6479099 9.56398259,12.2226582 C9.39498099,10.8297398 9.13951345,8.72548886 6.24159456,8.27799603 C5.73327967,8.19910279 5.25902712,8.5405424 5.17780154,9.0436485 C5.09919615,9.54546126 5.44505989,10.0149407 5.95337477,10.093834 C7.39447368,10.3162871 7.54251384,11.0120996 7.7167558,12.4412313 C7.87134641,13.7242165 8.13205431,15.8698541 11.1596721,15.662921 C13.46019,15.5038412 13.6449127,16.5333333 13.6449127,16.5333333" id="Fill-23" fill="url(#linearGradient-1)"></path>
                <g id="Group-27" transform="translate(0.000000, 36.166667)" fill="url(#linearGradient-1)">
                    <path d="M5.506189,3.391803 C6.29069567,2.074923 6.473389,1.847538 7.57089233,2.475288 C11.6707457,4.821678 14.033669,1.549008 12.4874923,0.631098 C12.0294157,0.360468 11.4477523,0.525078 11.1871457,1.000773 C11.1817723,1.010538 10.5584657,1.921473 8.49376233,0.739908 C5.768139,-0.819702 4.587349,1.163988 3.882099,2.349738 C3.09759233,3.669408 2.65563567,4.285998 1.218269,3.857733 C0.710489,3.707073 0.182559,4.008393 0.037479,4.537098 C-0.108944333,5.063013 0.185245667,5.612643 0.691682333,5.763303 C3.583879,6.622623 4.74183233,4.679388 5.506189,3.391803" id="Fill-25"></path>
                </g>
                <path d="M17.3646863,36.4368112 C17.5003756,36.0387789 17.9317652,35.8276041 18.3285924,35.9645477 C18.963516,36.1821217 19.0262403,37.0652161 18.4156384,37.3647002 C17.8101568,37.6603449 17.1470714,37.0716153 17.3646863,36.4368112 M19.2156933,38.996505 C19.8352558,38.6944611 20.2986476,38.1697239 20.5213828,37.5182818 C21.267674,35.343822 18.9967982,33.3664586 16.9499378,34.3672988 C16.3303753,34.6693427 15.8669835,35.1953598 15.6442483,35.8468018 C14.9043575,38.0033438 17.1496315,40.0088639 19.2156933,38.996505" id="Fill-28" fill="url(#linearGradient-1)"></path>
                <path d="M21.9044109,14.192327 C21.8377836,14.3845636 21.7019664,14.5396345 21.5187413,14.6293449 C20.9152518,14.9253893 20.2476976,14.3397084 20.4667989,13.7002012 C20.5334262,13.5079646 20.6692433,13.3541753 20.8511871,13.2631833 C21.4559579,12.9684204 22.1222309,13.5541014 21.9044109,14.192327 M22.3195502,16.2646379 C23.599563,15.6379464 24.1300187,14.0936455 23.5034659,12.812068 C22.8781944,11.5343352 21.3291098,11.0037621 20.0516596,11.6291719 C19.4315132,11.9316242 18.9676848,12.457071 18.7447396,13.109394 C18.001589,15.2765416 20.2605105,17.2719578 22.3195502,16.2646379" id="Fill-30" fill="url(#linearGradient-1)"></path>
                <path d="M34.2989632,50.3694813 C34.2336148,50.5606073 34.0977925,50.7170998 33.9145606,50.8056078 C33.3097671,51.1019173 32.6434693,50.5144292 32.8625788,49.8756321 C32.9279272,49.6845061 33.0650308,49.5292964 33.2469814,49.4395056 C33.8517748,49.1419134 34.5180727,49.7306842 34.2989632,50.3694813 M32.4461426,47.8027484 C31.1660818,48.4300009 30.6368876,49.9756847 31.2634638,51.2571271 C32.2705987,53.3184663 35.2791899,53.128623 36.0223683,50.9595348 C36.7642654,48.7917294 34.5052593,46.7932437 32.4461426,47.8027484" id="Fill-32" fill="url(#linearGradient-1)"></path>
                <path d="M48.7709346,9.02512824 C48.7043102,9.21622266 48.5684989,9.37268924 48.3852818,9.46118263 C47.7792559,9.75744312 47.1155742,9.16876968 47.3333848,8.53136076 C47.4000092,8.34026633 47.5358205,8.18508227 47.7190377,8.09402385 C48.3237823,7.79776337 48.9887452,8.3864368 48.7709346,9.02512824 M45.6114,7.9401223 C44.8682816,10.1101342 47.1271054,12.1057243 49.186056,11.0976691 C50.4672947,10.4705203 50.9964462,8.92509223 50.3699205,7.6425793 C49.3615857,5.58286354 46.3545185,5.77011043 45.6114,7.9401223" id="Fill-34" fill="url(#linearGradient-1)"></path>
                <path d="M7.06766497,27.7178307 C6.97790675,27.5344675 6.96508415,27.3280236 7.03176168,27.1369668 C7.0958747,26.9446278 7.23307655,26.7894743 7.41515752,26.7009983 C7.59852075,26.6112401 7.80496466,26.5984175 7.99730371,26.6638128 C8.1883605,26.729208 8.343514,26.8664099 8.43198997,27.0497731 C8.52303045,27.2318541 8.53585305,27.4370157 8.46917552,27.630637 C8.40378024,27.8216938 8.26786064,27.9768473 8.08449742,28.0653233 C7.90113419,28.1550815 7.69597254,28.1691864 7.50363349,28.1025088 C7.31129444,28.0371136 7.15614093,27.8999117 7.06766497,27.7178307 M10.1938157,28.2204768 C10.4156467,27.5678063 10.3720499,26.8676921 10.0694364,26.2483604 C9.76554071,25.6290287 9.23981398,25.1648504 8.58842573,24.9404549 C7.93447296,24.7173416 7.23435882,24.7609384 6.61502707,25.0648341 C5.99569533,25.3674476 5.53151709,25.8931743 5.30712153,26.5458448 C5.08400824,27.1985153 5.12760509,27.8999117 5.43150079,28.5179612 C5.73411423,29.1372929 6.25984096,29.6027534 6.91251147,29.827149 C7.56646424,30.04898 8.26657838,30.0053832 8.88591012,29.7027697 C9.5039596,29.4001563 9.96942011,28.8731473 10.1938157,28.2204768" id="Fill-36" fill="url(#linearGradient-1)"></path>
                <path d="M11.4226499,43.0654365 C11.6074783,42.5256545 12.1944484,42.2378454 12.7354915,42.4226256 C13.2742943,42.6074057 13.5621785,43.1953426 13.3773501,43.7351246 C13.1925217,44.2749066 12.6055516,44.5627157 12.0645085,44.3768157 C11.5257057,44.1920355 11.2378215,43.6040987 11.4226499,43.0654365" id="Fill-38" fill="url(#linearGradient-1)"></path>
                <path d="M47.5893165,13.0982055 C47.7741449,12.558426 48.3611151,12.2706182 48.9021582,12.4565174 C49.440961,12.6412967 49.7288452,13.2281109 49.5440168,13.7690103 C49.3591884,14.3076699 48.7722182,14.5954776 48.2311751,14.4106983 C47.6923724,14.2259191 47.4044881,13.637985 47.5893165,13.0982055" id="Fill-40" fill="url(#linearGradient-1)"></path>
                <g id="Group-44" transform="translate(41.333333, 50.633333)" fill="url(#linearGradient-1)">
                    <path d="M0.673991667,1.206055 C0.888408333,0.458955 1.56524167,0.060605 2.187825,0.317905 C2.81040833,0.573655 3.14236667,1.385855 2.92924167,2.134505 C2.71611667,2.880055 2.03799167,3.278405 1.41540833,3.022655 C0.792825,2.766905 0.460866667,1.953155 0.673991667,1.206055" id="Fill-42"></path>
                </g>
                <path d="M23.7029351,8.74662493 C23.8891074,8.32955365 23.7014337,8.19322564 22.6834921,6.65087063 C22.4192476,6.24535257 21.7766532,6.08360747 21.2496657,6.28925481 C20.725681,6.49490214 20.5154865,6.98822468 20.7827338,7.39258742 L21.7421213,8.85175924 C22.1700171,9.49873962 23.3996546,9.4294203 23.7029351,8.74662493" id="Fill-45" fill="url(#linearGradient-1)"></path>
                <path d="M13.0120877,33.7945655 L14.2369102,32.464125 C14.577432,32.094489 14.5338769,31.5369237 14.1432008,31.2170704 C13.7525246,30.8959725 13.1599111,30.9357986 12.8193894,31.3054345 L11.5958867,32.635875 C11.2566848,33.005511 11.29892,33.5630763 11.6895962,33.8829296 C12.0815922,34.2040275 12.6728858,34.1642014 13.0120877,33.7945655" id="Fill-47" fill="url(#linearGradient-1)"></path>
                <path d="M38.6541239,47.8383121 L37.4295813,49.1689696 C37.0891373,49.5386658 37.1326825,50.0963221 37.5245889,50.4162276 C37.9138562,50.7373778 38.5076538,50.6975452 38.8467782,50.327849 C40.1689676,48.8901415 40.1702871,48.9200159 40.2494602,48.704671 C40.3695392,48.3735626 40.2745316,47.9926634 39.9763132,47.7499336 C39.5857264,47.4300281 38.9932483,47.4686159 38.6541239,47.8383121" id="Fill-49" fill="url(#linearGradient-1)"></path>
                <path d="M55.1852466,12.7073011 L53.9621142,14.0377448 C53.6233804,14.4070362 53.6655574,14.9640818 54.0570124,15.2836369 C54.4471495,15.6031921 55.0389452,15.5646466 55.3776791,15.1953552 C56.6970276,13.759222 56.6996637,13.7890637 56.7787455,13.5727112 C57.1095712,12.6612951 55.8561241,11.9774222 55.1852466,12.7073011" id="Fill-51" fill="url(#linearGradient-1)"></path>
                <path d="M35.3038772,25.4234393 C34.9283559,25.6162303 34.3722205,25.8569041 33.6393692,26.1442006 C32.9260086,26.413856 32.3906633,26.6444492 32.0333333,26.8359802 L32.0333333,23.2598953 C33.1040239,22.7042034 34.0109924,22.2178156 34.7542387,21.8057719 C35.4974851,21.3924683 36.0367285,21.0119265 36.3745677,20.6666667 L40.3,20.6666667 L40.3,38.2333333 L35.3038772,38.2333333 L35.3038772,25.4234393 Z" id="Fill-53" fill="url(#linearGradient-1)"></path>
                <polygon id="Fill-55" fill="url(#linearGradient-1)" points="32.0333333 38.2333333 43.4 38.2333333 43.4 35.1333333 32.0333333 35.1333333"></polygon>
            </g>
        </g>
    </g>
</svg>