<?xml version="1.0" encoding="UTF-8"?>
<svg width="128px" height="128px" viewBox="0 0 128 128" version="1.1" xmlns="http://www.w3.org/2000/svg" xmlns:xlink="http://www.w3.org/1999/xlink">
    <!-- Generator: Sketch 46.2 (44496) - http://www.bohemiancoding.com/sketch -->
    <title>128x128_logo</title>
    <desc>Created with Sketch.</desc>
    <defs>
        <polygon id="path-1" points="0 100 99.1525424 100 99.1525424 0 0 0"></polygon>
    </defs>
    <g id="jhef" stroke="none" stroke-width="1" fill="none" fill-rule="evenodd">
        <g id="128x128_logo">
            <g id="Page-1" transform="translate(14.000000, 14.000000)">
                <path d="M14.1039894,97.8278404 L15.4893977,97.8278404 C15.7889455,97.8278404 16.0495057,97.8143409 16.2706923,97.786151 C16.492265,97.7587551 16.6760082,97.7019781 16.8192198,97.6174081 C16.9639755,97.5324412 17.0716737,97.4117404 17.1442446,97.2545118 C17.2164294,97.0980773 17.2519428,96.8908214 17.2519428,96.6319501 C17.2519428,96.385387 17.2129553,96.186469 17.1326641,96.034799 C17.051987,95.8843201 16.9365684,95.7679868 16.7879526,95.6850051 C16.6381787,95.6028174 16.4594537,95.5456434 16.2510056,95.5158652 C16.0429434,95.4860871 15.8105623,95.4706024 15.5546343,95.4706024 L14.1039894,95.4706024 L14.1039894,97.8278404 Z M14.1039894,94.992564 L15.4820634,94.992564 C15.7657845,94.992564 16.0027978,94.9679474 16.1946474,94.9187142 C16.3868829,94.8686869 16.541675,94.7964253 16.6590236,94.6999441 C16.7775302,94.604257 16.8612955,94.4855414 16.9114775,94.3453856 C16.9632035,94.2056269 16.9886805,94.0448249 16.9886805,93.8641708 C16.9886805,93.6771641 16.9589573,93.5183473 16.900283,93.3904998 C16.8416087,93.2610641 16.747807,93.1566421 16.620036,93.0768367 C16.491879,92.9966342 16.3243484,92.9394602 16.1193744,92.9045205 C15.9132423,92.8675956 15.6611744,92.8505228 15.3620127,92.8505228 L14.1039894,92.8505228 L14.1039894,94.992564 Z M13.559322,98.3050847 L13.559322,92.3728814 L15.6422597,92.3728814 C15.9788649,92.3728814 16.2672182,92.4086151 16.5073196,92.4792886 C16.747807,92.5511532 16.9442888,92.6523989 17.0963787,92.7850109 C17.2484687,92.9156377 17.359255,93.0740574 17.4295098,93.2582848 C17.4978345,93.4413212 17.5333478,93.6442096 17.5333478,93.8641708 C17.5333478,94.0726178 17.5063268,94.2520808 17.4530567,94.4033538 C17.3990146,94.5554208 17.3299179,94.6812831 17.2446085,94.7825288 C17.1592992,94.8841715 17.0616374,94.963977 16.9520091,95.0219451 C16.8423808,95.0787221 16.7296643,95.1196174 16.6115437,95.1406606 L16.6115437,95.1581305 C17.0118414,95.2180838 17.3090731,95.3800769 17.5055548,95.6433157 C17.6989483,95.9077456 17.7966102,96.2364963 17.7966102,96.6319501 C17.7966102,96.9396576 17.7499023,97.2013082 17.6568727,97.4157108 C17.563843,97.6301135 17.434142,97.8024297 17.2685415,97.9350417 C17.102941,98.0656685 16.9041432,98.1613556 16.6713761,98.2189266 C16.439767,98.2761007 16.186541,98.3050847 15.9144004,98.3050847 L13.559322,98.3050847 Z" id="Fill-1" fill="#173430"></path>
                <path d="M22.2987701,95.0594021 C22.2987701,94.8630409 22.2672377,94.6779003 22.2032968,94.5039803 C22.1393559,94.3304344 22.0460723,94.1804518 21.9212562,94.0544066 C21.797754,93.9279874 21.6414055,93.8262536 21.4539624,93.7518234 C21.2660813,93.6766451 21.0506094,93.6388689 20.8079844,93.6388689 C20.5653595,93.6388689 20.3529532,93.6781411 20.1672619,93.7555636 C19.9824465,93.832612 19.825222,93.9358419 19.6951506,94.0652533 C19.5642032,94.1950387 19.4599708,94.3450213 19.3811396,94.515949 C19.3018704,94.6868768 19.2510681,94.8679031 19.2265428,95.0594021 L22.2987701,95.0594021 Z M19.2265428,95.4472622 C19.2265428,95.6649427 19.2598271,95.8702804 19.3268336,96.0647715 C19.3934022,96.2592626 19.4919412,96.4271982 19.6228886,96.5689523 C19.7525222,96.7118285 19.9176297,96.825531 20.1177734,96.9108079 C20.3174791,96.9964588 20.5474035,97.0387232 20.8079844,97.0387232 C21.1653526,97.0387232 21.4710425,96.9590566 21.72593,96.7982274 C21.9803797,96.6373982 22.1503047,96.4099933 22.2348293,96.1145164 L22.8440193,96.1145164 C22.7778887,96.3067634 22.6898605,96.4836755 22.5812486,96.6474968 C22.4717608,96.8098221 22.3351201,96.9526983 22.1726402,97.0735072 C22.0084085,97.1950641 21.8135203,97.2900655 21.5901652,97.3570154 C21.3654962,97.4243392 21.1044774,97.4576271 20.8079844,97.4576271 C20.4322223,97.4576271 20.1090144,97.403768 19.8352949,97.2956759 C19.5628893,97.1864616 19.3382204,97.0379751 19.1630399,96.8487203 C18.9869835,96.6598395 18.857788,96.4372968 18.7719495,96.1810922 C18.686987,95.9245135 18.6440678,95.6492338 18.6440678,95.3537569 C18.6440678,95.0594021 18.6948701,94.7822522 18.794285,94.5230554 C18.8950138,94.2653547 19.0373479,94.0386977 19.2212874,93.8445807 C19.4065407,93.6497155 19.6320856,93.4978628 19.8992358,93.3860305 C20.1655101,93.2753201 20.4685723,93.220339 20.8079844,93.220339 C21.457028,93.220339 21.9654893,93.4103418 22.3351201,93.7899735 C22.7047509,94.1707273 22.8865006,94.7235309 22.8812452,95.4472622 L19.2265428,95.4472622 Z" id="Fill-3" fill="#173430"></path>
                <path d="M22.8813559,98.3050847 L22.8813559,92.3728814 L23.3754412,92.3728814 L23.3754412,94.6310483 C23.5733933,94.4214663 23.7781028,94.2519748 23.9911597,94.1193982 C24.2022291,93.9876156 24.4566254,93.9221212 24.7531561,93.9221212 C25.0174897,93.9221212 25.2619487,93.9673719 25.4881229,94.0578732 C25.7127071,94.1487715 25.9035043,94.3071488 26.0565396,94.5318144 C26.161478,94.6862224 26.2230896,94.8430119 26.2425669,95.0053586 C26.2616466,95.1677053 26.2711864,95.3367999 26.2711864,95.5126424 L26.2711864,98.3050847 L25.7763062,98.3050847 L25.7763062,95.5201842 C25.7763062,95.1363474 25.6916399,94.8473782 25.5211149,94.6552614 C25.3505899,94.4627476 25.066779,94.3666892 24.6704773,94.3666892 C24.5170446,94.3666892 24.3763316,94.3909022 24.2507234,94.4369468 C24.1239228,94.4837852 24.0094445,94.5453102 23.9080834,94.6223157 C23.8059274,94.6993212 23.7192737,94.787441 23.6481222,94.885881 C23.5765733,94.984718 23.5209241,95.0891121 23.4827647,95.1990632 C23.4334754,95.3367999 23.4032658,95.4681856 23.3917385,95.5948081 C23.3810061,95.7206367 23.3754412,95.8579764 23.3754412,96.0064304 L23.3754412,98.3050847 L22.8813559,98.3050847 Z" id="Fill-5" fill="#173430"></path>
                <mask id="mask-2" fill="white">
                    <use xlink:href="#path-1"></use>
                </mask>
                <g id="Clip-8"></g>
                <path d="M28.0038077,98.3050847 L28.7733808,98.3050847 L28.7733808,94.0375667 L28.0038077,94.0375667 L28.0038077,98.3050847 Z M27.9661017,93.1061687 L28.8135593,93.1061687 L28.8135593,92.3728814 L27.9661017,92.3728814 L27.9661017,93.1061687 Z" id="Fill-7" fill="#173430" mask="url(#mask-2)"></path>
                <path d="M30.1557812,97.4576271 L29.6610169,97.4576271 L29.6610169,93.3320081 L30.1557812,93.3320081 L30.1557812,93.9057036 C30.3536869,93.7030874 30.5583484,93.5392293 30.7705605,93.4110592 C30.9819779,93.2836565 31.2363145,93.220339 31.5327756,93.220339 C31.7970473,93.220339 32.0418463,93.2640857 32.2675701,93.351579 C32.4924991,93.4394561 32.6824567,93.5925695 32.8362509,93.8097679 C32.94037,93.9590439 33.0019671,94.1106223 33.0214398,94.2675731 C33.0409124,94.4245239 33.0508475,94.5879984 33.0508475,94.7579964 L33.0508475,97.4576271 L32.5560832,97.4576271 L32.5560832,94.7652875 C32.5560832,94.3942082 32.4710394,94.1148435 32.300157,93.929112 C32.1292745,93.7429967 31.8467224,93.6501309 31.4505136,93.6501309 C31.2971169,93.6501309 31.1564369,93.6735392 31.0292686,93.7180534 C30.9040873,93.7633351 30.788841,93.8228152 30.6875037,93.8972613 C30.5861665,93.9717074 30.4991357,94.0568983 30.4280009,94.1520665 C30.3564687,94.2476185 30.30123,94.3485429 30.2630795,94.4548396 C30.2138017,94.5879984 30.1832019,94.7150172 30.1720746,94.8374312 C30.1613448,94.9590777 30.1557812,95.0918527 30.1557812,95.2353725 L30.1557812,97.4576271 Z" id="Fill-9" fill="#173430" mask="url(#mask-2)"></path>
                <path d="M36.7540236,96.0820663 C36.7540236,95.8456661 36.7192742,95.6205602 36.6480593,95.4075274 C36.5759863,95.1944946 36.473883,95.0091133 36.3404623,94.8494361 C36.2070415,94.6905378 36.0431614,94.5643538 35.8509669,94.4693264 C35.6579144,94.3762463 35.4399795,94.3283431 35.1954464,94.3283431 C34.9178798,94.3283431 34.6767786,94.3781935 34.475146,94.4782839 C34.2735134,94.5775953 34.1062012,94.7139052 33.9757835,94.8864344 C33.8457948,95.0581848 33.7509846,95.258755 33.6913528,95.4881449 C33.63215,95.7171454 33.6081257,95.9636715 33.6205669,96.2281125 C33.6205669,96.4921641 33.6604644,96.7246697 33.7406884,96.9264083 C33.8209125,97.1289257 33.9311669,97.3002866 34.0744548,97.4401016 C34.2168846,97.580306 34.3829098,97.6866276 34.5738173,97.7590666 C34.7634377,97.8318949 34.9706474,97.8692828 35.1954464,97.8692828 C35.4451276,97.8692828 35.6682105,97.8229374 35.8642661,97.7306362 C36.0598926,97.6398928 36.2229147,97.5144878 36.3537614,97.3552 C36.4846081,97.1959123 36.5832794,97.0078047 36.6519203,96.7889301 C36.7201322,96.5716133 36.7540236,96.3356026 36.7540236,96.0820663 L36.7540236,96.0820663 Z M36.7540236,92.3728814 L37.2881356,92.3728814 L37.2881356,98.1917529 L36.7540236,98.1917529 L36.7540236,97.4560693 L36.7364344,97.4560693 C36.6596424,97.5966631 36.5605421,97.719342 36.4387045,97.8237164 C36.3164379,97.9296486 36.1830172,98.0164974 36.0371553,98.0865996 C35.8917224,98.1570912 35.7424285,98.2104468 35.5875575,98.2482241 C35.4335445,98.2863908 35.2821055,98.3050847 35.1349566,98.3050847 C34.7600057,98.3050847 34.4421126,98.2482241 34.1817062,98.1348922 C33.9204418,98.0223392 33.70551,97.8673355 33.5351948,97.6702704 C33.3665956,97.4743738 33.243471,97.2406998 33.16625,96.9715852 C33.089029,96.7024707 33.0508475,96.4134939 33.0508475,96.1069915 C33.0508475,95.8152885 33.092461,95.5356586 33.1752591,95.2653757 C33.2580572,94.9966507 33.3841848,94.759861 33.554071,94.5589014 C33.7230992,94.3559945 33.936744,94.1955384 34.1937183,94.0740279 C34.4524087,93.9517385 34.7570027,93.8913728 35.1070712,93.8913728 C35.4335445,93.8913728 35.7462895,93.9575804 36.0470224,94.0903851 C36.3464683,94.2220214 36.5824214,94.4171392 36.7540236,94.6761279 L36.7540236,92.3728814 Z" id="Fill-10" fill="#173430" mask="url(#mask-2)"></path>
                <path d="M41.134303,98.626423 C41.2082322,98.6367158 41.2821614,98.6485921 41.358731,98.6592807 C41.4348604,98.6695735 41.51143,98.6755117 41.5910799,98.6755117 C41.7428988,98.6755117 41.8678744,98.6323612 41.9664467,98.5448726 C42.0623787,98.4569881 42.1437888,98.3512891 42.2075968,98.2281717 C42.2718448,98.1054501 42.3246513,97.9767903 42.3673367,97.8425884 C42.4095819,97.7087822 42.4593081,97.5951658 42.5138749,97.5029267 L40.6779661,93.220339 L41.2896423,93.220339 L42.8056313,96.8766507 L44.3216202,93.220339 L44.9152542,93.220339 L43.1532746,97.4182092 C43.0428209,97.6866132 42.9380878,97.9280976 42.8377553,98.1414748 C42.7374228,98.354852 42.6300494,98.5365592 42.5178354,98.6877838 C42.4056214,98.8378209 42.2806459,98.9534167 42.1437888,99.0329878 C42.0064917,99.1125589 41.8441115,99.1525424 41.6553279,99.1525424 C41.5576357,99.1525424 41.4647842,99.1466042 41.3758931,99.1351238 C41.2883222,99.124831 41.2082322,99.1113713 41.134303,99.0951403 L41.134303,98.626423 Z" id="Fill-11" fill="#173430" mask="url(#mask-2)"></path>
                <path d="M48.5868901,95.339544 C48.5868901,95.1009605 48.557119,94.878831 48.4992778,94.6712858 C48.4393102,94.4652364 48.3478702,94.2853638 48.2253831,94.1324161 C48.1011948,93.9798423 47.9421316,93.8594287 47.7481937,93.7711752 C47.5546811,93.6836697 47.3160865,93.639169 47.0336857,93.639169 C46.7568138,93.639169 46.5203456,93.6874092 46.32258,93.7838897 C46.1252397,93.8796223 45.9653259,94.0056452 45.8424135,94.1634544 C45.7182252,94.3216375 45.6272105,94.5030059 45.5680935,94.7071855 C45.509827,94.9113651 45.4804812,95.1222759 45.4804812,95.339544 C45.4804812,95.5874764 45.5136548,95.8163371 45.5821285,96.0265 C45.6493262,96.235541 45.7471458,96.4154135 45.8777136,96.5649957 C46.0070056,96.7149518 46.1686205,96.8323738 46.3621331,96.9150179 C46.5564963,96.997662 46.781056,97.0387971 47.0336857,97.0387971 C47.3097069,97.0387971 47.547451,96.9913048 47.7439407,96.8959462 C47.9408557,96.7994657 48.1011948,96.671573 48.2253831,96.511894 C48.3478702,96.3507193 48.4393102,96.1700988 48.4992778,95.9681629 C48.557119,95.766601 48.5868901,95.5564381 48.5868901,95.339544 M47.0336857,97.4576271 C46.7393764,97.4527657 46.464631,97.4067692 46.2081736,97.3185157 C45.9529922,97.2306362 45.7284325,97.09863 45.5374717,96.922123 C45.3465109,96.7471119 45.1942526,96.5261043 45.0828234,96.2624658 C44.9713942,95.9995752 44.9152542,95.6906881 44.9152542,95.339544 C44.9152542,95.0441193 44.959911,94.7692621 45.0475233,94.5123547 C45.1355609,94.2561953 45.2674047,94.032944 45.4443305,93.8411049 C45.6212563,93.6500137 45.8424135,93.4981878 46.1069517,93.387497 C46.3714898,93.2756844 46.6806846,93.220339 47.0336857,93.220339 C47.3922156,93.220339 47.7043876,93.2756844 47.969351,93.387497 C48.2338891,93.4981878 48.4546211,93.6485179 48.6306963,93.8369914 C48.8076221,94.0262128 48.9386152,94.2498381 49.024101,94.5089891 C49.1091615,94.7681402 49.1525424,95.0441193 49.1525424,95.339544 C49.1525424,95.6600237 49.1015061,95.9502131 49.0019853,96.2082423 C48.9020392,96.4670194 48.7595629,96.6895228 48.5741311,96.8757526 C48.3886992,97.0623563 48.1645648,97.2055812 47.9034291,97.3069231 C47.6405922,97.4075171 47.3513866,97.4576271 47.0336857,97.4576271" id="Fill-12" fill="#173430" mask="url(#mask-2)"></path>
                <path d="M53.7432028,93.220339 L54.2372881,93.220339 L54.2372881,97.3459478 L53.7432028,97.3459478 L53.7432028,96.7725842 C53.6768213,96.8466532 53.6024899,96.9237925 53.5198111,97.0032345 C53.4379273,97.0826764 53.3433237,97.1563617 53.2356028,97.2227552 C53.1274843,97.2891488 53.0034661,97.3447965 52.8603682,97.3893147 C52.7172703,97.4342167 52.5523102,97.4576271 52.365488,97.4576271 C52.0788946,97.4576271 51.8403981,97.4192494 51.6484084,97.3421101 C51.4548288,97.2657383 51.2994085,97.1571293 51.1821477,97.0189694 C51.0628995,96.8811932 50.9778357,96.721158 50.925764,96.5384798 C50.8732947,96.3546504 50.8474576,96.1543185 50.8474576,95.9367166 L50.8474576,93.220339 L51.3423379,93.220339 L51.3423379,95.9282735 C51.3423379,96.2840353 51.4270042,96.5557498 51.5979267,96.7445684 C51.7688492,96.9337707 52.0490826,97.02818 52.4394219,97.02818 C52.6429389,97.02818 52.8253887,96.9886509 52.9879639,96.9122792 C53.1501415,96.8359075 53.286482,96.7276822 53.3965879,96.5891385 C53.5062963,96.4513623 53.5913601,96.286338 53.6521767,96.0952167 C53.7121983,95.9040955 53.7432028,95.6941692 53.7432028,95.4658215 L53.7432028,93.220339 Z" id="Fill-13" fill="#173430" mask="url(#mask-2)"></path>
                <path d="M55.7440759,97.4576271 L55.0847458,97.4576271 L55.0847458,93.3320081 L55.7440759,93.3320081 L55.7440759,94.1044824 L55.7663542,94.1044824 C55.9493541,93.7748473 56.1864584,93.5457529 56.4760756,93.4152803 C56.7662233,93.2855753 57.1507884,93.220339 57.6271186,93.220339 L57.6271186,93.738008 C57.2521014,93.7330194 56.9444494,93.7748473 56.7020408,93.8657944 C56.4601626,93.955974 56.2676148,94.0780042 56.1243975,94.2322688 C55.9811802,94.3861496 55.8819889,94.56766 55.8262933,94.7775673 C55.7711281,94.9874746 55.7440759,95.2065918 55.7440759,95.4349188 L55.7440759,97.4576271 Z" id="Fill-14" fill="#173430" mask="url(#mask-2)"></path>
                <path d="M60.6766252,96.0918216 C60.7542763,96.4381348 60.893568,96.6834712 61.0961012,96.8252128 C61.2982342,96.9680764 61.5876247,97.0383862 61.9646728,97.0383862 C62.1475931,97.0383862 62.3048966,97.0178168 62.4377841,96.9766781 C62.5702712,96.9351654 62.6803437,96.8794411 62.766,96.8095053 C62.8516564,96.7399435 62.9168993,96.6606579 62.9613286,96.5727707 C63.0049573,96.4852574 63.027372,96.3917603 63.027372,96.2934013 C63.027372,96.0966835 62.9593272,95.950828 62.8240382,95.854713 C62.6875484,95.759346 62.5178367,95.6838003 62.3137024,95.63032 C62.1083673,95.5757177 61.8866214,95.5293431 61.6484647,95.4904483 C61.4099077,95.4511796 61.1889623,95.3932114 60.9840275,95.3161698 C60.7786924,95.2376322 60.6085804,95.1269316 60.4732914,94.9821982 C60.3368016,94.8370907 60.2691571,94.632519 60.2691571,94.3688572 C60.2691571,94.0326417 60.4016443,93.7562643 60.6642171,93.541969 C60.9279906,93.3269257 61.299435,93.220339 61.7817524,93.220339 C62.2468584,93.220339 62.6247071,93.317576 62.9156985,93.5109279 C63.2062897,93.7054019 63.3828059,94.0300238 63.4428454,94.4851676 L62.9365122,94.4851676 C62.8924833,94.1743833 62.766,93.9563481 62.5586636,93.828818 C62.3509269,93.70241 62.0887544,93.638832 61.7725463,93.638832 C61.4575391,93.638832 61.2165805,93.70241 61.0504712,93.828818 C60.8839616,93.9563481 60.8011071,94.1223989 60.8011071,94.3295885 C60.8011071,94.5105988 60.8691519,94.6489745 61.0040407,94.7447155 C61.1405305,94.8400826 61.3106424,94.9182461 61.5163778,94.9777103 C61.7201118,95.0379224 61.942258,95.0906548 62.1800144,95.1366553 C62.4185714,95.1837779 62.6391165,95.2495998 62.8444516,95.3348692 C63.0497868,95.4201385 63.2198987,95.5357009 63.3547875,95.6800604 C63.4912773,95.8255419 63.559322,96.0263737 63.559322,96.2859216 C63.559322,96.4770296 63.5144925,96.6471943 63.4264346,96.7945458 C63.3375761,96.9411492 63.2162963,97.0645654 63.0605939,97.1632983 C62.9056919,97.2612832 62.7219711,97.3349589 62.5082304,97.3843254 C62.29489,97.4329439 62.0603357,97.4576271 61.8065687,97.4576271 C61.5520012,97.4576271 61.3262527,97.4235942 61.1293231,97.3532844 C60.9327938,97.2833485 60.7654837,97.1861116 60.6269926,97.0626954 C60.4881012,96.9377833 60.3804303,96.7926758 60.3031795,96.627373 C60.2255284,96.4616961 60.1806989,96.2829297 60.1694915,96.0918216 L60.6766252,96.0918216 Z" id="Fill-15" fill="#173430" mask="url(#mask-2)"></path>
                <path d="M66.4550673,93.220339 L66.9491525,93.220339 L66.9491525,97.3459478 L66.4550673,97.3459478 L66.4550673,96.7725842 C66.3882882,96.8466532 66.3143543,96.9237925 66.232073,97.0032345 C66.1497917,97.0826764 66.0551881,97.1563617 65.9466722,97.2227552 C65.8397462,97.2891488 65.7153306,97.3447965 65.5722326,97.3893147 C65.4295322,97.4342167 65.2641746,97.4576271 65.0773524,97.4576271 C64.7907591,97.4576271 64.5522625,97.4192494 64.3598753,97.3421101 C64.1666932,97.2657383 64.0112729,97.1571293 63.8936147,97.0189694 C63.7747639,96.8811932 63.6897001,96.721158 63.6376284,96.5384798 C63.5851592,96.3546504 63.559322,96.1543185 63.559322,95.9367166 L63.559322,93.220339 L64.0538048,93.220339 L64.0538048,95.9282735 C64.0538048,96.2840353 64.1392661,96.5557498 64.3097911,96.7445684 C64.4807136,96.9337707 64.760947,97.02818 65.1512863,97.02818 C65.3548033,97.02818 65.5372532,96.9886509 65.6998283,96.9122792 C65.8620059,96.8359075 65.9983464,96.7276822 66.1080548,96.5891385 C66.2181607,96.4513623 66.3032245,96.286338 66.3640411,96.0952167 C66.4240627,95.9040955 66.4550673,95.6941692 66.4550673,95.4658215 L66.4550673,93.220339 Z" id="Fill-16" fill="#173430" mask="url(#mask-2)"></path>
                <path d="M71.4001651,94.5941297 C71.3014072,94.294244 71.134006,94.0597947 70.8939757,93.8919035 C70.6548311,93.7236385 70.3519146,93.639132 69.9852262,93.639132 C69.7026813,93.639132 69.4604366,93.6888637 69.2580494,93.7875792 C69.0561051,93.8855469 68.891361,94.0164197 68.7620458,94.1790759 C68.6331734,94.3417321 68.5384013,94.5260758 68.4768437,94.7294896 C68.4161718,94.9340251 68.3851716,95.1400564 68.3851716,95.3468354 C68.3851716,95.5592233 68.4135147,95.7663763 68.472858,95.9679205 C68.5308727,96.1694646 68.6243162,96.350443 68.7527457,96.5112296 C68.8816181,96.6712684 69.0476907,96.7991499 69.2491922,96.8956218 C69.4511366,96.990972 69.6964812,97.0380862 69.9852262,97.0380862 C70.3944292,97.0380862 70.7239173,96.942736 70.9728048,96.7512878 C71.2203638,96.5605874 71.3784649,96.2958504 71.4462226,95.9596942 L72.0338983,95.9596942 C71.9851837,96.182178 71.9067974,96.3859656 71.7996252,96.5691876 C71.692453,96.7527835 71.5551662,96.9098309 71.3859936,97.0433211 C71.2177066,97.174194 71.0170909,97.2773965 70.7841463,97.3491896 C70.5507589,97.4217306 70.2845998,97.4576271 69.9852262,97.4576271 C69.6048091,97.4576271 69.2766496,97.4037823 69.0011904,97.294597 C68.7252884,97.1865334 68.4985439,97.0373384 68.3209569,96.8481337 C68.1424841,96.6593029 68.0109546,96.4356973 67.9250397,96.1769431 C67.8400105,95.9189366 67.7966102,95.6422341 67.7966102,95.3468354 C67.7966102,95.0675154 67.8444391,94.7994131 67.9400969,94.5429024 C68.0330976,94.2878873 68.1739272,94.0605425 68.3577143,93.8646072 C68.5415013,93.667924 68.7695744,93.5112506 69.0419336,93.3949607 C69.3156213,93.2786709 69.6287236,93.220339 69.9852262,93.220339 C70.5357016,93.220339 70.9825478,93.3325157 71.3222217,93.5546256 C71.6623384,93.7763615 71.8744686,94.1233615 71.9608263,94.5941297 L71.4001651,94.5941297 Z" id="Fill-17" fill="#173430" mask="url(#mask-2)"></path>
                <path d="M76.4848446,94.5941297 C76.3869622,94.294244 76.2186577,94.0597947 75.9790452,93.8919035 C75.7398756,93.7236385 75.4364845,93.639132 75.0697578,93.639132 C74.7871833,93.639132 74.5457992,93.6888637 74.3433909,93.7875792 C74.1409825,93.8855469 73.9762212,94.0164197 73.8468925,94.1790759 C73.7180066,94.3417321 73.6232246,94.5260758 73.5616606,94.7294896 C73.5005395,94.9340251 73.4704218,95.1400564 73.4704218,95.3468354 C73.4704218,95.5592233 73.4983249,95.7663763 73.5576744,95.9679205 C73.6152523,96.1694646 73.7087056,96.350443 73.8371485,96.5112296 C73.9664773,96.6712684 74.1321244,96.7991499 74.3336469,96.8956218 C74.5356124,96.990972 74.7809827,97.0380862 75.0697578,97.0380862 C75.4790036,97.0380862 75.808969,96.942736 76.0574397,96.7512878 C76.3050245,96.5605874 76.4631422,96.2958504 76.5309069,95.9596942 L77.1186441,95.9596942 C77.0699243,96.182178 76.9919728,96.3859656 76.8852323,96.5691876 C76.777163,96.7527835 76.639862,96.9098309 76.4711145,97.0433211 C76.30281,97.174194 76.1017303,97.2773965 75.8692043,97.3491896 C75.6353496,97.4217306 75.3696056,97.4576271 75.0697578,97.4576271 C74.6897439,97.4576271 74.3611071,97.4037823 74.0856192,97.294597 C73.8105741,97.1865334 73.583363,97.0373384 73.4057574,96.8481337 C73.227266,96.6593029 73.0957228,96.4356973 73.009356,96.1769431 C72.9243179,95.9189366 72.8813559,95.6422341 72.8813559,95.3468354 C72.8813559,95.0675154 72.9291899,94.7994131 73.0248577,94.5429024 C73.118311,94.2878873 73.2582695,94.0605425 73.4420758,93.8646072 C73.6267679,93.667924 73.8548648,93.5112506 74.1268095,93.3949607 C74.4000829,93.2786709 74.7132179,93.220339 75.0697578,93.220339 C75.6207337,93.220339 76.0676265,93.3325157 76.407336,93.5546256 C76.7474883,93.7763615 76.9591977,94.1233615 77.0455645,94.5941297 L76.4848446,94.5941297 Z" id="Fill-18" fill="#173430" mask="url(#mask-2)"></path>
                <path d="M80.773226,95.0594021 C80.773226,94.8630409 80.741687,94.6779003 80.6777329,94.5039803 C80.6137788,94.3304344 80.5204759,94.1804518 80.395634,94.0544066 C80.2721063,93.9279874 80.1157254,93.8262536 79.9282435,93.7518234 C79.7403236,93.6766451 79.5248071,93.6388689 79.282132,93.6388689 C79.0394569,93.6388689 78.8270067,93.6781411 78.6417151,93.7555636 C78.4564234,93.832612 78.2991664,93.9358419 78.1690681,94.0652533 C78.0380936,94.1950387 77.9338397,94.3450213 77.8549922,94.515949 C77.7761447,94.6868768 77.7248938,94.8679031 77.7003634,95.0594021 L80.773226,95.0594021 Z M77.7003634,95.4472622 C77.7003634,95.6649427 77.7336546,95.8702804 77.800675,96.0647715 C77.8672573,96.2592626 77.9658167,96.4271982 78.0967912,96.5689523 C78.2268896,96.7118285 78.3915932,96.825531 78.5917783,96.9108079 C78.7919634,96.9964588 79.0214972,97.0387232 79.282132,97.0387232 C79.639574,97.0387232 79.9453271,96.9590566 80.2011435,96.7982274 C80.4552077,96.6373982 80.6247298,96.4099933 80.7097099,96.1145164 L81.3185879,96.1145164 C81.2524436,96.3067634 81.1643972,96.4836755 81.0557628,96.6474968 C80.9462524,96.8098221 80.8095834,96.9526983 80.6470699,97.0735072 C80.4828043,97.1950641 80.2883138,97.2900655 80.0644745,97.3570154 C79.8397591,97.4243392 79.5791243,97.4576271 79.282132,97.4576271 C78.9062922,97.4576271 78.5830175,97.403768 78.3092414,97.2956759 C78.0367795,97.1864616 77.8125021,97.0379751 77.6368474,96.8487203 C77.4607546,96.6598395 77.3315323,96.4372968 77.2456762,96.1810922 C77.1606961,95.9245135 77.1186441,95.6492338 77.1186441,95.3537569 C77.1186441,95.0594021 77.1685808,94.7822522 77.2680163,94.5230554 C77.3687659,94.2653547 77.5111294,94.0386977 77.6968591,93.8445807 C77.8803986,93.6497155 78.1059901,93.4978628 78.3731955,93.3860305 C78.6395248,93.2753201 78.9426497,93.220339 79.282132,93.220339 C79.9313098,93.220339 80.4398762,93.4103418 80.8095834,93.7899735 C81.1792906,94.1707273 81.3610779,94.7235309 81.3558214,95.4472622 L77.7003634,95.4472622 Z" id="Fill-19" fill="#173430" mask="url(#mask-2)"></path>
                <path d="M82.7101233,96.0918216 C82.7877744,96.4381348 82.927066,96.6834712 83.1295993,96.8252128 C83.3317323,96.9680764 83.6211227,97.0383862 83.9981708,97.0383862 C84.1810912,97.0383862 84.3383947,97.0178168 84.4712821,96.9766781 C84.6037693,96.9351654 84.7138417,96.8794411 84.7994981,96.8095053 C84.8855547,96.7399435 84.9503974,96.6606579 84.9948266,96.5727707 C85.0384553,96.4852574 85.0608701,96.3917603 85.0608701,96.2934013 C85.0608701,96.0966835 84.9928253,95.950828 84.8575363,95.854713 C84.721847,95.759346 84.5513348,95.6838003 84.3472005,95.63032 C84.1418653,95.5757177 83.9201194,95.5293431 83.6819627,95.4904483 C83.443806,95.4511796 83.2228606,95.3932114 83.0179258,95.3161698 C82.8121904,95.2376322 82.6420785,95.1269316 82.5067895,94.9821982 C82.3711002,94.8370907 82.3026551,94.632519 82.3026551,94.3688572 C82.3026551,94.0326417 82.4351423,93.7562643 82.6977151,93.541969 C82.9614887,93.3269257 83.3329331,93.220339 83.8152504,93.220339 C84.2803565,93.220339 84.6582051,93.317576 84.9495968,93.5109279 C85.2397878,93.7054019 85.4163039,94.0300238 85.4763434,94.4851676 L84.9700103,94.4851676 C84.9259813,94.1743833 84.7994981,93.9563481 84.5921616,93.828818 C84.384425,93.70241 84.1222524,93.638832 83.8060444,93.638832 C83.4914374,93.638832 83.2500786,93.70241 83.0839693,93.828818 C82.91786,93.9563481 82.8346052,94.1223989 82.8346052,94.3295885 C82.8346052,94.5105988 82.9026499,94.6489745 83.0375387,94.7447155 C83.1740285,94.8400826 83.3445407,94.9182461 83.5498758,94.9777103 C83.7540101,95.0379224 83.975756,95.0906548 84.214313,95.1366553 C84.4520695,95.1837779 84.6726146,95.2495998 84.8779497,95.3348692 C85.0832848,95.4201385 85.2533967,95.5357009 85.389086,95.6800604 C85.5247753,95.8255419 85.5932203,96.0263737 85.5932203,96.2859216 C85.5932203,96.4770296 85.5483908,96.6471943 85.4599326,96.7945458 C85.3714744,96.9411492 85.2501946,97.0645654 85.0940919,97.1632983 C84.93919,97.2612832 84.7554691,97.3349589 84.5417285,97.3843254 C84.3287883,97.4329439 84.0946343,97.4576271 83.840467,97.4576271 C83.5858995,97.4576271 83.3597507,97.4235942 83.1628211,97.3532844 C82.9662918,97.2833485 82.7989817,97.1861116 82.6608909,97.0626954 C82.5215992,96.9377833 82.4139284,96.7926758 82.3366775,96.627373 C82.2590264,96.4616961 82.2145972,96.2829297 82.2033898,96.0918216 L82.7101233,96.0918216 Z" id="Fill-20" fill="#173430" mask="url(#mask-2)"></path>
                <path d="M86.9474712,96.0918216 C87.0251315,96.4381348 87.1644396,96.6834712 87.3669968,96.8252128 C87.5691537,96.9680764 87.8585783,97.0383862 88.2352706,97.0383862 C88.4186128,97.0383862 88.5755346,97.0178168 88.7088381,96.9766781 C88.8409406,96.9351654 88.9514263,96.8794411 89.0370928,96.8095053 C89.122359,96.7399435 89.1876096,96.6606579 89.2324444,96.5727707 C89.2760782,96.4852574 89.2984956,96.3917603 89.2984956,96.2934013 C89.2984956,96.0966835 89.2304428,95.950828 89.0951378,95.854713 C88.9586319,95.759346 88.7889002,95.6838003 88.5847418,95.63032 C88.3793824,95.5757177 88.1576103,95.5293431 87.9194255,95.4904483 C87.6808403,95.4511796 87.4598689,95.3932114 87.2549098,95.3161698 C87.0495505,95.2376322 86.8794184,95.1269316 86.7441134,94.9821982 C86.6076075,94.8370907 86.539955,94.632519 86.539955,94.3688572 C86.539955,94.0326417 86.6720575,93.7562643 86.9346613,93.541969 C87.1980657,93.3269257 87.5703546,93.220339 88.0523286,93.220339 C88.5170893,93.220339 88.8957831,93.317576 89.1864087,93.5109279 C89.4774345,93.7054019 89.6535712,94.0300238 89.7136178,94.4851676 L89.2072248,94.4851676 C89.1631906,94.1743833 89.0370928,93.9563481 88.8297319,93.828818 C88.6219706,93.70241 88.3597672,93.638832 88.0435218,93.638832 C87.7284773,93.638832 87.4874903,93.70241 87.3209611,93.828818 C87.1548321,93.9563481 87.0719678,94.1223989 87.0719678,94.3295885 C87.0719678,94.5105988 87.1396203,94.6489745 87.2749253,94.7447155 C87.4114313,94.8400826 87.5815633,94.9182461 87.7869227,94.9777103 C87.9906808,95.0379224 88.2128532,95.0906548 88.4514383,95.1366553 C88.6896231,95.1837779 88.9101943,95.2495998 89.1155537,95.3348692 C89.320913,95.4201385 89.4910451,95.5357009 89.6259497,95.6800604 C89.7624557,95.8255419 89.8305085,96.0263737 89.8305085,96.2859216 C89.8305085,96.4770296 89.786074,96.6471943 89.6976053,96.7945458 C89.6087364,96.9411492 89.4870419,97.0645654 89.3317214,97.1632983 C89.1768012,97.2612832 88.9930586,97.3349589 88.7788924,97.3843254 C88.5663275,97.4329439 88.3313451,97.4576271 88.0779485,97.4576271 C87.8229506,97.4576271 87.5971754,97.4235942 87.3998223,97.3532844 C87.20367,97.2833485 87.0359399,97.1861116 86.8978327,97.0626954 C86.7589249,96.9377833 86.6508411,96.7926758 86.5735811,96.627373 C86.4963211,96.4616961 86.451086,96.2829297 86.440678,96.0918216 L86.9474712,96.0918216 Z" id="Fill-21" fill="#173430" mask="url(#mask-2)"></path>
                <path d="M15.5614555,85.3072121 C14.2263038,83.9876988 13.559322,82.39122 13.559322,80.5194292 C13.559322,78.6476384 14.2263038,77.0449588 15.5614555,75.709737 C16.878388,74.3889836 18.4800948,73.7288136 20.3657838,73.7288136 C21.9171897,73.7288136 23.226993,74.091349 24.2944014,74.8168333 C25.3614138,75.5278492 26.0204742,76.4860672 26.2711864,77.689007 L25.2703177,77.689007 C25.0865413,76.7907293 24.5284787,76.0433358 23.5933576,75.4480666 C22.6768518,74.8540376 21.6003338,74.5555763 20.3657838,74.5555763 C18.764077,74.5555763 17.3964475,75.1359637 16.2624993,76.297152 C15.1269668,77.4723952 14.7162423,78.8795453 14.7162423,80.5194292 C14.7162423,82.1597264 15.1269668,83.5664632 16.2624993,84.7417064 C17.3964475,85.9020679 18.764077,86.4828687 20.3657838,86.4828687 C21.7330172,86.4828687 22.8594401,86.1339748 23.7438642,85.438254 C24.6449233,84.7417064 25.1538732,83.8128385 25.2703177,82.6528904 L26.2711864,82.6528904 C26.1369187,84.0600405 25.5289514,85.1840245 24.4445119,86.0256689 C23.3767074,86.8673134 22.0173954,87.2881356 20.3657838,87.2881356 C18.4800948,87.2881356 16.878388,86.6283789 15.5614555,85.3072121" id="Fill-22" fill="#173430" mask="url(#mask-2)"></path>
                <path d="M38.9312756,84.8630442 C39.9751133,83.8048149 40.338099,82.3860255 40.338099,80.6075134 C40.338099,78.7846119 39.9751133,77.3226893 38.9312756,76.2192329 C37.8866249,75.1178704 36.4919959,74.5659328 34.7453562,74.5659328 C32.999123,74.5659328 31.6036811,75.1178704 30.5598433,76.2192329 C29.5147862,77.3226893 29.15302,78.7846119 29.15302,80.6075134 C29.15302,82.3860255 29.5147862,83.8048149 30.5598433,84.8630442 C31.6036811,85.9363492 32.999123,86.4727923 34.7453562,86.4727923 C36.4919959,86.4727923 37.8866249,85.9363492 38.9312756,84.8630442 M29.8147676,85.458115 C28.5823237,84.2386596 27.9661017,82.6209549 27.9661017,80.6075134 C27.9661017,78.5203687 28.5823237,76.8524117 29.8147676,75.6028049 C31.0472115,74.3531982 32.691012,73.7288136 34.7453562,73.7288136 C36.8001069,73.7288136 38.4439074,74.3531982 39.6763514,75.6028049 C40.9087953,76.8524117 41.5254237,78.5203687 41.5254237,80.6075134 C41.5254237,82.6209549 40.9087953,84.2386596 39.6763514,85.458115 C38.4439074,86.6784079 36.8001069,87.2881356 34.7453562,87.2881356 C32.691012,87.2881356 31.0472115,86.6784079 29.8147676,85.458115" id="Fill-23" fill="#173430" mask="url(#mask-2)"></path>
                <polygon id="Fill-24" fill="#173430" mask="url(#mask-2)" points="49.1784726 86.440678 44.9152542 73.7288136 46.144563 73.7288136 49.8887207 84.9835079 52.1189514 75.0129472 53.7860013 75.0129472 56.0434827 84.9835079 59.7872079 73.7288136 61.0169492 73.7288136 56.7545958 86.440678 55.3055514 86.440678 52.966318 76.5564319 50.6266519 86.440678"></polygon>
                <polygon id="Fill-25" fill="#52B346" mask="url(#mask-2)" points="42.3728814 82.2033898 44.9152542 80.9322034 42.3728814 79.6610169"></polygon>
                <path d="M61.2233048,75.205214 L61.2233048,75.0370525 L61.2233048,74.9991857 C61.2333173,74.7691343 61.4172966,74.5838717 61.6505038,74.5651419 L61.7293521,74.5651419 L62.006364,74.5651419 L62.2646025,74.5651419 L69.4915254,74.5651419 L69.4915254,73.7288136 L61.2270595,73.7288136 C60.6425811,73.7288136 60.1694915,74.1913593 60.1694915,74.7605837 L60.1694915,85.4089078 C60.1694915,85.9781322 60.6425811,86.440678 61.2270595,86.440678 L69.4915254,86.440678 L69.4915254,85.6259297 L62.2604306,85.6259297 L62.006364,85.6259297 L61.6922225,85.6259297 L61.6876335,85.6259297 C61.4377387,85.6251154 61.2345688,85.4321165 61.2233048,85.1906644 L61.2233048,85.1483187 L61.2233048,84.9903365 L61.2233048,84.3767305 L61.2233048,80.2459853 L68.7009569,80.2459853 L68.7009569,79.4528171 L61.2233048,79.4528171 L61.2233048,75.7923539 L61.2233048,75.205214 Z" id="Fill-26" fill="#173430" mask="url(#mask-2)"></path>
                <path d="M72.5070704,85.6259297 L71.9241433,85.6259297 C71.6693309,85.6251154 71.4638229,85.442703 71.4420068,85.2098014 L71.4420068,84.3966818 L71.4420068,73.7288136 L70.3389831,73.7288136 L70.3389831,85.4182727 C70.3389831,85.9805753 70.8320277,86.440678 71.4354619,86.440678 L79.6610169,86.440678 L79.6610169,85.6259297 L72.5070704,85.6259297 Z" id="Fill-27" fill="#173430" mask="url(#mask-2)"></path>
                <path d="M82.6765619,85.6259297 L82.0949438,85.6259297 C81.8379498,85.6251154 81.6306965,85.4382241 81.6114983,85.2028795 L81.6114983,84.3966818 L81.6114983,73.7288136 L80.5084746,73.7288136 L80.5084746,85.4182727 C80.5084746,85.9805753 81.0015192,86.440678 81.6049535,86.440678 L89.8305085,86.440678 L89.8305085,85.6259297 L82.6765619,85.6259297 Z" id="Fill-28" fill="#173430" mask="url(#mask-2)"></path>
                <polygon id="Fill-29" fill="#183431" mask="url(#mask-2)" points="50.8474576 37.7323703 60.1893056 27.9661017 69.4915254 37.6913585 60.1500777 47.4576271"></polygon>
                <polygon id="Fill-30" fill="#52B346" mask="url(#mask-2)" points="41.8514569 27.9661017 32.2033898 37.6143072 51.3688821 56.779661 61.0169492 47.1314555"></polygon>
                <polygon id="Fill-31" fill="#52B346" mask="url(#mask-2)" points="79.4050451 27.9661017 60.1694915 47.2017922 69.7470852 56.779661 88.9830508 37.5439705"></polygon>
                <polygon id="Fill-32" fill="#183431" mask="url(#mask-2)" points="41.3436179 9.3220339 12.7118644 38.2212465 41.1747171 66.9491525 50.718635 57.3171824 31.7596219 38.1812062 50.8474576 18.9147892"></polygon>
            </g>
        </g>
    </g>
</svg>