<?xml version="1.0" encoding="UTF-8"?>
<svg width="24px" height="24px" viewBox="0 0 24 24" version="1.1" xmlns="http://www.w3.org/2000/svg" xmlns:xlink="http://www.w3.org/1999/xlink">
    <!-- Generator: Sketch 46.2 (44496) - http://www.bohemiancoding.com/sketch -->
    <title>about ú</title>
    <desc>Created with Sketch.</desc>
    <defs>
        <polygon id="path-1" points="21.8198425 5.4295933 21.8198425 0.0442952858 4.66916855e-20 0.0442952858 0 5.4295933 21.8198425 5.4295933"></polygon>
    </defs>
    <g id="jhef" stroke="none" stroke-width="1" fill="none" fill-rule="evenodd">
        <g id="about-ú">
            <g id="Page-1" transform="translate(1.000000, 5.000000)">
                <path d="M15.9432587,2.3049554 C16.0799752,2.15874191 16.2649446,2.07815179 16.4648495,2.07815179 L17.2265559,2.07815179 L17.084095,2.4603792 C17.0186089,2.55478477 16.686583,2.96349179 15.769778,3.10970529 L15.7525448,2.84030404 C15.7387583,2.64113132 15.807691,2.45001762 15.9432587,2.3049554 L15.9432587,2.3049554 Z M18.2352712,2.79425254 C18.1020013,2.75165491 18.0342175,2.72172144 18.0043466,2.7067547 C17.9767735,2.69178797 17.953796,2.67797252 17.9354139,2.66645964 L18.0629394,2.32798115 C18.1743806,2.45922791 18.2364201,2.62155944 18.2352712,2.79425254 L18.2352712,2.79425254 Z M17.5172222,6.13183468 C17.1886429,6.3125868 16.7968754,6.3125868 16.469445,6.13183468 C16.1431635,5.95223385 15.9329187,5.62181437 15.9087923,5.24879726 L15.8260731,3.98238113 C16.5969705,3.87300883 17.0978815,3.60821273 17.4092276,3.36183723 C17.4678204,3.40328357 17.5333065,3.44357863 17.6045369,3.48041983 C17.7378068,3.54834578 17.9273718,3.61742303 18.1789762,3.68534898 L18.076726,5.24879726 C18.0537484,5.62181437 17.8435036,5.95223385 17.5172222,6.13183468 L17.5172222,6.13183468 Z M14.9310967,3.6197256 L14.9310967,3.6197256 L15.0413891,5.30521034 C15.0850464,5.97641089 15.4618786,6.57162646 16.0512532,6.89513822 C16.346515,7.05862103 16.6693498,7.13921115 16.9933336,7.13921115 C17.3161684,7.13921115 17.641301,7.05862103 17.9354139,6.89513822 C18.5247886,6.57162646 18.9016207,5.97641089 18.9452781,5.30521034 L19.0716547,3.37910654 L19.1015256,2.89786841 C19.1302475,2.46153049 18.9762978,2.02749514 18.6775894,1.70858854 C18.378881,1.38968193 17.9583915,1.20662724 17.5218177,1.20662724 L16.4648495,1.20662724 C16.0282757,1.20662724 15.6066373,1.38968193 15.3090777,1.70858854 C15.0103693,2.02749514 14.8564196,2.46153049 14.8851416,2.89786841 L14.9310967,3.6197256 Z" id="Fill-1" fill="#52B346"></path>
                <g id="Group-5" transform="translate(0.000000, 7.340316)">
                    <mask id="mask-2" fill="white">
                        <use xlink:href="#path-1"></use>
                    </mask>
                    <g id="Clip-4"></g>
                    <path d="M16.8136816,3.06478491 C16.4955713,2.14660192 15.8317887,1.38546146 14.9796664,0.938406068 C15.0864688,0.92121163 15.1932712,0.912041263 15.3000736,0.912041263 L15.6468942,0.912041263 L16.7149181,1.97809643 C16.7964554,2.05948343 16.906703,2.10533527 17.0226927,2.10533527 C17.137534,2.10533527 17.2477816,2.05948343 17.3293189,1.97809643 L18.3973428,0.912041263 L18.7441635,0.912041263 C18.8727857,0.912041263 19.0014079,0.924650517 19.1288817,0.947576435 C19.9660746,1.10576527 20.6298572,1.77405576 20.7825961,2.61085175 L20.8641334,3.06478491 L16.8136816,3.06478491 Z M5.5580881,4.56299362 L5.70049128,3.77663465 C5.90261193,2.66358136 6.74325007,1.7625928 7.82505489,1.47028735 L10.5950265,4.235153 C10.7649916,4.40595109 11.0406106,4.40595109 11.2105757,4.235153 L13.9805473,1.47028735 C15.0623521,1.7625928 15.9029903,2.66358136 16.1051109,3.77663465 L16.2475141,4.56299362 L5.5580881,4.56299362 Z M1.03793546,2.61085175 C1.18952594,1.77405576 1.85445693,1.10576527 2.69164984,0.947576435 C2.81682683,0.924650517 2.94659747,0.912041263 3.07636811,0.912041263 L3.42318877,0.912041263 L4.49006423,1.97809643 C4.66002931,2.14660192 4.93564838,2.14660192 5.10561347,1.97809643 L6.17248892,0.912041263 L6.52045799,0.912041263 C6.62266673,0.912041263 6.72602388,0.920065334 6.82938103,0.936113476 C5.97611034,1.38316887 5.31117935,2.14545562 4.9919206,3.06478491 L0.955249737,3.06478491 L1.03793546,2.61085175 Z M10.5984717,2.60282768 C10.7684368,2.76904058 11.041759,2.76789428 11.2105757,2.59938879 L12.4370806,1.36941332 L12.8516576,1.36941332 L10.9028011,3.31582371 L8.95394464,1.36941332 L9.34095974,1.36941332 L10.5984717,2.60282768 Z M21.8138708,3.42128293 L21.6381636,2.4572481 C21.422262,1.26853928 20.4782667,0.31826 19.2896595,0.0947323043 C19.1105071,0.061489724 18.9267611,0.0442952858 18.7441635,0.0442952858 L18.217042,0.0442952858 C18.1022007,0.0442952858 17.9908047,0.0901471208 17.9092674,0.171534128 L17.0226927,1.05762084 L16.1349697,0.171534128 C16.0534323,0.0901471208 15.9420363,0.0442952858 15.827195,0.0442952858 L15.3000736,0.0442952858 C15.1174759,0.0442952858 14.9337299,0.061489724 14.7545775,0.0947323043 C14.3687108,0.16809524 14.0069608,0.315967408 13.6796632,0.531471032 C13.5257759,0.511984003 13.3718885,0.502813636 13.2180012,0.502813636 L12.2579282,0.502813636 C12.1419385,0.502813636 12.0305424,0.548665471 11.9501535,0.630052478 L10.8993559,1.68120579 L9.8232931,0.62661359 C9.7417558,0.547519175 9.63265658,0.502813636 9.51896372,0.502813636 L8.58760097,0.502813636 C8.43830731,0.502813636 8.28786524,0.511984003 8.13857158,0.530324737 C7.81127394,0.314821112 7.45067233,0.16809524 7.06480564,0.0947323043 C6.88565325,0.061489724 6.70190721,0.0442952858 6.52045799,0.0442952858 L5.99333653,0.0442952858 C5.87734684,0.0442952858 5.76709922,0.0901471208 5.68556191,0.171534128 L4.79783885,1.05762084 L3.91011578,0.171534128 C3.82857847,0.0901471208 3.71833085,0.0442952858 3.60348957,0.0442952858 L3.07636811,0.0442952858 C2.89262207,0.0442952858 2.71002444,0.061489724 2.52972364,0.0947323043 C1.34111643,0.31826 0.398269547,1.26853928 0.182367947,2.4572481 L0.00666079403,3.42128293 C-0.0163074613,3.54737548 0.0181449217,3.67805321 0.100830641,3.77663465 C0.18351636,3.8752161 0.305248113,3.93253089 0.435018755,3.93253089 L4.78979996,3.93253089 L4.61064757,4.91834534 C4.58767931,5.04558419 4.62213169,5.17511562 4.70481741,5.27484336 C4.78750313,5.37342481 4.90923488,5.4295933 5.03785711,5.4295933 L16.7677451,5.4295933 C16.8963673,5.4295933 17.0192475,5.37342481 17.1019332,5.27484336 C17.1834705,5.17511562 17.2190713,5.04558419 17.1949546,4.91834534 L17.0169507,3.93253089 L21.3843644,3.93253089 C21.514135,3.93253089 21.6358668,3.8752161 21.7185525,3.77663465 C21.8012382,3.67805321 21.8356906,3.54737548 21.8138708,3.42128293 L21.8138708,3.42128293 Z" id="Fill-3" fill="#52B346" mask="url(#mask-2)"></path>
                </g>
                <path d="M3.77734146,2.3049554 C3.91402949,2.15874191 4.09896035,2.07815179 4.29767487,2.07815179 L5.06037109,2.07815179 L4.91564259,2.46383306 C4.86050792,2.54096932 4.52625401,2.96003793 3.60389699,3.10970529 L3.58551877,2.84030404 C3.57288374,2.64113132 3.64065343,2.45001762 3.77734146,2.3049554 L3.77734146,2.3049554 Z M6.06887602,2.79425254 C5.93448527,2.75165491 5.86671558,2.72172144 5.83685097,2.7067547 C5.80928363,2.69178797 5.78631086,2.67797252 5.76793263,2.66645964 L5.89543155,2.32798115 C6.00799816,2.45922791 6.07002466,2.62155944 6.06887602,2.79425254 L6.06887602,2.79425254 Z M5.34982808,6.13183468 C5.022466,6.3125868 4.63078015,6.3125868 4.30341807,6.13183468 C3.97605599,5.95223385 3.76700371,5.62181437 3.74288229,5.24879726 L3.6601803,3.98238113 C4.42976834,3.87300883 4.93057489,3.60821273 5.24300467,3.36183723 C5.30158525,3.40328357 5.36705767,3.44242734 5.43827328,3.48041983 C5.57036675,3.54834578 5.75989216,3.61627174 6.01259272,3.68534898 L5.91036386,5.24879726 C5.88624244,5.62181437 5.67719016,5.95223385 5.34982808,6.13183468 L5.34982808,6.13183468 Z M2.76539061,3.6197256 L2.8745113,5.30521034 C2.91815958,5.97641089 3.29606177,6.57162646 3.88416488,6.89513822 C4.17936507,7.05862103 4.50213259,7.13921115 4.82719739,7.13921115 C5.14996492,7.13921115 5.47388108,7.05862103 5.76908127,6.89513822 C6.35718438,6.57162646 6.73508657,5.97641089 6.77758621,5.30521034 L6.90393648,3.37910654 L6.93494973,2.89786841 C6.96251707,2.46153049 6.80859946,2.02749514 6.50995335,1.70858854 C6.21245588,1.38968193 5.79090541,1.20662724 5.35557128,1.20662724 L4.29767487,1.20662724 C3.86234074,1.20662724 3.44079027,1.38968193 3.14214416,1.70858854 C2.84464669,2.02749514 2.68958044,2.46153049 2.71829642,2.89786841 L2.76539061,3.6197256 Z" id="Fill-6" fill="#52B346"></path>
                <path d="M9.40358122,1.21748797 C9.61415446,0.992791506 9.89871291,0.86783276 10.206036,0.86783276 L11.4341903,0.86783276 L11.1632906,1.59809626 C11.082476,1.72076218 10.5918973,2.38224105 9.14292569,2.57025238 L9.10877867,2.04748918 C9.0894287,1.73795834 9.19300797,1.44333084 9.40358122,1.21748797 L9.40358122,1.21748797 Z M12.7101503,2.04748918 L12.7021827,2.17244793 C12.4016889,2.08761355 12.255995,2.02456097 12.1888392,1.99016865 C12.0772923,1.93284813 12.0181042,1.88469889 11.9873719,1.85603862 L12.2730685,1.08908999 C12.3231508,1.12692154 12.3709566,1.17048514 12.4153478,1.21748797 C12.625921,1.44333084 12.7306385,1.73795834 12.7101503,2.04748918 L12.7101503,2.04748918 Z M11.6789105,6.5735179 C11.1974376,6.83948513 10.6226296,6.83948513 10.1411567,6.5735179 C9.66082205,6.30755066 9.35349893,5.8214726 9.31821369,5.27004914 L9.19869914,3.43693873 C10.3460388,3.29593023 11.0506055,2.88780809 11.4569549,2.5404457 C11.5502901,2.62069444 11.6629752,2.6929183 11.7927339,2.76170293 C11.9794042,2.85914783 12.260548,2.95544631 12.645271,3.05518402 L12.5018535,5.27004914 C12.46543,5.8214726 12.1581069,6.30755066 11.6789105,6.5735179 L11.6789105,6.5735179 Z M8.31201504,3.06894095 L8.45770896,5.32736966 C8.51234418,6.17456704 8.98698766,6.92546592 9.72570137,7.33358807 C10.0967656,7.53994196 10.503115,7.6419725 10.9094645,7.6419725 C11.3169522,7.6419725 11.7233016,7.53994196 12.0932276,7.33358807 C12.8330795,6.92546592 13.3065848,6.17456704 13.36122,5.32736966 L13.5285404,2.74794601 L13.570655,2.10251689 C13.604802,1.56026471 13.4135788,1.02145177 13.044791,0.62364732 C12.6760033,0.228135693 12.1546922,0 11.6140312,0 L10.206036,0 C9.66537498,0 9.14406392,0.228135693 8.77527618,0.62364732 C8.40648844,1.02145177 8.21412694,1.56026471 8.24941218,2.10251689 L8.31201504,3.06894095 Z" id="Fill-8" fill="#52B346"></path>
                <path d="M7.70810251,10.7590929 L6.5714749,10.7590929 C6.33005704,10.7590929 6.13368845,10.9471256 6.13368845,11.1782953 C6.13368845,11.4094649 6.33005704,11.5974977 6.5714749,11.5974977 L7.70810251,11.5974977 C7.94952036,11.5974977 8.14473384,11.4094649 8.14473384,11.1782953 C8.14473384,10.9471256 7.94952036,10.7590929 7.70810251,10.7590929" id="Fill-10" fill="#52B346"></path>
                <path d="M8.94854869,10.7590929 L8.86448699,10.7590929 C8.63331732,10.7590929 8.44639065,10.9471256 8.44639065,11.1782953 C8.44639065,11.4094649 8.63331732,11.5974977 8.86448699,11.5974977 L8.94854869,11.5974977 C9.17971836,11.5974977 9.36664502,11.4094649 9.36664502,11.1782953 C9.36664502,10.9471256 9.17971836,10.7590929 8.94854869,10.7590929" id="Fill-12" fill="#52B346"></path>
            </g>
        </g>
    </g>
</svg>