<?xml version="1.0" encoding="UTF-8"?>
<svg width="24px" height="24px" viewBox="0 0 24 24" version="1.1" xmlns="http://www.w3.org/2000/svg" xmlns:xlink="http://www.w3.org/1999/xlink">
    <!-- Generator: Sketch 46.2 (44496) - http://www.bohemiancoding.com/sketch -->
    <title>achive</title>
    <desc>Created with Sketch.</desc>
    <defs>
        <polygon id="path-1" points="0 18 15.061 18 15.061 0 0 0"></polygon>
    </defs>
    <g id="jhef" stroke="none" stroke-width="1" fill="none" fill-rule="evenodd">
        <g id="achive">
            <g id="Page-1" transform="translate(4.000000, 3.000000)">
                <polygon id="Fill-1" fill="#2C2F33" points="6.061 16.898 9 16.898 9 16.164 6.061 16.164"></polygon>
                <g id="Group-7">
                    <path d="M4.2243,2.0208 L4.9593,2.0208 L4.9593,1.2858 L3.8573,1.2858 C3.6543,1.2858 3.4903,1.4508 3.4903,1.6528 L3.4903,2.9388 L4.2243,2.9388 L4.2243,2.0208 Z" id="Fill-2" fill="#2C2F33"></path>
                    <mask id="mask-2" fill="white">
                        <use xlink:href="#path-1"></use>
                    </mask>
                    <g id="Clip-5"></g>
                    <polygon id="Fill-4" fill="#2C2F33" mask="url(#mask-2)" points="3.49 4.225 4.224 4.225 4.224 3.49 3.49 3.49"></polygon>
                    <path d="M14.3264,4.1878 C14.3104,4.2508 14.2484,4.4498 14.0514,4.6468 C13.7884,4.9128 13.3794,5.0748 12.8574,5.1248 L12.8574,0.7348 L14.3264,0.7348 L14.3264,4.1878 Z M12.1224,6.6128 C12.1224,6.8148 11.9574,6.9798 11.7554,6.9798 L3.3064,6.9798 C3.1034,6.9798 2.9384,6.8148 2.9384,6.6128 L2.9384,0.7348 L12.1224,0.7348 L12.1224,6.6128 Z M6.9794,13.5918 L8.0814,13.5918 L8.0814,7.7138 L6.9794,7.7138 L6.9794,13.5918 Z M11.2044,14.3268 C11.4064,14.3268 11.5714,14.4918 11.5714,14.6938 L11.5714,17.2648 L11.0204,17.2648 L11.0204,15.2448 C11.0204,15.0418 10.8564,14.8768 10.6534,14.8768 L4.4084,14.8768 C4.2054,14.8768 4.0404,15.0418 4.0404,15.2448 L4.0404,17.2648 L3.4904,17.2648 L3.4904,14.6938 C3.4904,14.4918 3.6544,14.3268 3.8574,14.3268 L11.2044,14.3268 Z M4.7754,17.2648 L10.2854,17.2648 L10.2854,15.6128 L4.7754,15.6128 L4.7754,17.2648 Z M2.2044,5.1248 C1.6814,5.0748 1.2734,4.9128 1.0094,4.6468 C0.8124,4.4498 0.7504,4.2508 0.7344,4.1878 L0.7344,0.7348 L2.2044,0.7348 L2.2044,5.1248 Z M14.6944,0.0008 L0.3674,0.0008 C0.1644,0.0008 0.0004,0.1648 0.0004,0.3678 L0.0004,4.2248 C0.0004,4.2418 0.0014,4.2588 0.0034,4.2768 C0.0104,4.3208 0.0764,4.7228 0.4424,5.1178 C0.9224,5.6338 1.6134,5.8148 2.2044,5.8628 L2.2044,6.6128 C2.2044,7.2198 2.6984,7.7138 3.3064,7.7138 L6.2444,7.7138 L6.2444,13.5918 L3.8574,13.5918 C3.2494,13.5918 2.7554,14.0858 2.7554,14.6938 L2.7554,17.2648 L1.8364,17.2648 L1.8364,18.0008 L13.2244,18.0008 L13.2244,17.2648 L12.3064,17.2648 L12.3064,14.6938 C12.3064,14.0858 11.8114,13.5918 11.2044,13.5918 L8.8164,13.5918 L8.8164,7.7138 L11.7554,7.7138 C12.3634,7.7138 12.8574,7.2198 12.8574,6.6128 L12.8574,5.8628 C13.4484,5.8148 14.1394,5.6338 14.6184,5.1178 C14.9854,4.7228 15.0514,4.3208 15.0574,4.2768 C15.0594,4.2588 15.0614,4.2418 15.0614,4.2248 L15.0614,0.3678 C15.0614,0.1648 14.8964,0.0008 14.6944,0.0008 L14.6944,0.0008 Z" id="Fill-6" fill="#2C2F33" mask="url(#mask-2)"></path>
                </g>
            </g>
        </g>
    </g>
</svg>