<?xml version="1.0" encoding="UTF-8"?>
<svg width="24px" height="24px" viewBox="0 0 24 24" version="1.1" xmlns="http://www.w3.org/2000/svg" xmlns:xlink="http://www.w3.org/1999/xlink">
    <!-- Generator: Sketch 46.2 (44496) - http://www.bohemiancoding.com/sketch -->
    <title>description</title>
    <desc>Created with Sketch.</desc>
    <defs>
        <polygon id="path-1" points="14.2027 0 0 0 0 17.9991 14.2027 17.9991 14.2027 0"></polygon>
    </defs>
    <g id="jhef" stroke="none" stroke-width="1" fill="none" fill-rule="evenodd">
        <g id="description">
            <g id="Page-1" transform="translate(5.000000, 3.000000)">
                <mask id="mask-2" fill="white">
                    <use xlink:href="#path-1"></use>
                </mask>
                <g id="Clip-2"></g>
                <path d="M8.086,7.349 L12.234,7.349 L12.234,6.716 L8.086,6.716 L8.086,7.349 Z M12.937,6.365 C12.937,6.17 12.78,6.013 12.586,6.013 L7.734,6.013 C7.541,6.013 7.383,6.17 7.383,6.365 L7.383,7.701 C7.383,7.894 7.541,8.052 7.734,8.052 L12.586,8.052 C12.78,8.052 12.937,7.894 12.937,7.701 L12.937,6.365 Z" id="Fill-1" fill="#2C2F33" mask="url(#mask-2)"></path>
                <path d="M12.5798,8.648 L8.8118,8.648 C8.6178,8.648 8.4608,8.806 8.4608,9 C8.4608,9.194 8.6178,9.351 8.8118,9.351 L12.5798,9.351 C12.7738,9.351 12.9318,9.194 12.9318,9 C12.9318,8.806 12.7738,8.648 12.5798,8.648" id="Fill-3" fill="#2C2F33" mask="url(#mask-2)"></path>
                <path d="M7.7341,9.3511 L7.7391,9.3511 C7.9331,9.3511 8.0901,9.1941 8.0901,8.9991 C8.0901,8.8061 7.9331,8.6481 7.7391,8.6481 L7.7341,8.6481 C7.5411,8.6481 7.3821,8.8061 7.3821,8.9991 C7.3821,9.1941 7.5411,9.3511 7.7341,9.3511" id="Fill-4" fill="#2C2F33" mask="url(#mask-2)"></path>
                <path d="M8.8122,10.1949 C8.6182,10.1949 8.4602,10.3519 8.4602,10.5469 C8.4602,10.7409 8.6182,10.8979 8.8122,10.8979 L12.5802,10.8979 C12.7742,10.8979 12.9312,10.7409 12.9312,10.5469 C12.9312,10.3519 12.7742,10.1949 12.5802,10.1949 L8.8122,10.1949 Z" id="Fill-5" fill="#2C2F33" mask="url(#mask-2)"></path>
                <path d="M7.7341,10.898 L7.7391,10.898 C7.9331,10.898 8.0901,10.741 8.0901,10.546 C8.0901,10.352 7.9331,10.195 7.7391,10.195 L7.7341,10.195 C7.5411,10.195 7.3821,10.352 7.3821,10.546 C7.3821,10.741 7.5411,10.898 7.7341,10.898" id="Fill-6" fill="#2C2F33" mask="url(#mask-2)"></path>
                <path d="M4.6579,5.7369 L4.6519,5.7369 C4.4589,5.7369 4.3009,5.8939 4.3009,6.0889 C4.3009,6.2819 4.4589,6.4399 4.6519,6.4399 L4.6579,6.4399 C4.8519,6.4399 5.0099,6.2819 5.0099,6.0889 C5.0099,5.8939 4.8519,5.7369 4.6579,5.7369" id="Fill-7" fill="#2C2F33" mask="url(#mask-2)"></path>
                <path d="M2.8376,10.0875 L3.0986,10.3755 C3.1706,10.4545 3.2746,10.4965 3.3806,10.4905 C3.4866,10.4835 3.5856,10.4295 3.6476,10.3425 L4.2806,9.4415 L4.9176,10.6585 L2.4746,10.6585 L2.8376,10.0875 Z M3.4846,6.4405 C3.6796,6.4405 3.8366,6.2815 3.8366,6.0885 C3.8366,5.8945 3.6796,5.7365 3.4846,5.7365 L1.5836,5.7365 C1.3896,5.7365 1.2326,5.8945 1.2326,6.0885 L1.2326,11.0095 C1.2326,11.2035 1.3896,11.3605 1.5836,11.3605 L6.5056,11.3605 C6.6986,11.3605 6.8576,11.2035 6.8576,11.0095 L6.8576,6.0885 C6.8576,5.8945 6.6986,5.7365 6.5056,5.7365 L5.7846,5.7365 C5.5906,5.7365 5.4336,5.8945 5.4336,6.0885 C5.4336,6.2815 5.5906,6.4405 5.7846,6.4405 L6.1536,6.4405 L6.1536,10.6575 L5.7116,10.6575 L4.6366,8.6045 C4.5796,8.4955 4.4706,8.4245 4.3486,8.4165 C4.2266,8.4085 4.1086,8.4645 4.0376,8.5655 L3.3246,9.5775 L3.0496,9.2735 C2.9766,9.1915 2.8686,9.1505 2.7596,9.1585 C2.6506,9.1685 2.5516,9.2285 2.4916,9.3205 L1.9356,10.1965 L1.9356,6.4405 L3.4846,6.4405 Z" id="Fill-8" fill="#2C2F33" mask="url(#mask-2)"></path>
                <path d="M5.1589,7.3873 C5.2359,7.3873 5.2999,7.4503 5.2999,7.5283 C5.2999,7.6063 5.2359,7.6683 5.1589,7.6683 C5.0809,7.6683 5.0179,7.6063 5.0179,7.5283 C5.0179,7.4503 5.0809,7.3873 5.1589,7.3873 M4.3149,7.5283 C4.3149,7.9933 4.6929,8.3713 5.1589,8.3713 C5.6239,8.3713 6.0029,7.9933 6.0029,7.5283 C6.0029,7.0633 5.6239,6.6843 5.1589,6.6843 C4.6929,6.6843 4.3149,7.0633 4.3149,7.5283" id="Fill-9" fill="#2C2F33" mask="url(#mask-2)"></path>
                <path d="M9.8757,16.1011 L10.2577,17.2961 L3.9457,17.2961 L4.3267,16.1011 L9.8757,16.1011 Z M6.8197,15.3981 L7.3817,15.3981 L7.3817,13.2181 L6.8197,13.2181 L6.8197,15.3981 Z M6.8197,4.1481 L6.8197,3.5571 C6.9127,3.5721 7.0057,3.5851 7.1017,3.5851 C7.1977,3.5851 7.2907,3.5721 7.3827,3.5571 L7.3827,4.1481 L6.8197,4.1481 Z M7.1017,0.7031 C7.7027,0.7031 8.1907,1.1921 8.1907,1.7921 C8.1907,2.3941 7.7027,2.8821 7.1017,2.8821 C6.5007,2.8821 6.0117,2.3941 6.0117,1.7921 C6.0117,1.1921 6.5007,0.7031 7.1017,0.7031 L7.1017,0.7031 Z M13.8517,4.1481 L8.0857,4.1481 L8.0857,3.2881 C8.5717,2.9671 8.8947,2.4171 8.8947,1.7921 C8.8947,0.8041 8.0907,-0.0009 7.1017,-0.0009 C6.1127,-0.0009 5.3087,0.8041 5.3087,1.7921 C5.3087,2.4171 5.6307,2.9671 6.1167,3.2881 L6.1167,4.1481 L0.3517,4.1481 C0.1577,4.1481 -0.0003,4.3061 -0.0003,4.4991 L-0.0003,7.3801 C-0.0003,7.5751 0.1577,7.7321 0.3517,7.7321 C0.5457,7.7321 0.7027,7.5751 0.7027,7.3801 L0.7027,4.8511 L13.4997,4.8511 L13.4997,12.5151 L0.7027,12.5151 L0.7027,9.1231 C0.7027,8.9291 0.5457,8.7721 0.3517,8.7721 C0.1577,8.7721 -0.0003,8.9291 -0.0003,9.1231 L-0.0003,12.8671 C-0.0003,13.0611 0.1577,13.2181 0.3517,13.2181 L6.1167,13.2181 L6.1167,15.3981 L4.0697,15.3981 C3.9177,15.3981 3.7817,15.4971 3.7347,15.6431 L3.1297,17.5411 C3.0957,17.6491 3.1147,17.7651 3.1817,17.8561 C3.2467,17.9471 3.3527,17.9991 3.4647,17.9991 L10.7377,17.9991 C10.8507,17.9991 10.9557,17.9471 11.0217,17.8561 C11.0887,17.7651 11.1067,17.6491 11.0727,17.5411 L10.4677,15.6431 C10.4217,15.4971 10.2857,15.3981 10.1327,15.3981 L8.0857,15.3981 L8.0857,13.2181 L13.8517,13.2181 C14.0457,13.2181 14.2027,13.0611 14.2027,12.8671 L14.2027,4.4991 C14.2027,4.3061 14.0457,4.1481 13.8517,4.1481 L13.8517,4.1481 Z" id="Fill-10" fill="#2C2F33" mask="url(#mask-2)"></path>
            </g>
        </g>
    </g>
</svg>