<?xml version="1.0" encoding="UTF-8"?>
<svg width="24px" height="24px" viewBox="0 0 24 24" version="1.1" xmlns="http://www.w3.org/2000/svg" xmlns:xlink="http://www.w3.org/1999/xlink">
    <!-- Generator: Sketch 46.2 (44496) - http://www.bohemiancoding.com/sketch -->
    <title>DM</title>
    <desc>Created with Sketch.</desc>
    <defs></defs>
    <g id="jhef" stroke="none" stroke-width="1" fill="none" fill-rule="evenodd">
        <g id="DM">
            <g id="Page-1" transform="translate(5.000000, 3.000000)">
                <polygon id="Fill-1" fill="#A7A9AC" points="6.2649 10.5084 5.9899 16.8524 6.8439 17.6264 7.7119 16.8414 7.4259 10.5084"></polygon>
                <path d="M0.3267,14.8226 C0.5097,14.8226 0.6597,14.6726 0.6597,14.4886 L0.6597,12.6446 C0.6597,12.3516 0.7887,12.0766 1.0117,11.8936 C2.6577,10.5416 4.4397,9.6426 4.7797,9.4786 C4.9377,9.4016 5.0327,9.2476 5.0327,9.0716 L5.0327,6.4766 C5.0327,6.3666 4.9777,6.2596 4.8857,6.2016 C4.6407,6.0366 4.4937,5.7616 4.4937,5.4686 L4.4937,2.7746 C4.4937,1.6206 5.4327,0.6816 6.5867,0.6816 L7.1657,0.6816 C8.3207,0.6816 9.2587,1.6206 9.2587,2.7746 L9.2587,5.4656 C9.2587,5.7586 9.1127,6.0336 8.8667,6.1976 C8.7757,6.2596 8.7197,6.3626 8.7197,6.4726 L8.7197,9.0676 C8.7197,9.2436 8.8157,9.3976 8.9727,9.4746 C9.3137,9.6396 11.0947,10.5416 12.7417,11.8896 C12.9637,12.0736 13.0927,12.3476 13.0927,12.6416 L13.0927,14.4846 C13.0927,14.6686 13.2437,14.8186 13.4257,14.8186 C13.6097,14.8186 13.7597,14.6686 13.7597,14.4846 L13.7597,12.6416 C13.7597,12.1506 13.5427,11.6886 13.1617,11.3776 C11.6047,10.0976 9.9257,9.2076 9.3837,8.9356 L9.3837,6.6406 C9.7247,6.3476 9.9257,5.9236 9.9257,5.4686 L9.9257,2.7746 C9.9257,1.2536 8.6907,0.0176 7.1697,0.0176 L6.5907,0.0176 C5.0697,0.0176 3.8337,1.2536 3.8337,2.7746 L3.8337,5.4656 C3.8337,5.9196 4.0327,6.3476 4.3767,6.6376 L4.3767,8.9396 C3.8337,9.2116 2.1597,10.0976 0.5977,11.3806 C0.2207,11.6916 0.0007,12.1536 0.0007,12.6446 L0.0007,14.4886 C-0.0063,14.6766 0.1427,14.8226 0.3267,14.8226" id="Fill-2" fill="#000000"></path>
                <path d="M6.8437,17.179 L6.3257,16.713 L6.5727,11.003 C6.6667,11.029 6.7667,11.039 6.8687,11.039 C6.9527,11.039 7.0337,11.033 7.1117,11.014 L7.3667,16.699 L6.8437,17.179 Z M7.7637,9.486 C7.5797,9.486 7.4297,9.636 7.4297,9.82 C7.4297,9.984 7.3607,10.131 7.2457,10.234 C7.2247,10.248 7.2017,10.263 7.1847,10.284 C7.0967,10.347 6.9867,10.38 6.8687,10.38 C6.5607,10.38 6.3087,10.131 6.3087,9.82 C6.3087,9.636 6.1577,9.486 5.9747,9.486 C5.7907,9.486 5.6407,9.636 5.6407,9.82 C5.6407,10.113 5.7467,10.383 5.9197,10.596 L5.6487,16.842 C5.6447,16.941 5.6857,17.036 5.7587,17.102 L6.6127,17.871 C6.6747,17.93 6.7547,17.956 6.8357,17.956 C6.9167,17.956 6.9967,17.927 7.0597,17.871 L7.9357,17.087 C8.0087,17.022 8.0487,16.926 8.0457,16.827 L7.7667,10.655 C7.9717,10.435 8.0967,10.142 8.0967,9.82 C8.0967,9.632 7.9467,9.486 7.7637,9.486 L7.7637,9.486 Z" id="Fill-4" fill="#000000"></path>
            </g>
        </g>
    </g>
</svg>