<?xml version="1.0" encoding="UTF-8"?>
<svg width="24px" height="24px" viewBox="0 0 24 24" version="1.1" xmlns="http://www.w3.org/2000/svg" xmlns:xlink="http://www.w3.org/1999/xlink">
    <!-- Generator: Sketch 46.2 (44496) - http://www.bohemiancoding.com/sketch -->
    <title>eye_2</title>
    <desc>Created with Sketch.</desc>
    <defs></defs>
    <g id="jhef" stroke="none" stroke-width="1" fill="none" fill-rule="evenodd">
        <g id="eye_2">
            <g id="Page-1-Copy" transform="translate(3.000000, 6.000000)">
                <path d="M3.51937895,9.2638 C3.57527368,9.30651429 3.64064211,9.32601429 3.70506316,9.32601429 C3.79222105,9.32601429 3.87937895,9.2898 3.93716842,9.21737143 C4.04043158,9.09201429 4.01864211,8.90908571 3.89169474,8.80787143 C3.65390526,8.62308571 3.4218,8.42065714 3.20485263,8.20801429 L1.00790526,6.05372857 L3.27401053,3.83258571 C5.45295789,1.6978 8.62285263,0.967942857 11.5445368,1.93087143 C11.6999053,1.98008571 11.8685368,1.8993 11.9206421,1.74701429 C11.9736947,1.59472857 11.8893789,1.42851429 11.7340105,1.37744286 C8.59632632,0.3458 5.19432632,1.12858571 2.85432632,3.42122857 L0.167589474,6.05372857 L2.78611579,8.6203 C3.01822105,8.8478 3.26358947,9.06415714 3.51937895,9.2638" id="Fill-1" fill="#606060"></path>
                <path d="M3.51937895,9.2638 C3.57527368,9.30651429 3.64064211,9.32601429 3.70506316,9.32601429 C3.79222105,9.32601429 3.87937895,9.2898 3.93716842,9.21737143 C4.04043158,9.09201429 4.01864211,8.90908571 3.89169474,8.80787143 C3.65390526,8.62308571 3.4218,8.42065714 3.20485263,8.20801429 L1.00790526,6.05372857 L3.27401053,3.83258571 C5.45295789,1.6978 8.62285263,0.967942857 11.5445368,1.93087143 C11.6999053,1.98008571 11.8685368,1.8993 11.9206421,1.74701429 C11.9736947,1.59472857 11.8893789,1.42851429 11.7340105,1.37744286 C8.59632632,0.3458 5.19432632,1.12858571 2.85432632,3.42122857 L0.167589474,6.05372857 L2.78611579,8.6203 C3.01822105,8.8478 3.26358947,9.06415714 3.51937895,9.2638 Z" id="Stroke-3" stroke="#606060" stroke-width="0.25"></path>
                <path d="M15.0922421,3.42076429 C14.6896105,3.02797857 14.2519263,2.67419286 13.7867684,2.36869286 C13.6512947,2.27955 13.4646632,2.31483571 13.3737158,2.44855 C13.2818211,2.58040714 13.3178211,2.76240714 13.4542421,2.85155 C13.8881368,3.13569286 14.2983474,3.46719286 14.6716105,3.83305 L16.8695053,5.98640714 L14.6015053,8.20755 C12.4083474,10.35905 9.10297895,11.0851929 6.18034737,10.0581929 C6.02497895,10.0043357 5.85445263,10.0823357 5.79950526,10.2346214 C5.74550526,10.38505 5.82508421,10.5521929 5.97950526,10.6079071 C6.92403158,10.9384786 7.9074,11.10005 8.88318947,11.10005 C11.1483474,11.10005 13.3756105,10.2336929 15.0230842,8.61983571 L17.7088737,5.98640714 L15.0922421,3.42076429 Z" id="Fill-5" fill="#606060"></path>
                <path d="M15.0922421,3.42076429 C14.6896105,3.02797857 14.2519263,2.67419286 13.7867684,2.36869286 C13.6512947,2.27955 13.4646632,2.31483571 13.3737158,2.44855 C13.2818211,2.58040714 13.3178211,2.76240714 13.4542421,2.85155 C13.8881368,3.13569286 14.2983474,3.46719286 14.6716105,3.83305 L16.8695053,5.98640714 L14.6015053,8.20755 C12.4083474,10.35905 9.10297895,11.0851929 6.18034737,10.0581929 C6.02497895,10.0043357 5.85445263,10.0823357 5.79950526,10.2346214 C5.74550526,10.38505 5.82508421,10.5521929 5.97950526,10.6079071 C6.92403158,10.9384786 7.9074,11.10005 8.88318947,11.10005 C11.1483474,11.10005 13.3756105,10.2336929 15.0230842,8.61983571 L17.7088737,5.98640714 L15.0922421,3.42076429 Z" id="Stroke-7" stroke="#606060" stroke-width="0.25"></path>
                <path d="M9.23968421,9.37485714 C8.59926316,9.37485714 7.97684211,9.20121429 7.43684211,8.87157143 C7.29852632,8.788 7.11473684,8.82885714 7.02757895,8.96535714 C6.93947368,9.10185714 6.98305263,9.28107143 7.12326316,9.3665 C7.75705263,9.75278571 8.48936842,9.958 9.23968421,9.958 C11.4517895,9.958 13.2489474,8.19464286 13.2489474,6.02735714 C13.2489474,5.24457143 13.0158947,4.48964286 12.5744211,3.84242857 C12.4825263,3.70871429 12.2987368,3.6725 12.1623158,3.76164286 C12.0258947,3.85078571 11.9889474,4.03371429 12.0808421,4.16557143 C12.4569474,4.71714286 12.6558947,5.35971429 12.6558947,6.02735714 C12.6558947,7.87335714 11.1230526,9.37485714 9.23968421,9.37485714" id="Fill-9" fill="#606060"></path>
                <path d="M9.23968421,9.37485714 C8.59926316,9.37485714 7.97684211,9.20121429 7.43684211,8.87157143 C7.29852632,8.788 7.11473684,8.82885714 7.02757895,8.96535714 C6.93947368,9.10185714 6.98305263,9.28107143 7.12326316,9.3665 C7.75705263,9.75278571 8.48936842,9.958 9.23968421,9.958 C11.4517895,9.958 13.2489474,8.19464286 13.2489474,6.02735714 C13.2489474,5.24457143 13.0158947,4.48964286 12.5744211,3.84242857 C12.4825263,3.70871429 12.2987368,3.6725 12.1623158,3.76164286 C12.0258947,3.85078571 11.9889474,4.03371429 12.0808421,4.16557143 C12.4569474,4.71714286 12.6558947,5.35971429 12.6558947,6.02735714 C12.6558947,7.87335714 11.1230526,9.37485714 9.23968421,9.37485714 Z" id="Stroke-11" stroke="#606060" stroke-width="0.25"></path>
                <path d="M9.23968421,2.67855714 C9.85263158,2.67855714 10.4542105,2.8392 10.9781053,3.1447 C11.1202105,3.22548571 11.3021053,3.17998571 11.3864211,3.04255714 C11.4697895,2.90327143 11.4233684,2.72498571 11.2812632,2.64234286 C10.6654737,2.28484286 9.96063158,2.09541429 9.23968421,2.09541429 C7.02852632,2.09541429 5.22852632,3.8597 5.22852632,6.02698571 C5.22852632,6.63427143 5.36589474,7.21555714 5.63684211,7.75691429 C5.688,7.85905714 5.79410526,7.91941429 5.904,7.91941429 C5.94757895,7.91941429 5.99305263,7.91105714 6.03473684,7.89062857 C6.18063158,7.82005714 6.24221053,7.64455714 6.17115789,7.50062857 C5.94094737,7.04005714 5.82347368,6.5442 5.82347368,6.02698571 C5.82347368,4.18005714 7.35631579,2.67855714 9.23968421,2.67855714" id="Fill-13" fill="#606060"></path>
                <path d="M9.23968421,2.67855714 C9.85263158,2.67855714 10.4542105,2.8392 10.9781053,3.1447 C11.1202105,3.22548571 11.3021053,3.17998571 11.3864211,3.04255714 C11.4697895,2.90327143 11.4233684,2.72498571 11.2812632,2.64234286 C10.6654737,2.28484286 9.96063158,2.09541429 9.23968421,2.09541429 C7.02852632,2.09541429 5.22852632,3.8597 5.22852632,6.02698571 C5.22852632,6.63427143 5.36589474,7.21555714 5.63684211,7.75691429 C5.688,7.85905714 5.79410526,7.91941429 5.904,7.91941429 C5.94757895,7.91941429 5.99305263,7.91105714 6.03473684,7.89062857 C6.18063158,7.82005714 6.24221053,7.64455714 6.17115789,7.50062857 C5.94094737,7.04005714 5.82347368,6.5442 5.82347368,6.02698571 C5.82347368,4.18005714 7.35631579,2.67855714 9.23968421,2.67855714 Z" id="Stroke-15" stroke="#606060" stroke-width="0.25"></path>
                <path d="M14.9904947,0.201128571 C14.8749158,0.0878428571 14.6873368,0.0878428571 14.5717579,0.201128571 L2.72681053,11.8147714 C2.61123158,11.9280571 2.61123158,12.1137714 2.72681053,12.2270571 C2.7846,12.2837 2.86038947,12.3124857 2.93523158,12.3124857 C3.01196842,12.3124857 3.08870526,12.2837 3.14554737,12.2270571 L14.9904947,0.613414286 C15.1070211,0.4992 15.1070211,0.315342857 14.9904947,0.201128571" id="Fill-17" fill="#606060"></path>
                <path d="M14.9904947,0.201128571 C14.8749158,0.0878428571 14.6873368,0.0878428571 14.5717579,0.201128571 L2.72681053,11.8147714 C2.61123158,11.9280571 2.61123158,12.1137714 2.72681053,12.2270571 C2.7846,12.2837 2.86038947,12.3124857 2.93523158,12.3124857 C3.01196842,12.3124857 3.08870526,12.2837 3.14554737,12.2270571 L14.9904947,0.613414286 C15.1070211,0.4992 15.1070211,0.315342857 14.9904947,0.201128571 Z" id="Stroke-19" stroke="#606060" stroke-width="0.25"></path>
            </g>
        </g>
    </g>
</svg>