<?xml version="1.0" encoding="UTF-8"?>
<svg width="24px" height="24px" viewBox="0 0 24 24" version="1.1" xmlns="http://www.w3.org/2000/svg" xmlns:xlink="http://www.w3.org/1999/xlink">
    <!-- Generator: Sketch 46.2 (44496) - http://www.bohemiancoding.com/sketch -->
    <title>eye</title>
    <desc>Created with Sketch.</desc>
    <defs></defs>
    <g id="jhef" stroke="none" stroke-width="1" fill="none" fill-rule="evenodd">
        <g id="eye">
            <g id="Page-1-Copy" transform="translate(3.000000, 7.000000)">
                <path d="M14.9746737,6.83581818 C11.6749895,10.0021818 6.30530526,10.0021818 3.00467368,6.83581818 L1.00762105,4.91945455 L2.94688421,3.05945455 C6.24656842,-0.106909091 11.6162526,-0.106909091 14.9159368,3.05945455 L16.9139368,4.97581818 L14.9746737,6.83581818 Z M15.3356211,2.65490909 C11.8047789,-0.734181818 6.05804211,-0.734181818 2.52625263,2.65490909 L0.167305263,4.91945455 L2.58593684,7.23945455 C4.35088421,8.93309091 6.67004211,9.78127273 8.99014737,9.78127273 C11.3112,9.78127273 13.6303579,8.93309091 15.3953053,7.23945455 L17.7542526,4.97581818 L15.3356211,2.65490909 Z" id="Fill-1" fill="#606060"></path>
                <path d="M14.9746737,6.83581818 C11.6749895,10.0021818 6.30530526,10.0021818 3.00467368,6.83581818 L1.00762105,4.91945455 L2.94688421,3.05945455 C6.24656842,-0.106909091 11.6162526,-0.106909091 14.9159368,3.05945455 L16.9139368,4.97581818 L14.9746737,6.83581818 Z M15.3356211,2.65490909 C11.8047789,-0.734181818 6.05804211,-0.734181818 2.52625263,2.65490909 L0.167305263,4.91945455 L2.58593684,7.23945455 C4.35088421,8.93309091 6.67004211,9.78127273 8.99014737,9.78127273 C11.3112,9.78127273 13.6303579,8.93309091 15.3953053,7.23945455 L17.7542526,4.97581818 L15.3356211,2.65490909 Z" id="Stroke-3" stroke="#606060" stroke-width="0.25"></path>
                <path d="M8.65582105,2.65836364 C7.50855789,2.65836364 6.57634737,3.55290909 6.57634737,4.65472727 C6.57634737,4.812 6.70897895,4.93836364 6.87287368,4.93836364 C7.03676842,4.93836364 7.17129474,4.812 7.17129474,4.65472727 C7.17129474,3.86836364 7.83634737,3.22927273 8.65582105,3.22927273 C8.82066316,3.22927273 8.9514,3.10109091 8.9514,2.94381818 C8.9514,2.78654545 8.82066316,2.65836364 8.65582105,2.65836364" id="Fill-5" fill="#606060"></path>
                <path d="M8.65582105,2.65836364 C7.50855789,2.65836364 6.57634737,3.55290909 6.57634737,4.65472727 C6.57634737,4.812 6.70897895,4.93836364 6.87287368,4.93836364 C7.03676842,4.93836364 7.17129474,4.812 7.17129474,4.65472727 C7.17129474,3.86836364 7.83634737,3.22927273 8.65582105,3.22927273 C8.82066316,3.22927273 8.9514,3.10109091 8.9514,2.94381818 C8.9514,2.78654545 8.82066316,2.65836364 8.65582105,2.65836364 Z" id="Stroke-7" stroke="#606060" stroke-width="0.25"></path>
                <path d="M8.95187368,8.07427273 C7.15092632,8.07427273 5.68534737,6.66881818 5.68534737,4.93881818 C5.68534737,3.20972727 7.15092632,1.80427273 8.95187368,1.80427273 C10.7528211,1.80427273 12.2202947,3.20972727 12.2202947,4.93881818 C12.2202947,6.66881818 10.7547158,8.07427273 8.95187368,8.07427273 M8.95187368,1.23336364 C6.82313684,1.23336364 5.0904,2.89518182 5.0904,4.93881818 C5.0904,6.98154545 6.82313684,8.64518182 8.95187368,8.64518182 C11.0815579,8.64518182 12.8152421,6.98154545 12.8152421,4.93881818 C12.8152421,2.89518182 11.0825053,1.23336364 8.95187368,1.23336364" id="Fill-9" fill="#606060"></path>
                <path d="M8.95187368,8.07427273 C7.15092632,8.07427273 5.68534737,6.66881818 5.68534737,4.93881818 C5.68534737,3.20972727 7.15092632,1.80427273 8.95187368,1.80427273 C10.7528211,1.80427273 12.2202947,3.20972727 12.2202947,4.93881818 C12.2202947,6.66881818 10.7547158,8.07427273 8.95187368,8.07427273 Z M8.95187368,1.23336364 C6.82313684,1.23336364 5.0904,2.89518182 5.0904,4.93881818 C5.0904,6.98154545 6.82313684,8.64518182 8.95187368,8.64518182 C11.0815579,8.64518182 12.8152421,6.98154545 12.8152421,4.93881818 C12.8152421,2.89518182 11.0825053,1.23336364 8.95187368,1.23336364 Z" id="Stroke-11" stroke="#606060" stroke-width="0.25"></path>
            </g>
        </g>
    </g>
</svg>