<?xml version="1.0" encoding="UTF-8"?>
<svg width="24px" height="24px" viewBox="0 0 24 24" version="1.1" xmlns="http://www.w3.org/2000/svg" xmlns:xlink="http://www.w3.org/1999/xlink">
    <!-- Generator: Sketch 46.2 (44496) - http://www.bohemiancoding.com/sketch -->
    <title>home</title>
    <desc>Created with Sketch.</desc>
    <defs>
        <polygon id="path-1" points="0.000369230769 16 15.8067692 16 15.8067692 0.0188307692 0.000369230769 0.0188307692"></polygon>
        <polygon id="path-3" points="4.9909162e-16 7.3516 4.9909162e-16 0.153333333 15.8067692 0.153333333 15.8067692 7.3516"></polygon>
    </defs>
    <g id="jhef" stroke="none" stroke-width="1" fill="none" fill-rule="evenodd">
        <g id="home">
            <g id="Page-1" transform="translate(4.000000, 3.000000)">
                <g id="Group-3" transform="translate(0.000000, 3.000000)">
                    <mask id="mask-2" fill="white">
                        <use xlink:href="#path-1"></use>
                    </mask>
                    <g id="Clip-2"></g>
                    <path d="M14.7080615,14.9012923 L9.90190769,14.9012923 L9.90190769,10.3683692 C9.90190769,10.0643692 9.65575385,9.81944615 9.35175385,9.81944615 L6.45452308,9.81944615 C6.15052308,9.81944615 5.9056,10.0643692 5.9056,10.3683692 L5.9056,14.9012923 L1.09821538,14.9012923 L1.09821538,6.38683077 L7.90313846,1.25575385 L14.7080615,6.38683077 L14.7080615,14.9012923 Z M7.00344615,14.9012923 L8.80283077,14.9012923 L8.80283077,10.9185231 L7.00344615,10.9185231 L7.00344615,14.9012923 Z M15.5880615,5.67544615 L8.23421538,0.1296 C8.03852308,-0.0180923077 7.76775385,-0.0180923077 7.57329231,0.1296 L0.219446154,5.67544615 C0.0816,5.77883077 0.000369230769,5.94129231 0.000369230769,6.1136 L0.000369230769,15.4502154 C0.000369230769,15.7529846 0.246523077,16.0003692 0.549292308,16.0003692 L15.2582154,16.0003692 C15.5609846,16.0003692 15.8071385,15.7529846 15.8071385,15.4502154 L15.8071385,6.1136 C15.8071385,5.94129231 15.7259077,5.77883077 15.5880615,5.67544615 L15.5880615,5.67544615 Z" id="Fill-1" fill="#4A4A4A" mask="url(#mask-2)"></path>
                </g>
                <g id="Group-6">
                    <mask id="mask-4" fill="white">
                        <use xlink:href="#path-3"></use>
                    </mask>
                    <g id="Clip-5"></g>
                    <path d="M0.880492308,7.23026667 L7.90326154,1.49293333 L14.9272615,7.23026667 C15.0257231,7.3116 15.1414154,7.3516 15.2571077,7.3516 C15.4232615,7.3516 15.5881846,7.26893333 15.6964923,7.11426667 C15.8786462,6.8516 15.8306462,6.47826667 15.5881846,6.2796 L8.23433846,0.272933333 C8.03864615,0.112933333 7.76787692,0.112933333 7.57218462,0.272933333 L0.218338462,6.2796 C-0.0241230769,6.47826667 -0.0721230769,6.8516 0.111261538,7.11426667 C0.293415385,7.3756 0.638030769,7.4276 0.880492308,7.23026667" id="Fill-4" fill="#4A4A4A" mask="url(#mask-4)"></path>
                </g>
            </g>
        </g>
    </g>
</svg>