<?xml version="1.0" encoding="UTF-8"?>
<svg width="24px" height="24px" viewBox="0 0 24 24" version="1.1" xmlns="http://www.w3.org/2000/svg" xmlns:xlink="http://www.w3.org/1999/xlink">
    <!-- Generator: Sketch 46.2 (44496) - http://www.bohemiancoding.com/sketch -->
    <title>login</title>
    <desc>Created with Sketch.</desc>
    <defs>
        <polygon id="path-1" points="1.08420217e-19 0.0002 1.08420217e-19 18 14.2683 18 14.2683 0.0002"></polygon>
    </defs>
    <g id="jhef" stroke="none" stroke-width="1" fill="none" fill-rule="evenodd">
        <g id="login">
            <g id="Page-1" transform="translate(3.000000, 3.000000)">
                <g id="Group-3">
                    <mask id="mask-2" fill="white">
                        <use xlink:href="#path-1"></use>
                    </mask>
                    <g id="Clip-2"></g>
                    <path d="M13.9763,13.3732 C13.8153,13.3732 13.6843,13.5042 13.6843,13.6652 L13.6843,16.7752 C13.6843,17.1292 13.3973,17.4172 13.0433,17.4172 L1.2243,17.4172 C0.8713,17.4172 0.5833,17.1292 0.5833,16.7752 L0.5833,1.2252 C0.5833,0.8712 0.8713,0.5832 1.2243,0.5832 L13.0433,0.5832 C13.3973,0.5832 13.6843,0.8712 13.6843,1.2252 L13.6843,4.3352 C13.6843,4.4962 13.8153,4.6262 13.9763,4.6262 C14.1373,4.6262 14.2683,4.4962 14.2683,4.3352 L14.2683,1.2252 C14.2683,0.5492 13.7183,0.0002 13.0433,0.0002 L1.2243,0.0002 C0.5493,0.0002 -0.0007,0.5492 -0.0007,1.2252 L-0.0007,16.7752 C-0.0007,17.4502 0.5493,18.0002 1.2243,18.0002 L13.0433,18.0002 C13.7183,18.0002 14.2683,17.4502 14.2683,16.7752 L14.2683,13.6652 C14.2683,13.5042 14.1373,13.3732 13.9763,13.3732" id="Fill-1" stroke="#52B346" stroke-width="0.3" fill="#52B346" mask="url(#mask-2)"></path>
                </g>
                <path d="M7.7556,1.8273 C7.9166,1.8273 8.0476,1.6963 8.0476,1.5353 C8.0476,1.3743 7.9166,1.2443 7.7556,1.2443 L6.5116,1.2443 C6.3516,1.2443 6.2206,1.3743 6.2206,1.5353 C6.2206,1.6963 6.3516,1.8273 6.5116,1.8273 L7.7556,1.8273 Z" id="Fill-4" stroke="#52B346" stroke-width="0.3" fill="#52B346"></path>
                <path d="M5.5593,1.5392 L5.5593,1.5352 C5.5593,1.3742 5.4293,1.2452 5.2683,1.2452 C5.1073,1.2452 4.9763,1.3782 4.9763,1.5392 C4.9763,1.6992 5.1073,1.8302 5.2683,1.8302 C5.4293,1.8302 5.5593,1.6992 5.5593,1.5392" id="Fill-6" stroke="#52B346" stroke-width="0.3" fill="#52B346"></path>
                <path d="M6.5114,16.173 C6.3514,16.173 6.2204,16.303 6.2204,16.464 C6.2204,16.625 6.3514,16.756 6.5114,16.756 L7.7554,16.756 C7.9164,16.756 8.0474,16.625 8.0474,16.464 C8.0474,16.303 7.9164,16.173 7.7554,16.173 L6.5114,16.173 Z" id="Fill-8" stroke="#52B346" stroke-width="0.3" fill="#52B346"></path>
                <path d="M12.7321,4.6262 C12.8931,4.6262 13.0231,4.4962 13.0231,4.3352 L13.0231,2.7792 C13.0231,2.6182 12.8931,2.4882 12.7321,2.4882 L1.5361,2.4882 C1.3751,2.4882 1.2441,2.6182 1.2441,2.7792 L1.2441,15.2202 C1.2441,15.3812 1.3751,15.5122 1.5361,15.5122 L12.7321,15.5122 C12.8931,15.5122 13.0231,15.3812 13.0231,15.2202 L13.0231,13.6652 C13.0231,13.5042 12.8931,13.3732 12.7321,13.3732 C12.5711,13.3732 12.4401,13.5042 12.4401,13.6652 L12.4401,14.9292 L1.8271,14.9292 L1.8271,3.0712 L12.4401,3.0712 L12.4401,4.3352 C12.4401,4.4962 12.5711,4.6262 12.7321,4.6262" id="Fill-10" stroke="#52B346" stroke-width="0.3" fill="#52B346"></path>
                <path d="M9.3112,12.7521 L6.8232,12.7521 C6.6622,12.7521 6.5312,12.8821 6.5312,13.0431 C6.5312,13.2041 6.6622,13.3351 6.8232,13.3351 L9.3112,13.3351 C9.4722,13.3351 9.6022,13.2041 9.6022,13.0431 C9.6022,12.8821 9.4722,12.7521 9.3112,12.7521" id="Fill-12" stroke="#52B346" stroke-width="0.3" fill="#52B346"></path>
                <path d="M4.9567,12.7521 C4.7957,12.7521 4.6657,12.8821 4.6657,13.0431 C4.6657,13.2041 4.7957,13.3351 4.9567,13.3351 L5.5787,13.3351 C5.7397,13.3351 5.8707,13.2041 5.8707,13.0431 C5.8707,12.8821 5.7397,12.7521 5.5787,12.7521 L4.9567,12.7521 Z" id="Fill-14" stroke="#52B346" stroke-width="0.3" fill="#52B346"></path>
                <path d="M7.1335,5.5598 C7.6585,5.5598 8.0865,5.9868 8.0865,6.5118 C8.0865,7.0378 7.6585,7.4638 7.1335,7.4638 C6.6095,7.4638 6.1815,7.0378 6.1815,6.5118 C6.1815,5.9868 6.6095,5.5598 7.1335,5.5598 M7.1335,8.0468 C7.9805,8.0468 8.6695,7.3588 8.6695,6.5118 C8.6695,5.6648 7.9805,4.9768 7.1335,4.9768 C6.2865,4.9768 5.5985,5.6648 5.5985,6.5118 C5.5985,7.3588 6.2865,8.0468 7.1335,8.0468" id="Fill-16" stroke="#52B346" stroke-width="0.3" fill="#52B346"></path>
                <path d="M13.6657,12.1301 C13.3457,12.1301 13.0297,12.0811 12.7277,11.9861 C12.6387,11.9581 12.5427,11.9751 12.4677,12.0281 C12.1087,12.2911 11.7147,12.4601 11.3767,12.5681 C11.5277,12.3681 11.6887,12.1291 11.8407,11.8521 C11.9097,11.7261 11.8767,11.5681 11.7627,11.4811 C10.9827,10.8811 10.5357,9.9781 10.5357,9.0001 C10.5357,7.2751 11.9387,5.8701 13.6657,5.8701 C15.3917,5.8701 16.7947,7.2751 16.7947,9.0001 C16.7947,10.7261 15.3917,12.1301 13.6657,12.1301 M13.6657,5.2871 C11.6177,5.2871 9.9527,6.9531 9.9527,9.0001 C9.9527,10.0741 10.4067,11.0731 11.2087,11.7791 C10.8067,12.4391 10.3697,12.8171 10.3657,12.8211 C10.2697,12.9031 10.2367,13.0381 10.2857,13.1541 C10.3307,13.2651 10.4377,13.3351 10.5557,13.3351 C10.5617,13.3351 10.5697,13.3341 10.5777,13.3341 C10.6257,13.3301 11.7217,13.2361 12.6917,12.5831 C13.0087,12.6691 13.3357,12.7131 13.6657,12.7131 C15.7127,12.7131 17.3777,11.0471 17.3777,9.0001 C17.3777,6.9531 15.7127,5.2871 13.6657,5.2871" id="Fill-18" stroke="#52B346" stroke-width="0.3" fill="#52B346"></path>
                <path d="M14.779,8.3537 C14.65,8.4827 14.44,8.4827 14.311,8.3537 C14.182,8.2247 14.182,8.0157 14.311,7.8867 C14.374,7.8247 14.457,7.7907 14.545,7.7907 C14.633,7.7907 14.717,7.8247 14.779,7.8867 C14.841,7.9497 14.876,8.0327 14.876,8.1207 C14.876,8.2077 14.841,8.2917 14.779,8.3537 M14.545,7.2077 C14.3,7.2077 14.071,7.3017 13.899,7.4747 C13.615,7.7577 13.558,8.1837 13.727,8.5257 L12.139,10.1137 C12.026,10.2267 12.026,10.4127 12.139,10.5257 C12.197,10.5827 12.271,10.6117 12.345,10.6117 C12.421,10.6117 12.495,10.5827 12.551,10.5257 L12.786,10.2917 L13.019,10.5257 C13.076,10.5827 13.151,10.6117 13.225,10.6117 C13.3,10.6117 13.375,10.5827 13.431,10.5257 C13.546,10.4127 13.546,10.2267 13.431,10.1137 L13.198,9.8797 L14.139,8.9387 C14.267,9.0007 14.406,9.0337 14.545,9.0337 C14.779,9.0337 15.012,8.9447 15.191,8.7667 C15.363,8.5937 15.459,8.3647 15.459,8.1207 C15.459,7.8757 15.363,7.6467 15.191,7.4747 C15.018,7.3017 14.789,7.2077 14.545,7.2077" id="Fill-20" stroke="#52B346" stroke-width="0.3" fill="#52B346"></path>
                <path d="M9.0192,11.1965 L5.2482,11.1965 L5.2482,10.5545 C5.2482,9.9755 5.5102,9.4365 5.9652,9.0765 C5.9692,9.0765 5.9862,9.0795 6.0002,9.0955 C6.2902,9.4185 6.7042,9.6025 7.1332,9.6025 C7.5642,9.6025 7.9772,9.4185 8.2672,9.0955 C8.2822,9.0795 8.2982,9.0765 8.3002,9.0765 L8.3012,9.0765 C8.7572,9.4365 9.0192,9.9755 9.0192,10.5545 L9.0192,11.1965 Z M9.6022,10.5545 C9.6022,9.7965 9.2592,9.0905 8.6622,8.6185 C8.4162,8.4255 8.0522,8.4635 7.8332,8.7065 C7.6512,8.9085 7.4032,9.0195 7.1332,9.0195 C6.8652,9.0195 6.6172,8.9085 6.4342,8.7065 C6.2152,8.4635 5.8512,8.4255 5.6052,8.6185 C5.0072,9.0905 4.6652,9.7965 4.6652,10.5545 L4.6652,11.4885 C4.6652,11.6495 4.7952,11.7795 4.9572,11.7795 L9.3112,11.7795 C9.4722,11.7795 9.6022,11.6495 9.6022,11.4885 L9.6022,10.5545 Z" id="Fill-22" stroke="#52B346" stroke-width="0.3" fill="#52B346"></path>
            </g>
        </g>
    </g>
</svg>