<?xml version="1.0" encoding="UTF-8"?>
<svg width="24px" height="24px" viewBox="0 0 24 24" version="1.1" xmlns="http://www.w3.org/2000/svg" xmlns:xlink="http://www.w3.org/1999/xlink">
    <!-- Generator: Sketch 46.2 (44496) - http://www.bohemiancoding.com/sketch -->
    <title>pass</title>
    <desc>Created with Sketch.</desc>
    <defs></defs>
    <g id="jhef" stroke="none" stroke-width="1" fill="none" fill-rule="evenodd">
        <g id="pass" stroke="#606060">
            <g id="Page-1-Copy" transform="translate(3.000000, 2.000000)">
                <polygon id="Stroke-1" stroke-width="1.5" stroke-linecap="round" stroke-linejoin="round" points="0.75 19.25 17.75 19.25 17.75 8.25 0.75 8.25"></polygon>
                <path d="M4.2504,8.25 C4.2504,8.102 4.2564,5.456 4.2694,5.312 C4.4914,2.755 6.6364,0.75 9.2504,0.75 C11.8854,0.75 14.0434,2.788 14.2354,5.374 C14.2454,5.498 14.2504,8.124 14.2504,8.25" id="Stroke-3" stroke-width="1.5" stroke-linecap="round" stroke-linejoin="round"></path>
                <polygon id="Stroke-4" points="4.789 14.494 6.276 14.494 6.276 13.007 4.789 13.007"></polygon>
                <polygon id="Stroke-5" points="8.507 14.494 9.994 14.494 9.994 13.007 8.507 13.007"></polygon>
                <polygon id="Stroke-6" points="12.224 14.494 13.711 14.494 13.711 13.007 12.224 13.007"></polygon>
            </g>
        </g>
    </g>
</svg>