<?xml version="1.0" encoding="UTF-8"?>
<svg width="24px" height="24px" viewBox="0 0 24 24" version="1.1" xmlns="http://www.w3.org/2000/svg" xmlns:xlink="http://www.w3.org/1999/xlink">
    <!-- Generator: Sketch 46.2 (44496) - http://www.bohemiancoding.com/sketch -->
    <title>setting</title>
    <desc>Created with Sketch.</desc>
    <defs></defs>
    <g id="jhef" stroke="none" stroke-width="1" fill="none" fill-rule="evenodd">
        <g id="setting" fill="#52B346">
            <g id="Page-1" transform="translate(3.000000, 3.000000)">
                <path d="M8.789603,13.8137041 L8.789603,14.806871 L7.02523781,14.806871 L7.02523781,13.8137041 C7.02523781,13.579702 6.86507073,13.3779107 6.63950999,13.3276997 C6.04654428,13.1884353 5.48327425,12.9538016 4.97023413,12.6367461 C4.77152585,12.5123239 4.51626944,12.5448505 4.35325915,12.7081152 L3.64751308,13.4107531 L2.39903121,12.162426 L3.10193408,11.4601039 C3.26494436,11.2968392 3.29748324,11.0391527 3.17301415,10.8436772 C2.85299589,10.3308305 2.62143283,9.76745694 2.4821159,9.17471473 C2.42872688,8.949239 2.2271754,8.78913228 1.99592825,8.78913228 L1.00238689,8.78913228 L1.00238689,7.02543209 L1.99592825,7.02543209 C2.2300186,7.02543209 2.43188599,6.86532538 2.4821159,6.64016544 C2.62143283,6.04710743 2.8558391,5.4840497 3.17301415,4.97120295 C3.29748324,4.77256957 3.26494436,4.51772515 3.10193408,4.35477631 L2.39903121,3.65213836 L3.64751308,2.39844279 L4.35041595,3.10076494 C4.51342623,3.26371379 4.77152585,3.2962404 4.96707501,3.17181822 C5.48611745,2.84876266 6.04370108,2.62076059 6.63666678,2.48118038 C6.86191162,2.42781148 7.0220787,2.22633597 7.0220787,1.99486018 L7.0220787,1.00200908 L8.78644389,1.00200908 L8.78644389,1.99486018 C8.78644389,2.2291781 8.94661097,2.43065361 9.1718558,2.48118038 C9.76513742,2.62076059 10.3287234,2.85476271 10.8417635,3.17181822 C11.0404718,3.2962404 11.2954123,3.26371379 11.4584225,3.10076494 L12.1613254,2.39844279 L13.4098073,3.64613831 L12.7069044,4.34846046 C12.5435782,4.5117251 12.5110393,4.76941164 12.6355084,4.96520289 C12.9558426,5.47804965 13.1870898,6.04142317 13.3267226,6.63416539 C13.3801116,6.85964111 13.5816631,7.01943204 13.8129102,7.01943204 L14.8064516,7.01943204 L14.8064516,8.78629015 L13.8129102,8.78629015 C13.5788199,8.78629015 13.3801116,8.94639687 13.3267226,9.1715568 C13.3058724,9.2666103 13.2733336,9.36419013 13.2464811,9.4560857 L12.6178174,8.83081687 C12.9233037,7.26575006 12.433957,5.62615625 11.3042578,4.49688286 C10.3966443,3.58992727 9.18701955,3.08876483 7.90599881,3.08876483 C7.49373442,3.08876483 7.08462916,3.14213374 6.68721261,3.24602942 C6.51219769,3.29339827 6.37856717,3.42666263 6.32802134,3.59592733 C6.28095054,3.77056049 6.33118046,3.95435163 6.45564955,4.08193173 L8.54034891,6.16584535 C9.19586507,6.82079866 9.19586507,7.88786096 8.54034891,8.54344585 C7.86745762,9.18039899 6.88876408,9.25429439 6.16216785,8.54344585 L4.0774685,6.45921643 C3.9501562,6.33195212 3.76629576,6.28142535 3.59096493,6.33195212 C3.41626593,6.37932097 3.2826354,6.51574326 3.24125101,6.69037642 C2.82014111,8.33849662 3.29748324,10.1053547 4.4985784,11.3028393 C5.60774334,12.4324285 7.22363017,12.9421173 8.83414651,12.6162196 L9.4624943,13.2443306 C9.36772087,13.274015 9.27579066,13.3008574 9.17785812,13.3245418 C8.94977009,13.3839108 8.789603,13.5825441 8.789603,13.8137041 M14.1300853,16.5052022 L13.7241391,16.0990933 L14.1095511,15.7138266 C14.3051002,15.5180354 14.3051002,15.203822 14.1095511,15.0083465 C13.913686,14.8125553 13.5993541,14.8125553 13.4034891,15.0083465 L13.0180772,15.3936132 L12.3331812,14.7089754 L13.457194,13.5853863 C13.6527432,13.389595 13.6527432,13.0753817 13.457194,12.8799062 C13.2613289,12.6844307 12.9469971,12.6844307 12.7514479,12.8799062 L11.6274352,14.0034953 L9.34402752,11.7209483 C9.13047141,11.5223149 8.90806978,11.578526 8.86668539,11.5905261 C8.10470708,11.8393705 6.37288076,11.8216861 5.20432448,10.6033593 C4.48088736,9.8801948 4.08631402,8.89587009 4.09231633,7.88786096 L5.45926498,9.25429439 C6.60096879,10.3216725 8.22033065,10.2683036 9.2520973,9.25429439 C10.2990277,8.20807439 10.2990277,6.50974321 9.2520973,5.4635232 L7.88514865,4.09645818 C8.9140721,4.09645818 9.87791779,4.48519854 10.604514,5.20836299 C11.5535119,6.15700317 11.9329215,7.56196327 11.5917372,8.86618561 C11.5443505,9.03513451 11.5948963,9.22208358 11.7222086,9.34366363 L16.5114255,14.1307596 C17.1669416,14.7860287 17.1669416,15.853091 16.5114255,16.5080443 C15.8470638,17.139629 14.7884447,17.1809978 14.1300853,16.5052022 M17.2171715,13.4192795 L14.0441574,10.2477771 C14.1007055,10.0965126 14.1569378,9.9420901 14.2043245,9.78829923 L15.3134894,9.78829923 C15.5892801,9.78829923 15.8145249,9.56598143 15.8145249,9.2871368 L15.8145249,6.52458545 C15.8145249,6.24889874 15.5921233,6.02342301 15.3134894,6.02342301 L14.2043245,6.02342301 C14.0766963,5.59362964 13.9019973,5.18152064 13.6912844,4.78741181 L14.4741128,4.00456261 C14.6699779,3.80908715 14.6699779,3.49487378 14.4741128,3.29939832 L12.5170417,1.3430648 C12.3214925,1.14727356 12.0071607,1.14727356 11.8112956,1.3430648 L11.0284671,2.12528242 C10.6338938,1.91212259 10.2187862,1.74033156 9.79167398,1.61243567 L9.79167398,0.501162437 C9.79167398,0.225475728 9.56958826,0 9.29063849,0 L6.52104321,0 C6.24525255,0 6.01969181,0.222317804 6.01969181,0.501162437 L6.01969181,1.60959353 C5.5900523,1.73717364 5.17747201,1.91212259 4.78321457,2.12275608 L4.00038611,1.33990688 C3.80483695,1.14443142 3.49050511,1.14443142 3.29464004,1.33990688 L1.33440977,3.29339827 C1.13886061,3.48918952 1.13886061,3.80340289 1.33440977,3.99887835 L2.12039735,4.78425388 C1.90684124,5.17552059 1.73466952,5.59078751 1.60735723,6.02058088 L0.501351399,6.02058088 C0.225560743,6.02058088 0,6.24289868 0,6.52142752 L0,9.28429467 C0,9.55998138 0.222401629,9.78514131 0.501351399,9.78514131 L1.61020043,9.78514131 C1.73782864,10.2149347 1.91284355,10.6270437 2.12324055,11.0211525 L1.34041209,11.8040017 C1.14454702,11.9994772 1.14454702,12.3136905 1.34041209,12.5094818 L3.29464004,14.4718154 C3.48134368,14.6584486 3.81652568,14.6584486 4.00038611,14.4718154 L4.78321457,13.6889662 C5.17747201,13.9024418 5.5928955,14.0745486 6.01969181,14.2018129 L6.01969181,15.3074019 C6.01969181,15.5834044 6.24240935,15.8085643 6.52104321,15.8085643 L9.29063849,15.8085643 C9.56642915,15.8085643 9.79167398,15.5862465 9.79167398,15.3074019 L9.79167398,14.1989708 C9.94899786,14.1516019 10.1031626,14.1010752 10.2513251,14.0388641 L13.4243392,17.2106823 C14.5543543,18.3402715 16.2416371,18.1830069 17.2171715,17.2106823 C18.2609428,16.1641465 18.2609428,14.4629732 17.2171715,13.4192795" id="Fill-1"></path>
            </g>
        </g>
    </g>
</svg>