<?xml version="1.0" encoding="UTF-8"?>
<svg width="24px" height="24px" viewBox="0 0 24 24" version="1.1" xmlns="http://www.w3.org/2000/svg" xmlns:xlink="http://www.w3.org/1999/xlink">
    <!-- Generator: Sketch 46.2 (44496) - http://www.bohemiancoding.com/sketch -->
    <title>Head cound</title>
    <desc>Created with Sketch.</desc>
    <defs></defs>
    <g id="jhef" stroke="none" stroke-width="1" fill="none" fill-rule="evenodd">
        <g id="Head-cound" fill="#2C2F33">
            <g id="Page-1" transform="translate(3.000000, 5.000000)">
                <path d="M12.514,3.7477 L12.514,5.1327 C12.514,5.3937 12.618,5.6367 12.793,5.8197 L12.793,6.2907 C12.793,6.4917 12.955,6.6537 13.158,6.6537 C13.36,6.6537 13.521,6.4917 13.521,6.2907 L13.521,5.6507 C13.521,5.5297 13.458,5.4157 13.36,5.3497 C13.286,5.3027 13.242,5.2217 13.242,5.1327 L13.242,3.7477 C13.242,3.2627 13.639,2.8657 14.123,2.8657 L14.421,2.8657 C14.907,2.8657 15.303,3.2627 15.303,3.7477 L15.303,5.1327 C15.303,5.2217 15.259,5.3027 15.186,5.3497 C15.082,5.4157 15.024,5.5297 15.024,5.6507 L15.024,6.9847 C15.024,7.1457 15.119,7.2967 15.263,7.3667 C15.435,7.4507 16.332,7.9027 17.162,8.5827 C17.232,8.6417 17.273,8.7267 17.273,8.8217 L17.273,11.5507 L14.723,11.5507 C14.521,11.5507 14.359,11.7127 14.359,11.9147 C14.359,12.1167 14.521,12.2777 14.723,12.2777 L17.636,12.2777 C17.838,12.2777 18,12.1167 18,11.9147 L18,8.8217 C18,8.5077 17.855,8.2117 17.612,8.0127 C16.883,7.4177 16.106,6.9837 15.751,6.7977 L15.751,5.8157 C15.928,5.6327 16.031,5.3907 16.031,5.1297 L16.031,3.7437 C16.031,2.8547 15.31,2.1347 14.421,2.1347 L14.123,2.1347 C13.239,2.1387 12.514,2.8577 12.514,3.7477" id="Fill-1"></path>
                <path d="M0.3636,12.278 L3.3216,12.278 C3.5236,12.278 3.6846,12.117 3.6846,11.915 C3.6846,11.713 3.5236,11.55 3.3216,11.55 L0.7276,11.55 L0.7276,8.822 C0.7276,8.73 0.7676,8.641 0.8376,8.583 C1.6646,7.903 2.5646,7.448 2.7376,7.367 C2.8846,7.297 2.9756,7.146 2.9756,6.985 L2.9756,5.651 C2.9756,5.53 2.9136,5.416 2.8146,5.349 C2.7406,5.302 2.6966,5.221 2.6966,5.132 L2.6966,3.748 C2.6966,3.262 3.0936,2.866 3.5786,2.866 L3.8766,2.866 C4.3616,2.866 4.7586,3.262 4.7586,3.748 L4.7586,5.132 C4.7586,5.221 4.7146,5.302 4.6406,5.349 C4.5376,5.416 4.4786,5.53 4.4786,5.651 L4.4786,6.32 C4.4786,6.522 4.6406,6.683 4.8426,6.683 C5.0446,6.683 5.2066,6.522 5.2066,6.32 L5.2066,5.82 C5.3836,5.636 5.4856,5.394 5.4856,5.132 L5.4856,3.748 C5.4856,2.859 4.7646,2.138 3.8766,2.138 L3.5786,2.138 C2.6896,2.138 1.9686,2.859 1.9686,3.748 L1.9686,5.132 C1.9686,5.394 2.0726,5.636 2.2486,5.82 L2.2486,6.8 C1.8896,6.988 1.1156,7.419 0.3866,8.017 C0.1446,8.216 0.0006,8.511 0.0006,8.826 L0.0006,11.915 C0.0006,12.117 0.1616,12.278 0.3636,12.278" id="Fill-3"></path>
                <path d="M12.8226,8.153 C12.9406,8.249 13.0076,8.392 13.0076,8.543 L13.0076,12.993 L5.0266,12.993 L5.0266,8.543 C5.0266,8.394 5.0926,8.251 5.2066,8.156 C6.2876,7.265 7.4626,6.673 7.6866,6.562 C7.8376,6.489 7.9356,6.331 7.9356,6.166 L7.9356,4.438 C7.9356,4.317 7.8746,4.204 7.7746,4.137 C7.6496,4.052 7.5766,3.917 7.5766,3.769 L7.5766,1.98 C7.5766,1.291 8.1356,0.731 8.8256,0.731 L9.2116,0.731 C9.9016,0.731 10.4606,1.291 10.4606,1.98 L10.4606,3.769 C10.4606,3.917 10.3866,4.056 10.2616,4.137 C10.1596,4.204 10.1006,4.317 10.1006,4.438 L10.1006,6.166 C10.1006,6.335 10.1996,6.489 10.3496,6.562 C10.5706,6.673 11.7426,7.267 12.8226,8.153 M11.1836,3.766 L11.1836,1.976 C11.1836,0.885 10.2996,0 9.2076,0 L8.8216,0 C7.7296,0 6.8446,0.885 6.8446,1.976 L6.8446,3.766 C6.8446,4.09 6.9776,4.39 7.2056,4.611 L7.2056,5.989 C6.7766,6.209 5.7316,6.778 4.7546,7.582 C4.4666,7.819 4.2956,8.17 4.2956,8.543 L4.2956,13.72 L13.7306,13.72 L13.7306,8.543 C13.7306,8.17 13.5586,7.817 13.2696,7.581 C12.2926,6.782 11.2486,6.209 10.8206,5.989 L10.8206,4.611 C11.0516,4.394 11.1836,4.09 11.1836,3.766" id="Fill-5"></path>
            </g>
        </g>
    </g>
</svg>