<?xml version="1.0" encoding="UTF-8"?>
<svg width="24px" height="24px" viewBox="0 0 24 24" version="1.1" xmlns="http://www.w3.org/2000/svg" xmlns:xlink="http://www.w3.org/1999/xlink">
    <!-- Generator: Sketch 46.2 (44496) - http://www.bohemiancoding.com/sketch -->
    <title>icon/tinh trang ba me copy 4</title>
    <desc>Created with Sketch.</desc>
    <defs></defs>
    <g id="jhef" stroke="none" stroke-width="1" fill="none" fill-rule="evenodd">
        <g id="icon/tinh-trang-ba-me-copy-4">
            <g id="Page-1-Copy" transform="translate(3.000000, 4.000000)">
                <path d="M6.3164,1.3744 C6.6624,1.0054 7.1304,0.8024 7.6364,0.8024 L9.6134,0.8024 C9.6574,0.8024 9.7014,0.8044 9.7444,0.8074 L9.2204,2.2044 C9.1764,2.2744 8.9664,2.5864 8.4874,2.9094 C8.0194,3.2254 7.2004,3.6124 5.8964,3.7354 L5.8314,2.7294 C5.7974,2.2244 5.9704,1.7434 6.3164,1.3744 L6.3164,1.3744 Z M10.9334,1.3744 C11.2794,1.7434 11.4524,2.2244 11.4194,2.7284 L11.3864,3.2274 C10.7584,3.0694 10.4494,2.9484 10.2974,2.8694 C9.9284,2.6784 9.8454,2.5204 9.8424,2.4724 C9.8434,2.4724 9.8434,2.4714 9.8434,2.4704 C9.8434,2.4704 9.8434,2.4694 9.8444,2.4694 L10.4024,0.9814 C10.5984,1.0774 10.7784,1.2084 10.9334,1.3744 L10.9334,1.3744 Z M9.8334,9.2554 C9.0764,9.6714 8.1734,9.6714 7.4174,9.2554 C6.6634,8.8414 6.1804,8.0814 6.1244,7.2234 L5.9404,4.4114 C7.8484,4.2364 8.8884,3.5394 9.4014,3.0384 C9.5384,3.1954 9.7344,3.3404 9.9874,3.4714 C10.2604,3.6124 10.7144,3.7614 11.3414,3.9134 L11.1264,7.2234 C11.0694,8.0814 10.5874,8.8414 9.8334,9.2554 L9.8334,9.2554 Z M5.2434,4.1204 L5.4484,7.2674 C5.5194,8.3574 6.1334,9.3224 7.0904,9.8494 C7.5714,10.1134 8.0974,10.2454 8.6254,10.2454 C9.1524,10.2454 9.6784,10.1134 10.1594,9.8494 C11.1164,9.3224 11.7304,8.3574 11.8014,7.2674 L12.0364,3.6714 L12.0944,2.7734 C12.1394,2.0794 11.9034,1.4184 11.4274,0.9114 C10.9534,0.4044 10.3084,0.1244 9.6134,0.1244 L7.6364,0.1244 C6.9414,0.1244 6.2964,0.4044 5.8224,0.9114 C5.3464,1.4184 5.1104,2.0794 5.1554,2.7734 L5.2434,4.1204 Z" id="Fill-1" fill="#606060"></path>
                <path d="M6.3164,1.3744 C6.6624,1.0054 7.1304,0.8024 7.6364,0.8024 L9.6134,0.8024 C9.6574,0.8024 9.7014,0.8044 9.7444,0.8074 L9.2204,2.2044 C9.1764,2.2744 8.9664,2.5864 8.4874,2.9094 C8.0194,3.2254 7.2004,3.6124 5.8964,3.7354 L5.8314,2.7294 C5.7974,2.2244 5.9704,1.7434 6.3164,1.3744 Z M10.9334,1.3744 C11.2794,1.7434 11.4524,2.2244 11.4194,2.7284 L11.3864,3.2274 C10.7584,3.0694 10.4494,2.9484 10.2974,2.8694 C9.9284,2.6784 9.8454,2.5204 9.8424,2.4724 C9.8434,2.4724 9.8434,2.4714 9.8434,2.4704 C9.8434,2.4704 9.8434,2.4694 9.8444,2.4694 L10.4024,0.9814 C10.5984,1.0774 10.7784,1.2084 10.9334,1.3744 Z M9.8334,9.2554 C9.0764,9.6714 8.1734,9.6714 7.4174,9.2554 C6.6634,8.8414 6.1804,8.0814 6.1244,7.2234 L5.9404,4.4114 C7.8484,4.2364 8.8884,3.5394 9.4014,3.0384 C9.5384,3.1954 9.7344,3.3404 9.9874,3.4714 C10.2604,3.6124 10.7144,3.7614 11.3414,3.9134 L11.1264,7.2234 C11.0694,8.0814 10.5874,8.8414 9.8334,9.2554 Z M5.2434,4.1204 L5.4484,7.2674 C5.5194,8.3574 6.1334,9.3224 7.0904,9.8494 C7.5714,10.1134 8.0974,10.2454 8.6254,10.2454 C9.1524,10.2454 9.6784,10.1134 10.1594,9.8494 C11.1164,9.3224 11.7304,8.3574 11.8014,7.2674 L12.0364,3.6714 L12.0944,2.7734 C12.1394,2.0794 11.9034,1.4184 11.4274,0.9114 C10.9534,0.4044 10.3084,0.1244 9.6134,0.1244 L7.6364,0.1244 C6.9414,0.1244 6.2964,0.4044 5.8224,0.9114 C5.3464,1.4184 5.1104,2.0794 5.1554,2.7734 L5.2434,4.1204 Z" id="Stroke-3" stroke="#606060" stroke-width="0.25"></path>
                <path d="M0.8691,16.2509 L1.1241,14.8429 C1.4321,13.1389 2.7481,11.7679 4.4241,11.3799 L8.3861,15.3419 C8.4521,15.4079 8.5381,15.4409 8.6251,15.4409 C8.7121,15.4409 8.7981,15.4079 8.8641,15.3419 L12.8261,11.3799 C14.5021,11.7679 15.8171,13.1389 16.1261,14.8429 L16.3811,16.2509 L0.8691,16.2509 Z M6.2501,11.2689 L8.1461,13.1649 L7.6561,13.6549 L6.9481,12.9469 L5.2721,11.2709 C5.3161,11.2699 5.3601,11.2689 5.4041,11.2689 L6.2501,11.2689 Z M11.0001,11.2689 L11.8471,11.2689 C11.8901,11.2689 11.9331,11.2699 11.9771,11.2709 L10.3021,12.9469 L8.6251,14.6239 L8.1361,14.1339 L8.8641,13.4039 L11.0001,11.2689 Z M17.1191,16.5289 L16.7921,14.7219 C16.6081,13.7089 16.1271,12.7899 15.3991,12.0629 C14.6811,11.3449 13.7741,10.8659 12.7791,10.6789 C12.4721,10.6209 12.1581,10.5909 11.8461,10.5909 L10.8601,10.5909 C10.7701,10.5909 10.6841,10.6269 10.6201,10.6899 L8.6251,12.6859 L6.6301,10.6899 C6.5651,10.6269 6.4791,10.5909 6.3901,10.5909 L5.4041,10.5909 C5.0921,10.5909 4.7781,10.6209 4.4711,10.6779 C3.4751,10.8659 2.5691,11.3449 1.8501,12.0629 C1.1231,12.7899 0.6411,13.7089 0.4581,14.7219 L0.1311,16.5289 C0.1121,16.6279 0.1401,16.7299 0.2041,16.8069 C0.2671,16.8839 0.3631,16.9279 0.4641,16.9279 L16.7861,16.9279 C16.8871,16.9279 16.9811,16.8839 17.0461,16.8069 C17.1101,16.7299 17.1381,16.6279 17.1191,16.5289 L17.1191,16.5289 Z" id="Fill-5" fill="#606060"></path>
                <path d="M0.8691,16.2509 L1.1241,14.8429 C1.4321,13.1389 2.7481,11.7679 4.4241,11.3799 L8.3861,15.3419 C8.4521,15.4079 8.5381,15.4409 8.6251,15.4409 C8.7121,15.4409 8.7981,15.4079 8.8641,15.3419 L12.8261,11.3799 C14.5021,11.7679 15.8171,13.1389 16.1261,14.8429 L16.3811,16.2509 L0.8691,16.2509 Z M6.2501,11.2689 L8.1461,13.1649 L7.6561,13.6549 L6.9481,12.9469 L5.2721,11.2709 C5.3161,11.2699 5.3601,11.2689 5.4041,11.2689 L6.2501,11.2689 Z M11.0001,11.2689 L11.8471,11.2689 C11.8901,11.2689 11.9331,11.2699 11.9771,11.2709 L10.3021,12.9469 L8.6251,14.6239 L8.1361,14.1339 L8.8641,13.4039 L11.0001,11.2689 Z M17.1191,16.5289 L16.7921,14.7219 C16.6081,13.7089 16.1271,12.7899 15.3991,12.0629 C14.6811,11.3449 13.7741,10.8659 12.7791,10.6789 C12.4721,10.6209 12.1581,10.5909 11.8461,10.5909 L10.8601,10.5909 C10.7701,10.5909 10.6841,10.6269 10.6201,10.6899 L8.6251,12.6859 L6.6301,10.6899 C6.5651,10.6269 6.4791,10.5909 6.3901,10.5909 L5.4041,10.5909 C5.0921,10.5909 4.7781,10.6209 4.4711,10.6779 C3.4751,10.8659 2.5691,11.3449 1.8501,12.0629 C1.1231,12.7899 0.6411,13.7089 0.4581,14.7219 L0.1311,16.5289 C0.1121,16.6279 0.1401,16.7299 0.2041,16.8069 C0.2671,16.8839 0.3631,16.9279 0.4641,16.9279 L16.7861,16.9279 C16.8871,16.9279 16.9811,16.8839 17.0461,16.8069 C17.1101,16.7299 17.1381,16.6279 17.1191,16.5289 Z" id="Stroke-7" stroke="#606060" stroke-width="0.25"></path>
            </g>
        </g>
    </g>
</svg>