<?xml version="1.0" encoding="UTF-8"?>
<svg width="24px" height="24px" viewBox="0 0 24 24" version="1.1" xmlns="http://www.w3.org/2000/svg" xmlns:xlink="http://www.w3.org/1999/xlink">
    <!-- Generator: Sketch 46.2 (44496) - http://www.bohemiancoding.com/sketch -->
    <title>code verify</title>
    <desc>Created with Sketch.</desc>
    <defs></defs>
    <g id="jhef" stroke="none" stroke-width="1" fill="none" fill-rule="evenodd">
        <g id="code-verify">
            <g id="Page-1-Copy" transform="translate(2.000000, 3.000000)">
                <path d="M6.957,8.3303 L12.293,8.3303 L12.293,4.2273 L6.957,4.2273 L6.957,8.3303 Z M8.189,2.3803 C8.189,1.5893 8.833,0.9463 9.626,0.9463 C10.418,0.9463 11.06,1.5893 11.06,2.3803 L11.06,3.4063 L8.189,3.4063 L8.189,2.3803 Z M6.549,9.1523 L12.703,9.1523 C12.93,9.1523 13.111,8.9683 13.111,8.7423 L13.111,3.8173 C13.111,3.5913 12.93,3.4063 12.703,3.4063 L11.882,3.4063 L11.882,2.3803 C11.882,1.1373 10.87,0.1253 9.626,0.1253 C8.382,0.1253 7.368,1.1373 7.368,2.3803 L7.368,3.4063 L6.549,3.4063 C6.32,3.4063 6.139,3.5913 6.139,3.8173 L6.139,8.7423 C6.139,8.9683 6.32,9.1523 6.549,9.1523 L6.549,9.1523 Z" id="Fill-1" fill="#606060"></path>
                <path d="M6.957,8.3303 L12.293,8.3303 L12.293,4.2273 L6.957,4.2273 L6.957,8.3303 Z M8.189,2.3803 C8.189,1.5893 8.833,0.9463 9.626,0.9463 C10.418,0.9463 11.06,1.5893 11.06,2.3803 L11.06,3.4063 L8.189,3.4063 L8.189,2.3803 Z M6.549,9.1523 L12.703,9.1523 C12.93,9.1523 13.111,8.9683 13.111,8.7423 L13.111,3.8173 C13.111,3.5913 12.93,3.4063 12.703,3.4063 L11.882,3.4063 L11.882,2.3803 C11.882,1.1373 10.87,0.1253 9.626,0.1253 C8.382,0.1253 7.368,1.1373 7.368,2.3803 L7.368,3.4063 L6.549,3.4063 C6.32,3.4063 6.139,3.5913 6.139,3.8173 L6.139,8.7423 C6.139,8.9683 6.32,9.1523 6.549,9.1523 Z" id="Stroke-3" stroke="#606060" stroke-width="0.25"></path>
                <path d="M15.6415,17.3541 L3.6085,17.3541 C2.0365,17.3541 0.7585,16.0761 0.7585,14.5041 C0.7585,12.9341 2.0365,11.6551 3.6085,11.6551 L15.6415,11.6551 C17.2135,11.6551 18.4915,12.9341 18.4915,14.5041 C18.4915,16.0761 17.2135,17.3541 15.6415,17.3541 M15.6415,11.0211 L3.6085,11.0211 C1.6885,11.0211 0.1245,12.5841 0.1245,14.5041 C0.1245,16.4251 1.6885,17.9881 3.6085,17.9881 L15.6415,17.9881 C17.5615,17.9881 19.1245,16.4251 19.1245,14.5041 C19.1245,12.5841 17.5615,11.0211 15.6415,11.0211" id="Fill-4" fill="#606060"></path>
                <path d="M15.6415,17.3541 L3.6085,17.3541 C2.0365,17.3541 0.7585,16.0761 0.7585,14.5041 C0.7585,12.9341 2.0365,11.6551 3.6085,11.6551 L15.6415,11.6551 C17.2135,11.6551 18.4915,12.9341 18.4915,14.5041 C18.4915,16.0761 17.2135,17.3541 15.6415,17.3541 Z M15.6415,11.0211 L3.6085,11.0211 C1.6885,11.0211 0.1245,12.5841 0.1245,14.5041 C0.1245,16.4251 1.6885,17.9881 3.6085,17.9881 L15.6415,17.9881 C17.5615,17.9881 19.1245,16.4251 19.1245,14.5041 C19.1245,12.5841 17.5615,11.0211 15.6415,11.0211 Z" id="Stroke-5" stroke="#606060" stroke-width="0.25"></path>
                <path d="M5.0497,13.588 L4.2407,13.993 L4.2407,12.921 C4.2407,12.747 4.1007,12.604 3.9257,12.604 C3.7487,12.604 3.6087,12.747 3.6087,12.921 L3.6087,13.993 L2.7997,13.589 C2.6437,13.511 2.4537,13.574 2.3747,13.73 C2.2977,13.886 2.3597,14.076 2.5177,14.155 L3.4437,14.619 L2.7217,15.583 C2.6157,15.721 2.6457,15.919 2.7847,16.025 C2.8417,16.067 2.9077,16.088 2.9747,16.088 C3.0707,16.088 3.1667,16.045 3.2287,15.961 L3.9257,15.032 L4.6207,15.961 C4.6837,16.045 4.7787,16.088 4.8747,16.088 C4.9417,16.088 5.0077,16.067 5.0657,16.025 C5.2037,15.919 5.2337,15.721 5.1287,15.583 L4.4057,14.619 L5.3327,14.155 C5.4897,14.076 5.5527,13.886 5.4757,13.73 C5.3967,13.574 5.2057,13.511 5.0497,13.588" id="Fill-6" fill="#606060"></path>
                <path d="M5.0497,13.588 L4.2407,13.993 L4.2407,12.921 C4.2407,12.747 4.1007,12.604 3.9257,12.604 C3.7487,12.604 3.6087,12.747 3.6087,12.921 L3.6087,13.993 L2.7997,13.589 C2.6437,13.511 2.4537,13.574 2.3747,13.73 C2.2977,13.886 2.3597,14.076 2.5177,14.155 L3.4437,14.619 L2.7217,15.583 C2.6157,15.721 2.6457,15.919 2.7847,16.025 C2.8417,16.067 2.9077,16.088 2.9747,16.088 C3.0707,16.088 3.1667,16.045 3.2287,15.961 L3.9257,15.032 L4.6207,15.961 C4.6837,16.045 4.7787,16.088 4.8747,16.088 C4.9417,16.088 5.0077,16.067 5.0657,16.025 C5.2037,15.919 5.2337,15.721 5.1287,15.583 L4.4057,14.619 L5.3327,14.155 C5.4897,14.076 5.5527,13.886 5.4757,13.73 C5.3967,13.574 5.2057,13.511 5.0497,13.588 Z" id="Stroke-7" stroke="#606060" stroke-width="0.25"></path>
                <path d="M8.8505,13.588 L8.0415,13.993 L8.0415,12.921 C8.0415,12.747 7.8995,12.604 7.7245,12.604 C7.5495,12.604 7.4075,12.747 7.4075,12.921 L7.4075,13.993 L6.6005,13.589 C6.4445,13.511 6.2525,13.574 6.1755,13.73 C6.0965,13.886 6.1605,14.076 6.3165,14.155 L7.2445,14.619 L6.5215,15.583 C6.4165,15.721 6.4445,15.919 6.5845,16.025 C6.6425,16.067 6.7085,16.088 6.7755,16.088 C6.8715,16.088 6.9655,16.045 7.0295,15.961 L7.7245,15.032 L8.4215,15.961 C8.4845,16.045 8.5785,16.088 8.6755,16.088 C8.7425,16.088 8.8085,16.067 8.8645,16.025 C9.0045,15.919 9.0335,15.721 8.9275,15.583 L8.2055,14.619 L9.1335,14.155 C9.2885,14.076 9.3525,13.886 9.2745,13.73 C9.1975,13.574 9.0065,13.511 8.8505,13.588" id="Fill-8" fill="#606060"></path>
                <path d="M8.8505,13.588 L8.0415,13.993 L8.0415,12.921 C8.0415,12.747 7.8995,12.604 7.7245,12.604 C7.5495,12.604 7.4075,12.747 7.4075,12.921 L7.4075,13.993 L6.6005,13.589 C6.4445,13.511 6.2525,13.574 6.1755,13.73 C6.0965,13.886 6.1605,14.076 6.3165,14.155 L7.2445,14.619 L6.5215,15.583 C6.4165,15.721 6.4445,15.919 6.5845,16.025 C6.6425,16.067 6.7085,16.088 6.7755,16.088 C6.8715,16.088 6.9655,16.045 7.0295,15.961 L7.7245,15.032 L8.4215,15.961 C8.4845,16.045 8.5785,16.088 8.6755,16.088 C8.7425,16.088 8.8085,16.067 8.8645,16.025 C9.0045,15.919 9.0335,15.721 8.9275,15.583 L8.2055,14.619 L9.1335,14.155 C9.2885,14.076 9.3525,13.886 9.2745,13.73 C9.1975,13.574 9.0065,13.511 8.8505,13.588 Z" id="Stroke-9" stroke="#606060" stroke-width="0.25"></path>
                <path d="M12.6493,13.588 L11.8423,13.993 L11.8423,12.921 C11.8423,12.747 11.7003,12.604 11.5253,12.604 C11.3503,12.604 11.2083,12.747 11.2083,12.921 L11.2083,13.993 L10.3993,13.589 C10.2433,13.511 10.0533,13.574 9.9743,13.73 C9.8973,13.886 9.9613,14.076 10.1173,14.155 L11.0453,14.619 L10.3223,15.583 C10.2163,15.721 10.2453,15.919 10.3853,16.025 C10.4413,16.067 10.5073,16.088 10.5743,16.088 C10.6713,16.088 10.7663,16.045 10.8283,15.961 L11.5253,15.032 L12.2213,15.961 C12.2853,16.045 12.3783,16.088 12.4743,16.088 C12.5413,16.088 12.6073,16.067 12.6653,16.025 C12.8053,15.919 12.8333,15.721 12.7283,15.583 L12.0063,14.619 L12.9333,14.155 C13.0893,14.076 13.1533,13.886 13.0753,13.73 C12.9963,13.574 12.8073,13.511 12.6493,13.588" id="Fill-10" fill="#606060"></path>
                <path d="M12.6493,13.588 L11.8423,13.993 L11.8423,12.921 C11.8423,12.747 11.7003,12.604 11.5253,12.604 C11.3503,12.604 11.2083,12.747 11.2083,12.921 L11.2083,13.993 L10.3993,13.589 C10.2433,13.511 10.0533,13.574 9.9743,13.73 C9.8973,13.886 9.9613,14.076 10.1173,14.155 L11.0453,14.619 L10.3223,15.583 C10.2163,15.721 10.2453,15.919 10.3853,16.025 C10.4413,16.067 10.5073,16.088 10.5743,16.088 C10.6713,16.088 10.7663,16.045 10.8283,15.961 L11.5253,15.032 L12.2213,15.961 C12.2853,16.045 12.3783,16.088 12.4743,16.088 C12.5413,16.088 12.6073,16.067 12.6653,16.025 C12.8053,15.919 12.8333,15.721 12.7283,15.583 L12.0063,14.619 L12.9333,14.155 C13.0893,14.076 13.1533,13.886 13.0753,13.73 C12.9963,13.574 12.8073,13.511 12.6493,13.588 Z" id="Stroke-11" stroke="#606060" stroke-width="0.25"></path>
                <path d="M16.4501,13.588 L15.6411,13.993 L15.6411,12.921 C15.6411,12.747 15.5011,12.604 15.3241,12.604 C15.1491,12.604 15.0091,12.747 15.0091,12.921 L15.0091,13.993 L14.2001,13.589 C14.0431,13.511 13.8541,13.574 13.7751,13.73 C13.6961,13.886 13.7601,14.076 13.9161,14.155 L14.8441,14.619 L14.1211,15.583 C14.0161,15.721 14.0461,15.919 14.1851,16.025 C14.2421,16.067 14.3081,16.088 14.3751,16.088 C14.4711,16.088 14.5651,16.045 14.6291,15.961 L15.3241,15.032 L16.0211,15.961 C16.0841,16.045 16.1791,16.088 16.2751,16.088 C16.3421,16.088 16.4081,16.067 16.4661,16.025 C16.6041,15.919 16.6341,15.721 16.5291,15.583 L15.8051,14.619 L16.7331,14.155 C16.8891,14.076 16.9531,13.886 16.8751,13.73 C16.7971,13.574 16.6061,13.511 16.4501,13.588" id="Fill-12" fill="#606060"></path>
                <path d="M16.4501,13.588 L15.6411,13.993 L15.6411,12.921 C15.6411,12.747 15.5011,12.604 15.3241,12.604 C15.1491,12.604 15.0091,12.747 15.0091,12.921 L15.0091,13.993 L14.2001,13.589 C14.0431,13.511 13.8541,13.574 13.7751,13.73 C13.6961,13.886 13.7601,14.076 13.9161,14.155 L14.8441,14.619 L14.1211,15.583 C14.0161,15.721 14.0461,15.919 14.1851,16.025 C14.2421,16.067 14.3081,16.088 14.3751,16.088 C14.4711,16.088 14.5651,16.045 14.6291,15.961 L15.3241,15.032 L16.0211,15.961 C16.0841,16.045 16.1791,16.088 16.2751,16.088 C16.3421,16.088 16.4081,16.067 16.4661,16.025 C16.6041,15.919 16.6341,15.721 16.5291,15.583 L15.8051,14.619 L16.7331,14.155 C16.8891,14.076 16.9531,13.886 16.8751,13.73 C16.7971,13.574 16.6061,13.511 16.4501,13.588 Z" id="Stroke-13" stroke="#606060" stroke-width="0.25"></path>
            </g>
        </g>
    </g>
</svg>